<svg enable-background="new 0 0 288 288" viewBox="0 0 288 288" xmlns="http://www.w3.org/2000/svg"><path d="m74.7 213.4c-7-7.1-15.5-10.6-25.4-10.6s-18.5 3.5-25.4 10.6c-7.3 7-10.9 15.5-10.9 25.5s3.6 18.5 10.8 25.6c7 7 15.5 10.5 25.4 10.5s18.5-3.5 25.4-10.5c7.1-7.1 10.6-15.6 10.6-25.6.1-10-3.4-18.5-10.5-25.5m17.8-94c-17.5-7.6-35.9-11.3-55.3-11.3v47.8c13 0 25.3 2.5 36.8 7.6 11.9 4.9 22 11.6 30.6 20.1 8.5 8.5 15.2 18.6 20.1 30.3 5.1 11.9 7.6 24.2 7.6 37.1h47.7c0-19.4-3.7-37.8-11.3-55.3-7.6-17.7-17.8-33-30.6-45.7-12.7-12.9-28-23.1-45.6-30.6"/><path d="m170.1 53.8c-12.8-8.7-26.3-16.1-40.4-22.1-14.2-5.9-29.1-10.4-44.7-13.7s-31.7-4.9-47.9-4.9v47.5c17.4 0 34.2 2.3 50.6 6.7 16.4 4.5 31.6 10.8 45.5 19 13.8 8.2 26.7 18.2 38.5 29.9 11.9 11.9 21.8 24.7 29.9 38.5 8.2 13.8 14.6 28.9 19 45.5 4.5 16.3 6.7 33.1 6.7 50.6h47.7c0-16.3-1.6-32.2-4.9-47.9s-7.9-30.6-13.9-44.7c-5.9-14.1-13.1-27.5-21.7-40.1-8.7-12.8-18.5-24.7-29.3-35.5-10.7-10.5-22.4-20.1-35.1-28.8"/></svg>