<svg enable-background="new 0 0 288 288" viewBox="0 0 288 288" xmlns="http://www.w3.org/2000/svg"><path d="m285.6 86.6c-.6-14-2.7-24.9-6.8-35.4-4-10.4-9.3-18.6-17.2-26.4-7.8-7.8-16-13.1-26.4-17.2-10.5-4.1-21.4-6.2-35.4-6.8-14.9-.6-19.8-.8-57.4-.8s-42.5.2-57.4.8c-14 .7-24.9 2.8-35.3 6.8s-18.6 9.4-26.4 17.2-13.1 16-17.2 26.4c-4.1 10.5-6.2 21.4-6.8 35.4-.7 14.9-.8 19.8-.8 57.4s.2 42.5.8 57.4c.6 14 2.7 24.9 6.8 35.4 4 10.4 9.4 18.6 17.2 26.4s16 13.1 26.4 17.2c10.5 4.1 21.4 6.2 35.4 6.8 14.9.7 19.8.8 57.4.8s42.5-.2 57.4-.8c14-.6 24.9-2.7 35.4-6.8 10.4-4 18.6-9.3 26.4-17.2 7.8-7.8 13.1-16 17.2-26.4 4.1-10.5 6.2-21.4 6.8-35.4.7-14.9.8-19.8.8-57.4-.1-37.6-.2-42.5-.9-57.4zm-29.5 57.4c0 37-.1 41.4-.8 56-.6 13.5-2.9 20.9-4.8 25.7-2.5 6.5-5.5 11.1-10.4 15.9-4.9 4.9-9.5 7.9-15.9 10.4-4.9 1.9-12.2 4.2-25.7 4.8-14.6.7-19 .8-56 .8s-41.4-.1-56-.8c-13.5-.6-20.9-2.9-25.7-4.8-6.5-2.5-11.1-5.5-15.9-10.4-4.9-4.9-7.9-9.5-10.4-15.9-1.9-4.9-4.2-12.2-4.8-25.7-.7-14.6-.8-19-.8-56s.1-41.4.8-56c.6-13.5 2.9-20.9 4.8-25.7 2.5-6.5 5.5-11.1 10.4-15.9 4.9-4.9 9.5-7.9 15.9-10.4 4.9-1.9 12.2-4.2 25.7-4.8 14.6-.7 19-.8 56-.8s41.4.1 56 .8c13.5.6 20.9 2.9 25.7 4.8 6.5 2.5 11.1 5.5 15.9 10.4 4.9 4.9 7.9 9.5 10.4 15.9 1.9 4.9 4.2 12.2 4.8 25.7.7 14.6.8 19 .8 56z"/><path d="m142.4 67.5c-42.2 0-76.5 34.3-76.5 76.5s34.3 76.5 76.5 76.5 76.5-34.3 76.5-76.5c.1-42.2-34.3-76.5-76.5-76.5zm-46.2 76.5c0-25.5 20.7-46.2 46.2-46.2s46.2 20.7 46.2 46.2-20.7 46.2-46.2 46.2-46.2-20.7-46.2-46.2z"/><path d="m216.5 50.7c-10.6 0-19.3 8.7-19.3 19.3s8.7 19.3 19.3 19.3 19.3-8.7 19.3-19.3c0-10.7-8.7-19.3-19.3-19.3z"/></svg>