<svg class="shopify-buy__icon-cart shopify-buy__icon-cart--side" data-element="toggle.icon" enable-background="new 0 0 304 288" viewBox="0 0 304 288" xmlns="http://www.w3.org/2000/svg"><path d="m229.8 244.7c4.5 0 8.2 3.7 8.2 8.2s-3.7 8.2-8.2 8.2-8.2-3.7-8.2-8.2c.1-4.6 3.7-8.2 8.2-8.2zm0-27c-19.4 0-35.2 15.7-35.2 35.1s15.7 35.2 35.1 35.2c19.4 0 35.2-15.7 35.2-35.1.1-19.5-15.6-35.2-35.1-35.2z"/><path d="m109 244.7c4.2.2 7.5 3.6 7.7 7.8.1 2.8-1.1 4.7-2.1 5.9-1 1.1-2.7 2.4-5.2 2.6-4.2-.2-7.5-3.6-7.7-7.8-.2-4.4 3.1-8.1 7.3-8.5m-.4-27h-.1c-19.4.8-34.5 17.2-33.7 36.6.8 18.6 15.9 33.4 34.5 33.7h.8c19.4-.9 34.5-17.3 33.6-36.7-.8-18.8-16.3-33.6-35.1-33.6z"/><path d="m292.2 49.2c-.8-.2-1.7-.2-2.6-.2h-214.1l-3.4-22.7c-2.1-15.1-15-26.3-30.2-26.3h-27.6c-7.5 0-13.5 6.1-13.5 13.6s6.1 13.6 13.6 13.6h27.6c1.7 0 3.2 1.3 3.4 3l2.7 18.8 18.1 124.3c2.9 18.2 18.5 31.6 36.9 31.7h141.1c17.7 0 33-12.5 36.5-29.8l22.3-110.1c1.4-7.3-3.4-14.5-10.8-15.9zm-37.8 120.6c-1 4.8-5.2 8.2-10.1 8.2h-141.1c-5.1 0-9.5-3.7-10.3-8.8l-13.6-93.2h194z"/></svg>