<svg viewBox="0 0 387 90" class="logo" xmlns="http://www.w3.org/2000/svg">
  <title>C100</title>
  <path d="m283.6 14.4c17 0 30.8 13.8 30.8 30.8s-13.8 30.8-30.8 30.8-30.8-13.8-30.8-30.8c.1-17 13.9-30.8 30.8-30.8m0-14.4c-24.9 0-45.2 20.2-45.2 45.2 0 24.9 20.2 45.2 45.2 45.2s45.2-20.2 45.2-45.2-20.2-45.2-45.2-45.2zm-98.8 14.4c17 0 30.8 13.8 30.8 30.8s-13.8 30.8-30.8 30.8-30.8-13.9-30.8-30.8c0-17 13.8-30.8 30.8-30.8m0-14.4c-24.9 0-45.2 20.2-45.2 45.2 0 24.9 20.2 45.2 45.2 45.2s45.2-20.2 45.2-45.2c-.1-25-20.3-45.2-45.2-45.2zm-117.7 66.7c-5.6 5.7-13.3 9.2-21.9 9.2-17 0-30.8-13.8-30.8-30.8s13.8-30.8 30.8-30.8c8.6 0 16.3 3.5 21.9 9.2l10.3-10.1c-8.2-8.2-19.6-13.4-32.2-13.4-25 0-45.2 20.2-45.2 45.2 0 24.9 20.2 45.2 45.2 45.2 12.6 0 24-5.2 32.2-13.5zm57.2-66.7-39.1 22.6 7.2 12.5 17.5-10.2v65.4h14.4zm241.2 8.4c7.1 0 12.9 5.8 12.9 12.9s-5.8 12.9-12.9 12.9-12.9-5.8-12.9-12.9 5.7-12.9 12.9-12.9m0-8.4c-11.8 0-21.4 9.6-21.4 21.4s9.6 21.4 21.4 21.4 21.4-9.6 21.4-21.4-9.7-21.4-21.4-21.4zm-21.4 51.1h42.7v8.4h-42.7z"/>
</svg>
