<?xml version="1.0" standalone="no"?>
<!DOCTYPE svg PUBLIC "-//W3C//DTD SVG 1.1//EN" "http://www.w3.org/Graphics/SVG/1.1/DTD/svg11.dtd" >
<svg xmlns="http://www.w3.org/2000/svg" xmlns:xlink="http://www.w3.org/1999/xlink" version="1.1">
<metadata>
Created by FontForge 20170731 at Mon Feb 19 13:10:04 2007
 By Aleksey,,,
Copyright (c) 2007 by Kris Sowersby. All rights reserved.
</metadata>
<defs>
<font id="Feijoa-MediumItalic" horiz-adv-x="420" >
  <font-face 
    font-family="Feijoa Medium Italic"
    font-weight="550"
    font-style="italic"
    font-stretch="normal"
    units-per-em="1000"
    panose-1="2 0 5 5 0 0 0 2 0 3"
    ascent="800"
    descent="-200"
    x-height="521"
    cap-height="745"
    bbox="-140 -348 2318 1009"
    underline-thickness="50"
    underline-position="-200"
    unicode-range="U+0020-FB06"
  />
<missing-glyph horiz-adv-x="846" 
d="M273 463v225h-24v-165l-152 165h-35l30 -34v-189h24v166l155 -169zM352 577q0 38 25.5 65.5t62.5 27.5t63.5 -27.5t26.5 -65.5t-26.5 -66t-63.5 -28t-62.5 28t-25.5 66zM327 577q0 -48 32.5 -81.5t80.5 -33.5q47 0 80 33.5t33 81.5q0 47 -33 81t-80 34q-48 0 -80.5 -33.5
t-32.5 -81.5zM424 575q0 -17 18 -17q7 0 12 5t5 12t-5 12t-12 5q-18 0 -18 -17zM647 666v-201h24v201h77l-2 22h-173l-2 -22h76zM98 109h56q56 0 91.5 29t35.5 83q0 59 -37.5 85t-92.5 26q-34 0 -53 -4v-219zM148 130h-27v179l10 1q56 5 90 -17.5t34 -71.5
q0 -44 -28.5 -67.5t-78.5 -23.5zM523 125l1 25q-25 -22 -73 -22q-35 0 -61 24.5t-30 59.5h145l3 22h-148q5 34 29.5 57.5t57.5 23.5q41 0 77 -26v27q-31 21 -75 21q-48 0 -80.5 -33.5t-32.5 -81.5t32.5 -81.5t80.5 -33.5q50 0 74 18zM629 109v106h91v22h-91v72h109l-2 22
h-131v-222h24zM732 129q0 -9 6 -15t15 -6t15 6t6 15t-6 15t-15 6t-15 -6t-6 -15zM-3 0v779h846v-779h-846z" />
    <glyph glyph-name="c_y" unicode="cy" horiz-adv-x="854" 
d="M241 66q37 0 71.5 17t56 34.5t26.5 17.5q12 0 12 -14q0 -37 -62.5 -82.5t-140.5 -45.5q-72 0 -115.5 59.5t-43.5 147.5q0 154 74.5 237.5t176.5 83.5q56 0 88.5 -22t32.5 -59q0 -68 -90 -68q0 22 -1.5 36.5t-6.5 32t-18 26.5t-33 9q-48 0 -92 -67t-44 -182
q0 -86 32 -123.5t77 -37.5zM561 -41q-2 13 -24 140t-43 247t-21 123t0.5 5l1 4t2.5 4l3.5 3.5t5.5 3.5t6.5 4t9 5t10.5 6q34 20 41 20q13 0 17 -31l56 -452q39 76 60.5 123t41 105t19.5 97q0 79 -70 79q0 36 21 56t58 20q35 0 56.5 -21.5t21.5 -64.5q0 -80 -79.5 -244.5
t-188.5 -302t-178 -137.5q-85 0 -85 70q0 26 18 45t41 19q15 0 28 -5q0 -39 5 -51t21 -12q51 0 145 142z" />
    <glyph glyph-name="f_dotlessi" unicode="f&#x131;" horiz-adv-x="585" 
d="M379 464h-159l-50 -413q-8 -64 -20 -110.5t-35.5 -92.5t-65.5 -70.5t-100 -24.5q-39 0 -64 16.5t-25 49.5q0 31 16.5 49t45.5 18q14 0 30 -6q0 -77 36 -77q21 0 35.5 10.5t22.5 31.5t12 38t7 43l67 537h-58q-21 0 -21 21q0 26 23 26h63l13 106q25 200 198 200
q56 0 90 -21.5t34 -59.5q0 -64 -89 -64q0 22 -0.5 32.5t-3 25.5t-8 22.5t-16.5 13t-27 5.5q-37 0 -58.5 -27.5t-30.5 -98.5l-17 -134h152q23 0 55.5 5.5t42.5 5.5q24 0 24 -21q0 -9 -24 -200.5t-24 -204.5q0 -10 4.5 -12.5t20.5 -2.5h64q16 0 16 -13q0 -15 -72.5 -44.5
t-107.5 -29.5q-24 0 -24 21q0 16 26.5 221t26.5 220q0 6 -4.5 7.5t-20.5 1.5z" />
    <glyph glyph-name="f_f_dotlessi" unicode="ff&#x131;" horiz-adv-x="873" 
d="M354 805q82 0 152 -42q39 53 122 53q60 0 94 -21.5t34 -59.5q0 -64 -89 -64q0 33 -3 51.5t-16.5 33t-39.5 14.5q-63 0 -79 -126l-17 -134h152q23 0 55.5 5.5t42.5 5.5q24 0 24 -21q0 -9 -24 -200.5t-24 -204.5q0 -10 4.5 -12.5t20.5 -2.5h64q16 0 16 -13
q0 -15 -72.5 -44.5t-107.5 -29.5q-24 0 -24 21q0 16 26.5 221t26.5 220q0 6 -4.5 7.5t-20.5 1.5h-159l-48 -404q-7 -56 -14.5 -95.5t-23 -80.5t-37 -65.5t-56 -40.5t-80.5 -16q-39 0 -64 16.5t-25 49.5q0 31 16.5 49t45.5 18q14 0 30 -6q0 -77 36 -77q17 0 29.5 10.5
t20 31.5t11 38t6.5 43l65 529h-200l-50 -413q-8 -64 -20 -110.5t-35.5 -92.5t-65.5 -70.5t-100 -24.5q-39 0 -64 16.5t-25 49.5q0 31 16.5 49t45.5 18q14 0 30 -6q0 -77 36 -77q21 0 35.5 10.5t22.5 31.5t12 38t7 43l67 537h-58q-21 0 -21 21q0 26 23 26h63l13 103
q7 55 29.5 94.5t53.5 59.5t60.5 29t58.5 9zM351 759q-39 0 -70.5 -29t-38.5 -81l-18 -139h203l11 94q7 56 20 86q-38 69 -107 69z" />
    <glyph glyph-name="f_f_idieresis" unicode="ff&#xef;" horiz-adv-x="935" 
d="M362 805q82 0 145 -39q53 50 128 50q72 0 111 -42t39 -100q0 -33 -18 -56t-49 -23q-28 0 -45 17t-17 47q40 11 40 54q0 57 -62 57q-91 0 -107 -136l-15 -124h172q23 0 55.5 5.5t42.5 5.5q24 0 24 -21q0 -9 -24 -200.5t-24 -204.5q0 -10 4.5 -12.5t20.5 -2.5h64
q16 0 16 -13q0 -15 -72.5 -44.5t-107.5 -29.5q-24 0 -24 21q0 16 26.5 221t26.5 220q0 6 -4.5 7.5t-20.5 1.5h-179l-48 -404q-7 -56 -14.5 -95.5t-23 -80.5t-37 -65.5t-56 -40.5t-80.5 -16q-39 0 -64 16.5t-25 49.5q0 31 16.5 49t45.5 18q14 0 30 -6q0 -77 36 -77
q17 0 29.5 10.5t20 31.5t11 38t6.5 43l65 529h-200l-50 -413q-8 -64 -20 -110.5t-35.5 -92.5t-65.5 -70.5t-100 -24.5q-39 0 -64 16.5t-25 49.5q0 31 16.5 49t45.5 18q14 0 30 -6q0 -77 36 -77q21 0 35.5 10.5t22.5 31.5t12 38t7 43l67 537h-58q-21 0 -21 21q0 26 23 26h63
l13 103q7 55 29.5 94.5t54.5 59.5t63 29t63 9zM439 611q4 41 17 74q-28 74 -105 74q-39 0 -70.5 -29t-38.5 -81l-18 -139h203zM814 662q0 28 20 48t48 20t48 -20t20 -48t-20 -48t-48 -20t-48 20t-20 48z" />
    <glyph glyph-name="f_idieresis" unicode="f&#xef;" horiz-adv-x="647" 
d="M239 634l-15 -124h172q23 0 55.5 5.5t42.5 5.5q24 0 24 -21q0 -9 -24 -200.5t-24 -204.5q0 -10 4.5 -12.5t20.5 -2.5h64q16 0 16 -13q0 -15 -72.5 -44.5t-107.5 -29.5q-24 0 -24 21q0 16 26.5 221t26.5 220q0 6 -4.5 7.5t-20.5 1.5h-179l-50 -413q-8 -64 -20 -110.5
t-35.5 -92.5t-65.5 -70.5t-100 -24.5q-39 0 -64 16.5t-25 49.5q0 31 16.5 49t45.5 18q14 0 30 -6q0 -77 36 -77q21 0 35.5 10.5t22.5 31.5t12 38t7 43l67 537h-58q-21 0 -21 21q0 26 23 26h63l12 101q13 110 71 157.5t125 47.5q72 0 111 -42t39 -100q0 -33 -18 -56t-49 -23
q-28 0 -45 17t-17 47q40 11 40 54q0 57 -62 57q-91 0 -107 -136zM526 662q0 28 20 48t48 20t48 -20t20 -48t-20 -48t-48 -20t-48 20t-20 48z" />
    <glyph glyph-name="f_t_t" unicode="ftt" horiz-adv-x="966" 
d="M409 464h-189l-50 -413q-8 -64 -20 -110.5t-35.5 -92.5t-65.5 -70.5t-100 -24.5q-39 0 -64 16.5t-25 49.5q0 31 16.5 49t45.5 18q14 0 30 -6q0 -77 36 -77q21 0 35.5 10.5t22.5 31.5t12 38t7 43l67 537h-58q-21 0 -21 21q0 26 23 26h63l15 123q23 183 190 183
q60 0 94.5 -21.5t34.5 -59.5q0 -64 -89 -64q0 16 -0.5 25t-3.5 25t-9 25t-18 16.5t-29 7.5q-66 0 -80 -101l-20 -159h191l8 66q2 22 18 34l49 35q9 6 16 6q11 0 11 -11q0 -4 -8 -65t-8 -65h242l8 66q2 22 18 34l49 35q9 6 16 6q11 0 11 -11q0 -4 -8 -65t-8 -65h119
q21 0 21 -20q0 -26 -21 -26h-125q0 -5 -11.5 -94.5t-21.5 -175.5t-10 -95q0 -21 23 -21q30 0 76 22.5t53 22.5q8 0 8 -9q0 -20 -36.5 -49t-90.5 -51t-97 -22q-15 0 -24 9t-9 23q0 9 13 113.5t27 215.5l14 111h-242q0 -5 -11.5 -94.5t-21.5 -175.5t-10 -95q0 -21 23 -21
q30 0 76 22.5t53 22.5q8 0 8 -9q0 -20 -36.5 -49t-90.5 -51t-97 -22q-15 0 -24 9t-9 23q0 9 13 114t27 213.5t14 112.5z" />
    <glyph glyph-name="r_y" unicode="ry" horiz-adv-x="872" 
d="M207 336h3q58 105 92.5 144.5t77.5 39.5q29 0 45 -19t16 -45q0 -24 -13.5 -44.5t-39.5 -29.5q-4 16 -15 25t-21 9q-23 0 -57 -37l-88 -102l-31 -250q-1 -16 -15 -20q-47 -15 -67 -15q-10 0 -10 11q0 12 26.5 208.5t26.5 199.5q0 9 -5 11t-20 2h-58q-16 0 -16 13
q0 16 69.5 50t103.5 34q24 0 24 -20q0 -14 -28 -165zM579 -41q-2 13 -24 140t-43 247t-21 123t0.5 5l1 4t2.5 4l3.5 3.5t5.5 3.5t6.5 4t9 5t10.5 6q34 20 41 20q13 0 17 -31l56 -452q39 76 60.5 123t41 105t19.5 97q0 79 -70 79q0 36 21 56t58 20q35 0 56.5 -21.5
t21.5 -64.5q0 -80 -79.5 -244.5t-188.5 -302t-178 -137.5q-85 0 -85 70q0 26 18 45t41 19q15 0 28 -5q0 -39 5 -51t21 -12q51 0 145 142z" />
    <glyph glyph-name="t_t" unicode="tt" horiz-adv-x="686" 
d="M457 464h-242q0 -5 -11.5 -94.5t-21.5 -175.5t-10 -95q0 -21 23 -21q30 0 76 22.5t53 22.5q8 0 8 -9q0 -20 -36.5 -49t-90.5 -51t-97 -22q-15 0 -24 9t-9 23q0 9 13 113t27 215l14 111h-69q-21 0 -21 21q0 26 23 26h73l8 66q2 22 18 34l49 35q9 6 16 6q11 0 11 -11
q0 -4 -8 -65t-8 -65h242l8 66q2 22 18 34l49 35q9 6 16 6q11 0 11 -11q0 -4 -8 -65t-8 -65h119q21 0 21 -20q0 -26 -21 -26h-125q0 -5 -11.5 -94.5t-21.5 -175.5t-10 -95q0 -21 23 -21q30 0 76 22.5t53 22.5q8 0 8 -9q0 -20 -36.5 -49t-90.5 -51t-97 -22q-15 0 -24 9t-9 23
q0 9 13 113.5t27 215.5z" />
    <glyph glyph-name="t_t_y" unicode="tty" horiz-adv-x="1118" 
d="M713 464h-170q0 -5 -11.5 -94.5t-21.5 -175.5t-10 -95q0 -21 23 -21q30 0 76 22.5t53 22.5q8 0 8 -9q0 -20 -36.5 -49t-90.5 -51t-97 -22q-15 0 -24 9t-9 23q0 9 13 113.5t27 215.5l14 111h-242q0 -5 -11.5 -94.5t-21.5 -175.5t-10 -95q0 -21 23 -21q30 0 76 22.5
t53 22.5q8 0 8 -9q0 -20 -36.5 -49t-90.5 -51t-97 -22q-15 0 -24 9t-9 23q0 9 13 113t27 215l14 111h-69q-21 0 -21 21q0 26 23 26h73l8 66q2 22 18 34l49 35q9 6 16 6q11 0 11 -11q0 -4 -8 -65t-8 -65h242l8 66q2 22 18 34l49 35q9 6 16 6q11 0 11 -11q0 -4 -8 -65t-8 -65
h162q30 0 61 5.5t39 5.5q12 0 16.5 -6t6.5 -22l56 -452q39 76 60.5 123t41 105t19.5 97q0 79 -70 79q0 36 21 56t58 20q35 0 56.5 -21.5t21.5 -64.5q0 -80 -79.5 -244.5t-188.5 -302t-178 -137.5q-85 0 -85 70q0 26 18 45t41 19q15 0 28 -5q0 -39 5 -51t21 -12q51 0 145 142
l-87 490q-2 15 -25 15z" />
    <glyph glyph-name="f_b" unicode="fb" horiz-adv-x="867" 
d="M502 324l-31 -263q32 -26 68 -26q74 0 135.5 91.5t61.5 210.5q0 51 -20 79.5t-49 28.5q-35 0 -71.5 -28.5t-93.5 -92.5zM455 668q0 50 -29.5 76t-74.5 26q-40 0 -70.5 -29t-38.5 -91l-18 -140h102q23 0 23 -20q0 -26 -21 -26h-108l-50 -413q-8 -64 -20 -110.5
t-35.5 -92.5t-65.5 -70.5t-100 -24.5q-39 0 -64 16.5t-25 49.5q0 31 16.5 49t45.5 18q14 0 30 -6q0 -77 36 -77q21 0 35.5 10.5t22.5 31.5t12 38t7 43l67 537h-58q-21 0 -21 21q0 26 23 26h63l12 108q12 105 68 151.5t125 46.5q76 0 114 -32q9 4 26.5 14t27.5 14t19 4
q25 0 25 -31q0 -27 -47 -397l3 -1q98 134 184 134q61 0 98.5 -43.5t37.5 -123.5q0 -154 -90 -258t-222 -104q-55 0 -98.5 9.5t-43.5 24.5q0 13 38.5 321t38.5 321z" />
    <glyph glyph-name="f_f_b" unicode="ffb" horiz-adv-x="1156" 
d="M845 785q0 -27 -47 -397l3 -1q98 134 184 134q61 0 98.5 -43.5t37.5 -123.5q0 -154 -90 -258t-222 -104q-55 0 -98.5 9.5t-43.5 24.5q0 13 38.5 321t38.5 321q0 50 -29.5 76t-74.5 26q-40 0 -71.5 -29.5t-39.5 -90.5l-17 -140h102q23 0 23 -20q0 -26 -21 -26h-108
l-48 -404q-7 -56 -14.5 -95.5t-23 -80.5t-37 -65.5t-56 -40.5t-80.5 -16q-39 0 -64 16.5t-25 49.5q0 31 16.5 49t45.5 18q14 0 30 -6q0 -77 36 -77q17 0 29.5 10.5t20 31.5t11 38t6.5 43l65 529h-200l-50 -413q-8 -64 -20 -110.5t-35.5 -92.5t-65.5 -70.5t-100 -24.5
q-39 0 -64 16.5t-25 49.5q0 31 16.5 49t45.5 18q14 0 30 -6q0 -77 36 -77q21 0 35.5 10.5t22.5 31.5t12 38t7 43l67 537h-58q-21 0 -21 21q0 26 23 26h63l13 103q7 55 29.5 94.5t54.5 59.5t63 29t63 9q35 0 75.5 -11.5t66.5 -28.5q52 51 129 51q76 0 114 -32q9 4 26.5 14
t27.5 14t19 4q25 0 25 -31zM440 618q4 35 18 74q-38 67 -107 67q-39 0 -70.5 -29t-38.5 -81l-18 -139h203zM791 324l-31 -263q32 -26 68 -26q74 0 135.5 91.5t61.5 210.5q0 51 -20 79.5t-49 28.5q-35 0 -71.5 -28.5t-93.5 -92.5z" />
    <glyph glyph-name="f_f_h" unicode="ffh" horiz-adv-x="1160" 
d="M845 785q0 -13 -11 -103t-24 -189t-14 -106h3q61 65 109.5 99.5t94.5 34.5q35 0 57.5 -20.5t22.5 -58.5q0 -21 -28 -183t-28 -169q0 -10 26 -10h64q19 0 19 -11q0 -17 -72 -47t-108 -30q-24 0 -24 18q0 9 28.5 195t28.5 200q0 33 -32 33q-31 0 -66.5 -26t-99.5 -88
l-36 -297q-1 -16 -15 -20q-47 -15 -67 -15q-10 0 -10 11q0 16 40.5 334.5t40.5 330.5q0 50 -29.5 76t-74.5 26q-40 0 -71.5 -29.5t-39.5 -90.5l-17 -140h102q23 0 23 -20q0 -26 -21 -26h-108l-48 -404q-7 -56 -14.5 -95.5t-23 -80.5t-37 -65.5t-56 -40.5t-80.5 -16
q-39 0 -64 16.5t-25 49.5q0 31 16.5 49t45.5 18q14 0 30 -6q0 -77 36 -77q17 0 29.5 10.5t20 31.5t11 38t6.5 43l65 529h-200l-50 -413q-8 -64 -20 -110.5t-35.5 -92.5t-65.5 -70.5t-100 -24.5q-39 0 -64 16.5t-25 49.5q0 31 16.5 49t45.5 18q14 0 30 -6q0 -77 36 -77
q21 0 35.5 10.5t22.5 31.5t12 38t7 43l67 537h-58q-21 0 -21 21q0 26 23 26h63l13 103q7 55 29.5 94.5t54.5 59.5t63 29t63 9q35 0 75.5 -11.5t66.5 -28.5q52 51 129 51q76 0 114 -32q9 4 26.5 14t27.5 14t19 4q25 0 25 -31zM440 618q4 35 18 74q-38 67 -107 67
q-39 0 -70.5 -29t-38.5 -81l-18 -139h203z" />
    <glyph glyph-name="f_f_j" unicode="ffj" horiz-adv-x="809" 
d="M351 759q-39 0 -70.5 -29t-38.5 -81l-18 -139h203l13 106q5 43 18 74q-38 69 -107 69zM508 464l-48 -404q-7 -56 -14.5 -95.5t-23 -80.5t-37 -65.5t-56 -40.5t-80.5 -16q-39 0 -64 16.5t-25 49.5q0 31 16.5 49t45.5 18q14 0 30 -6q0 -77 36 -77q17 0 29.5 10.5t20 31.5
t11 38t6.5 43l65 529h-200l-50 -413q-8 -64 -20 -110.5t-35.5 -92.5t-65.5 -70.5t-100 -24.5q-39 0 -64 16.5t-25 49.5q0 31 16.5 49t45.5 18q14 0 30 -6q0 -77 36 -77q21 0 35.5 10.5t22.5 31.5t12 38t7 43l67 537h-58q-21 0 -21 21q0 26 23 26h63l13 103q7 55 29.5 94.5
t53.5 59.5t60.5 29t58.5 9q82 0 152 -42q57 53 152 53q61 0 99.5 -21.5t38.5 -59.5q0 -64 -89 -64q0 99 -69 99q-92 0 -109 -126l-17 -134h165q23 0 55.5 5.5t42.5 5.5q24 0 24 -21q0 -8 -12.5 -110t-27 -214t-14.5 -114q-5 -50 -12.5 -88.5t-23.5 -79.5t-38 -67.5
t-58.5 -44t-83.5 -17.5q-39 0 -64 16.5t-25 49.5q0 26 16 43.5t43 17.5q17 0 34 -7q0 -37 6.5 -53.5t28.5 -16.5q36 0 51 28t25 94q61 488 61 518q0 6 -4.5 7.5t-20.5 1.5h-172z" />
    <glyph glyph-name="f_f_k" unicode="ffk" horiz-adv-x="1122" 
d="M440 618q4 35 18 74q-38 67 -107 67q-39 0 -70.5 -29t-38.5 -81l-18 -139h203zM1004 396q0 46 -43 46q-35 0 -86.5 -43.5t-92.5 -117.5l-6 -41q20 1 56 13.5t75.5 31.5t68 49.5t28.5 61.5zM744 668q0 50 -29.5 76t-74.5 26q-40 0 -71.5 -29.5t-39.5 -90.5l-17 -140h102
q23 0 23 -20q0 -26 -21 -26h-108l-48 -404q-7 -56 -14.5 -95.5t-23 -80.5t-37 -65.5t-56 -40.5t-80.5 -16q-39 0 -64 16.5t-25 49.5q0 31 16.5 49t45.5 18q14 0 30 -6q0 -77 36 -77q17 0 29.5 10.5t20 31.5t11 38t6.5 43l65 529h-200l-50 -413q-8 -64 -20 -110.5
t-35.5 -92.5t-65.5 -70.5t-100 -24.5q-39 0 -64 16.5t-25 49.5q0 31 16.5 49t45.5 18q14 0 30 -6q0 -77 36 -77q21 0 35.5 10.5t22.5 31.5t12 38t7 43l67 537h-58q-21 0 -21 21q0 26 23 26h63l13 103q7 55 29.5 94.5t54.5 59.5t63 29t63 9q35 0 75.5 -11.5t66.5 -28.5
q52 51 129 51q76 0 114 -32q9 4 26.5 14t27.5 14t19 4q25 0 25 -31q0 -13 -12.5 -111.5t-26.5 -205t-15 -114.5h2q37 83 92.5 125t114.5 42q41 0 67 -25.5t26 -63.5q0 -69 -57.5 -120.5t-144.5 -76.5q50 -94 74.5 -125t40.5 -31q5 0 46.5 8t48.5 8q11 0 11 -11
q0 -18 -56 -55t-83 -37q-65 0 -155 217l-46 -13l-18 -169q-1 -16 -15 -20q-47 -15 -67 -15q-10 0 -10 11q0 16 41 334.5t41 330.5z" />
    <glyph glyph-name="f_h" unicode="fh" horiz-adv-x="871" 
d="M455 668q0 50 -29.5 76t-74.5 26q-40 0 -70.5 -29t-38.5 -91l-18 -140h102q23 0 23 -20q0 -26 -21 -26h-108l-50 -413q-8 -64 -20 -110.5t-35.5 -92.5t-65.5 -70.5t-100 -24.5q-39 0 -64 16.5t-25 49.5q0 31 16.5 49t45.5 18q14 0 30 -6q0 -77 36 -77q21 0 35.5 10.5
t22.5 31.5t12 38t7 43l67 537h-58q-21 0 -21 21q0 26 23 26h63l12 108q12 105 68 151.5t125 46.5q76 0 114 -32q9 4 26.5 14t27.5 14t19 4q26 0 26 -31q0 -13 -11.5 -103.5t-24.5 -188.5t-14 -106h3q61 65 109.5 99.5t94.5 34.5q35 0 57.5 -20.5t22.5 -58.5q0 -21 -28 -183
t-28 -169q0 -10 26 -10h64q19 0 19 -11q0 -17 -72 -47t-108 -30q-24 0 -24 18q0 9 28.5 195t28.5 200q0 33 -32 33q-31 0 -66.5 -26t-99.5 -88l-36 -297q-1 -16 -15 -20q-47 -15 -67 -15q-10 0 -10 11q0 16 40.5 334.5t40.5 330.5z" />
    <glyph glyph-name="f_j" unicode="fj" horiz-adv-x="521" 
d="M417 455q0 6 -4.5 7.5t-20.5 1.5h-172l-50 -413q-8 -64 -20 -110.5t-35.5 -92.5t-65.5 -70.5t-100 -24.5q-39 0 -64 16.5t-25 49.5q0 31 16.5 49t45.5 18q14 0 30 -6q0 -77 36 -77q21 0 35.5 10.5t22.5 31.5t12 38t7 43l67 537h-58q-21 0 -21 21q0 26 23 26h63l15 123
q23 183 190 183q60 0 94.5 -21.5t34.5 -59.5q0 -64 -89 -64q0 16 -0.5 25t-3.5 25t-9 25t-18 16.5t-29 7.5q-66 0 -80 -101l-20 -159h165q23 0 55.5 5.5t42.5 5.5q24 0 24 -21q0 -8 -12.5 -110t-27 -214t-14.5 -114q-5 -50 -12.5 -88.5t-23.5 -79.5t-38 -67.5t-58.5 -44
t-83.5 -17.5q-39 0 -64 16.5t-25 49.5q0 26 16 43.5t43 17.5q17 0 34 -7q0 -37 6.5 -53.5t28.5 -16.5q36 0 51 28t25 94q61 488 61 518z" />
    <glyph glyph-name="f_k" unicode="fk" horiz-adv-x="833" 
d="M715 396q0 46 -43 46q-35 0 -86.5 -43.5t-92.5 -117.5l-6 -41q20 1 56 13.5t75.5 31.5t68 49.5t28.5 61.5zM455 668q0 50 -29.5 76t-74.5 26q-40 0 -70.5 -29t-38.5 -91l-18 -140h102q23 0 23 -20q0 -26 -21 -26h-108l-50 -413q-8 -64 -20 -110.5t-35.5 -92.5
t-65.5 -70.5t-100 -24.5q-39 0 -64 16.5t-25 49.5q0 31 16.5 49t45.5 18q14 0 30 -6q0 -77 36 -77q21 0 35.5 10.5t22.5 31.5t12 38t7 43l67 537h-58q-21 0 -21 21q0 26 23 26h63l12 108q12 105 68 151.5t125 46.5q76 0 114 -32q9 4 26.5 14t27.5 14t19 4q25 0 25 -31
q0 -13 -12.5 -111.5t-26.5 -205t-15 -114.5h2q37 83 92.5 125t114.5 42q41 0 67 -25.5t26 -63.5q0 -69 -57.5 -120.5t-144.5 -76.5q50 -94 74.5 -125t40.5 -31q5 0 46.5 8t48.5 8q11 0 11 -11q0 -18 -56 -55t-83 -37q-65 0 -155 217l-46 -13l-18 -169q-1 -16 -15 -20
q-47 -15 -67 -15q-10 0 -10 11q0 16 41 334.5t41 330.5z" />
    <glyph glyph-name="f_t" unicode="ft" horiz-adv-x="638" 
d="M224 510h191l6 55q2 22 18 34l49 35q9 6 16 6q11 0 11 -11q0 -4 -7 -59t-7 -59h119q21 0 21 -20q0 -26 -21 -26h-125q0 -5 -11.5 -94.5t-21.5 -175.5t-10 -95q0 -21 23 -21q30 0 76 22.5t53 22.5q8 0 8 -9q0 -20 -36.5 -49t-90.5 -51t-97 -22q-15 0 -24 9t-9 23
q0 9 13 113t27 215l14 111h-189l-50 -413q-8 -64 -20 -110.5t-35.5 -92.5t-65.5 -70.5t-100 -24.5q-39 0 -64 16.5t-25 49.5q0 31 16.5 49t45.5 18q14 0 30 -6q0 -77 36 -77q21 0 35.5 10.5t22.5 31.5t12 38t7 43l67 537h-58q-21 0 -21 21q0 26 23 26h63l15 123
q23 183 190 183q60 0 94.5 -21.5t34.5 -59.5q0 -64 -89 -64q0 16 -0.5 25t-3.5 25t-9 25t-18 16.5t-29 7.5q-66 0 -80 -101z" />
    <glyph glyph-name="f_f_t" unicode="fft" horiz-adv-x="926" 
d="M443 633q3 25 13 59q-19 36 -42.5 51.5t-62.5 15.5t-70.5 -29t-38.5 -81l-18 -139h203zM508 464l-48 -404q-7 -56 -14.5 -95.5t-23 -80.5t-37 -65.5t-56 -40.5t-80.5 -16q-39 0 -64 16.5t-25 49.5q0 31 16.5 49t45.5 18q14 0 30 -6q0 -77 36 -77q17 0 29.5 10.5t20 31.5
t11 38t6.5 43l65 529h-200l-50 -413q-8 -64 -20 -110.5t-35.5 -92.5t-65.5 -70.5t-100 -24.5q-39 0 -64 16.5t-25 49.5q0 31 16.5 49t45.5 18q14 0 30 -6q0 -77 36 -77q21 0 35.5 10.5t22.5 31.5t12 38t7 43l67 537h-58q-21 0 -21 21q0 26 23 26h63l13 103q7 55 29.5 94.5
t54.5 59.5t63 29t63 9q84 0 138 -35q43 46 133 46q60 0 94.5 -21.5t34.5 -59.5q0 -64 -89 -64q0 16 -0.5 25t-3.5 25t-9 25t-18 16.5t-29 7.5q-66 0 -80 -101l-21 -159h191l6 55q2 22 18 34l49 35q9 6 16 6q11 0 11 -11q0 -4 -7 -59t-7 -59h119q21 0 21 -20q0 -26 -21 -26
h-125q0 -5 -11.5 -94.5t-21.5 -175.5t-10 -95q0 -21 23 -21q30 0 76 22.5t53 22.5q8 0 8 -9q0 -20 -36.5 -49t-90.5 -51t-97 -22q-15 0 -24 9t-9 23q0 9 13 113t27 215l14 111h-189z" />
    <glyph glyph-name="f_y" unicode="fy" horiz-adv-x="753" 
d="M460 -41l-87 490q-2 15 -25 15h-128l-50 -413q-8 -64 -20 -110.5t-35.5 -92.5t-65.5 -70.5t-100 -24.5q-39 0 -64 16.5t-25 49.5q0 31 16.5 49t45.5 18q14 0 30 -6q0 -77 36 -77q21 0 35.5 10.5t22.5 31.5t12 38t7 43l67 537h-58q-21 0 -21 21q0 26 23 26h63l15 123
q23 183 190 183q60 0 94.5 -21.5t34.5 -59.5q0 -64 -89 -64q0 16 -0.5 25t-3.5 25t-9 25t-18 16.5t-29 7.5q-68 0 -80 -101l-20 -159h122q30 0 61 5.5t39 5.5q12 0 16.5 -6t6.5 -22l56 -452q39 76 60.5 123t41 105t19.5 97q0 79 -70 79q0 36 21 56t58 20q35 0 56.5 -21.5
t21.5 -64.5q0 -80 -79.5 -244.5t-188.5 -302t-178 -137.5q-85 0 -85 70q0 26 18 45t41 19q15 0 28 -5q0 -39 5 -51t21 -12q51 0 145 142z" />
    <glyph glyph-name="t_y" unicode="ty" horiz-adv-x="790" 
d="M385 464h-170q0 -5 -11.5 -94.5t-21.5 -175.5t-10 -95q0 -21 23 -21q30 0 76 22.5t53 22.5q8 0 8 -9q0 -20 -36.5 -49t-90.5 -51t-97 -22q-15 0 -24 9t-9 23q0 9 13 113t27 215l14 111h-69q-21 0 -21 21q0 26 23 26h73l8 66q2 22 18 34l49 35q9 6 16 6q11 0 11 -11
q0 -4 -8 -65t-8 -65h162q30 0 61 5.5t39 5.5q12 0 16.5 -6t6.5 -22l56 -452q39 76 60.5 123t41 105t19.5 97q0 79 -70 79q0 36 21 56t58 20q35 0 56.5 -21.5t21.5 -64.5q0 -80 -79.5 -244.5t-188.5 -302t-178 -137.5q-85 0 -85 70q0 26 18 45t41 19q15 0 28 -5q0 -39 5 -51
t21 -12q51 0 145 142l-87 490q-2 15 -25 15z" />
    <glyph glyph-name="T_T" unicode="TT" horiz-adv-x="1040" 
d="M45 745h1017q15 0 21 -4t6 -16q0 -7 -8.5 -85.5t-10.5 -89.5q-3 -16 -17 -16q-15 0 -17 18q-1 65 -36.5 103t-84.5 38h-91q-69 -598 -69 -608q0 -25 25 -34t86 -15q14 -2 14 -18q0 -18 -14 -18h-332q-15 0 -15 14q0 20 17 22q73 4 95.5 27.5t32.5 107.5l61 522h-361
q-69 -598 -69 -608q0 -25 25 -34t86 -15q14 -2 14 -18q0 -18 -14 -18h-332q-15 0 -15 14q0 20 17 22q73 4 95.5 27.5t32.5 107.5l61 522h-103q-46 0 -80.5 -39.5t-46.5 -98.5q-5 -18 -20 -18q-14 0 -14 14q0 4 4.5 45t9.5 84t5 47q2 18 25 18z" />
    <glyph glyph-name="T_h" unicode="Th" horiz-adv-x="1074" 
d="M614 693h-250q-69 -598 -69 -608q0 -25 25 -34t86 -15q14 -2 14 -18q0 -18 -14 -18h-332q-15 0 -15 14q0 20 17 22q73 4 95.5 27.5t32.5 107.5l61 522h-103q-46 0 -80.5 -39.5t-46.5 -98.5q-5 -18 -20 -18q-14 0 -14 14q0 4 4.5 45t9.5 84t5 47q2 18 25 18h585
q31 0 49 18l38 40q13 13 26 13q17 0 17 -25q0 -16 -11.5 -107t-24.5 -191t-14 -106h3q61 65 109.5 99.5t94.5 34.5q35 0 57.5 -20.5t22.5 -58.5q0 -21 -28 -183t-28 -169q0 -10 26 -10h64q19 0 19 -11q0 -17 -72 -47t-108 -30q-24 0 -24 18q0 9 28.5 195t28.5 200
q0 33 -32 33q-31 0 -66.5 -26t-99.5 -88l-36 -297q-1 -16 -15 -20q-47 -15 -67 -15q-10 0 -10 11q0 16 40 326t40 322q0 21 -9 31.5t-34 10.5z" />
    <glyph glyph-name="f_f_y" unicode="ffy" horiz-adv-x="1041" 
d="M443 633q3 25 13 59q-19 36 -42.5 51.5t-62.5 15.5t-70.5 -29t-38.5 -81l-18 -139h203zM508 464l-48 -404q-7 -56 -14.5 -95.5t-23 -80.5t-37 -65.5t-56 -40.5t-80.5 -16q-39 0 -64 16.5t-25 49.5q0 31 16.5 49t45.5 18q14 0 30 -6q0 -77 36 -77q17 0 29.5 10.5t20 31.5
t11 38t6.5 43l65 529h-200l-50 -413q-8 -64 -20 -110.5t-35.5 -92.5t-65.5 -70.5t-100 -24.5q-39 0 -64 16.5t-25 49.5q0 31 16.5 49t45.5 18q14 0 30 -6q0 -77 36 -77q21 0 35.5 10.5t22.5 31.5t12 38t7 43l67 537h-58q-21 0 -21 21q0 26 23 26h63l13 103q7 55 29.5 94.5
t54.5 59.5t63 29t63 9q84 0 138 -35q43 46 133 46q60 0 94.5 -21.5t34.5 -59.5q0 -64 -89 -64q0 16 -0.5 25t-3.5 25t-9 25t-18 16.5t-29 7.5q-66 0 -80 -101l-21 -159h122q30 0 61 5.5t39 5.5q12 0 16.5 -6t6.5 -22l56 -452q39 76 60.5 123t41 105t19.5 97q0 79 -70 79
q0 36 21 56t58 20q35 0 56.5 -21.5t21.5 -64.5q0 -80 -79.5 -244.5t-188.5 -302t-178 -137.5q-85 0 -85 70q0 26 18 45t41 19q15 0 28 -5q0 -39 5 -51t21 -12q51 0 145 142l-87 490q-2 15 -25 15h-128z" />
    <glyph glyph-name="ff" unicode="ff" horiz-adv-x="603" 
d="M420 464h-200l-50 -413q-8 -64 -20 -110.5t-35.5 -92.5t-65.5 -70.5t-100 -24.5q-39 0 -64 16.5t-25 49.5q0 31 16.5 49t45.5 18q14 0 30 -6q0 -77 36 -77q21 0 35.5 10.5t22.5 31.5t12 38t7 43l67 537h-58q-21 0 -21 21q0 26 23 26h63l13 103q7 55 29.5 94.5t54.5 59.5
t63 29t63 9q84 0 138 -35q43 46 133 46q60 0 94.5 -21.5t34.5 -59.5q0 -64 -89 -64q0 16 -0.5 25t-3.5 25t-9 25t-18 16.5t-29 7.5q-66 0 -80 -101l-21 -159h102q23 0 23 -20q0 -26 -21 -26h-108l-48 -404q-7 -56 -14.5 -95.5t-23 -80.5t-37 -65.5t-56 -40.5t-80.5 -16
q-39 0 -64 16.5t-25 49.5q0 31 16.5 49t45.5 18q14 0 30 -6q0 -77 36 -77q17 0 29.5 10.5t20 31.5t11 38t6.5 43zM443 633q3 25 13 59q-19 36 -42.5 51.5t-62.5 15.5t-70.5 -29t-38.5 -81l-18 -139h203z" />
    <glyph glyph-name="fi" unicode="fi" horiz-adv-x="585" 
d="M379 464h-159l-50 -413q-8 -64 -20 -110.5t-35.5 -92.5t-65.5 -70.5t-100 -24.5q-39 0 -64 16.5t-25 49.5q0 31 16.5 49t45.5 18q14 0 30 -6q0 -77 36 -77q21 0 35.5 10.5t22.5 31.5t12 38t7 43l67 537h-58q-21 0 -21 21q0 26 23 26h63l13 106q7 61 31 103t58 61.5
t64.5 27.5t64.5 8q61 0 99.5 -21.5t38.5 -59.5q0 -64 -89 -64q0 99 -69 99q-92 0 -109 -126l-17 -134h152q23 0 55.5 5.5t42.5 5.5q24 0 24 -21q0 -9 -24 -200.5t-24 -204.5q0 -10 4.5 -12.5t20.5 -2.5h64q16 0 16 -13q0 -15 -72.5 -44.5t-107.5 -29.5q-24 0 -24 21
q0 16 26.5 221t26.5 220q0 6 -4.5 7.5t-20.5 1.5z" />
    <glyph glyph-name="fl" unicode="fl" horiz-adv-x="606" 
d="M458 784q9 4 26.5 14t27.5 14t19 4q25 0 25 -31q0 -14 -41.5 -345.5t-41.5 -350.5q0 -10 25 -10h67q16 0 16 -13q0 -15 -73 -44.5t-108 -29.5q-24 0 -24 20q0 16 39.5 330t39.5 326q0 50 -29.5 76t-74.5 26q-40 0 -70.5 -29t-38.5 -91l-18 -140h102q23 0 23 -20
q0 -26 -21 -26h-108l-50 -413q-8 -64 -20 -110.5t-35.5 -92.5t-65.5 -70.5t-100 -24.5q-39 0 -64 16.5t-25 49.5q0 31 16.5 49t45.5 18q14 0 30 -6q0 -77 36 -77q21 0 35.5 10.5t22.5 31.5t12 38t7 43l67 537h-58q-21 0 -21 21q0 26 23 26h63l12 108q12 105 68 151.5
t125 46.5q76 0 114 -32z" />
    <glyph glyph-name="ffi" unicode="ffi" horiz-adv-x="873" 
d="M354 805q82 0 152 -42q57 53 152 53q61 0 99.5 -21.5t38.5 -59.5q0 -64 -89 -64q0 99 -69 99q-92 0 -109 -126l-17 -134h152q23 0 55.5 5.5t42.5 5.5q24 0 24 -21q0 -9 -24 -200.5t-24 -204.5q0 -10 4.5 -12.5t20.5 -2.5h64q16 0 16 -13q0 -15 -72.5 -44.5t-107.5 -29.5
q-24 0 -24 21q0 16 26.5 221t26.5 220q0 6 -4.5 7.5t-20.5 1.5h-159l-48 -404q-7 -56 -14.5 -95.5t-23 -80.5t-37 -65.5t-56 -40.5t-80.5 -16q-39 0 -64 16.5t-25 49.5q0 31 16.5 49t45.5 18q14 0 30 -6q0 -77 36 -77q17 0 29.5 10.5t20 31.5t11 38t6.5 43l65 529h-200
l-50 -413q-8 -64 -20 -110.5t-35.5 -92.5t-65.5 -70.5t-100 -24.5q-39 0 -64 16.5t-25 49.5q0 31 16.5 49t45.5 18q14 0 30 -6q0 -77 36 -77q21 0 35.5 10.5t22.5 31.5t12 38t7 43l67 537h-58q-21 0 -21 21q0 26 23 26h63l13 103q7 55 29.5 94.5t53.5 59.5t60.5 29t58.5 9z
M351 759q-39 0 -70.5 -29t-38.5 -81l-18 -139h203l13 106q5 43 18 74q-38 69 -107 69z" />
    <glyph glyph-name="ffl" unicode="ffl" horiz-adv-x="895" 
d="M362 805q35 0 75.5 -11.5t66.5 -28.5q52 51 129 51q76 0 114 -32q9 4 26.5 14t27.5 14t19 4q25 0 25 -31q0 -14 -41.5 -345.5t-41.5 -350.5q0 -10 25 -10h67q16 0 16 -13q0 -15 -73 -44.5t-108 -29.5q-24 0 -24 20q0 16 39.5 330t39.5 326q0 50 -29.5 76t-74.5 26
q-40 0 -71.5 -29.5t-39.5 -90.5l-17 -140h102q23 0 23 -20q0 -26 -21 -26h-108l-48 -404q-7 -56 -14.5 -95.5t-23 -80.5t-37 -65.5t-56 -40.5t-80.5 -16q-39 0 -64 16.5t-25 49.5q0 31 16.5 49t45.5 18q14 0 30 -6q0 -77 36 -77q17 0 29.5 10.5t20 31.5t11 38t6.5 43l65 529
h-200l-50 -413q-8 -64 -20 -110.5t-35.5 -92.5t-65.5 -70.5t-100 -24.5q-39 0 -64 16.5t-25 49.5q0 31 16.5 49t45.5 18q14 0 30 -6q0 -77 36 -77q21 0 35.5 10.5t22.5 31.5t12 38t7 43l67 537h-58q-21 0 -21 21q0 26 23 26h63l13 103q7 55 29.5 94.5t54.5 59.5t63 29t63 9z
M440 618q4 35 18 74q-38 67 -107 67q-39 0 -70.5 -29t-38.5 -81l-18 -139h203z" />
    <glyph glyph-name=".notdef" horiz-adv-x="846" 
d="M273 463v225h-24v-165l-152 165h-35l30 -34v-189h24v166l155 -169zM352 577q0 38 25.5 65.5t62.5 27.5t63.5 -27.5t26.5 -65.5t-26.5 -66t-63.5 -28t-62.5 28t-25.5 66zM327 577q0 -48 32.5 -81.5t80.5 -33.5q47 0 80 33.5t33 81.5q0 47 -33 81t-80 34q-48 0 -80.5 -33.5
t-32.5 -81.5zM424 575q0 -17 18 -17q7 0 12 5t5 12t-5 12t-12 5q-18 0 -18 -17zM647 666v-201h24v201h77l-2 22h-173l-2 -22h76zM98 109h56q56 0 91.5 29t35.5 83q0 59 -37.5 85t-92.5 26q-34 0 -53 -4v-219zM148 130h-27v179l10 1q56 5 90 -17.5t34 -71.5
q0 -44 -28.5 -67.5t-78.5 -23.5zM523 125l1 25q-25 -22 -73 -22q-35 0 -61 24.5t-30 59.5h145l3 22h-148q5 34 29.5 57.5t57.5 23.5q41 0 77 -26v27q-31 21 -75 21q-48 0 -80.5 -33.5t-32.5 -81.5t32.5 -81.5t80.5 -33.5q50 0 74 18zM629 109v106h91v22h-91v72h109l-2 22
h-131v-222h24zM732 129q0 -9 6 -15t15 -6t15 6t6 15t-6 15t-15 6t-15 -6t-6 -15zM-3 0v779h846v-779h-846z" />
    <glyph glyph-name=".null" horiz-adv-x="0" 
 />
    <glyph glyph-name="nonmarkingreturn" horiz-adv-x="333" 
 />
    <glyph glyph-name="space" unicode=" " horiz-adv-x="253" 
 />
    <glyph glyph-name="exclam" unicode="!" horiz-adv-x="252" 
d="M123 225q-24 1 -24 34q0 10 9.5 214.5t11.5 230.5q1 19 8 26.5t24 10.5q66 11 75 11q17 0 17 -18q0 -6 -19 -113.5t-40 -226t-23 -128.5q-7 -41 -39 -41zM41 66q0 30 20.5 51t49.5 21q30 0 51 -21t21 -51q0 -29 -21 -49.5t-51 -20.5q-29 0 -49.5 20.5t-20.5 49.5z" />
    <glyph glyph-name="quotedbl" unicode="&#x22;" horiz-adv-x="296" 
d="M144 799q0 -38 -33.5 -143.5t-59.5 -105.5q-15 0 -21 12q21 82 21 186q0 19 -1.5 37.5t-1.5 21.5q0 13 13 13h65q18 0 18 -21zM276 799q0 -38 -33.5 -143.5t-59.5 -105.5q-15 0 -21 12q21 82 21 186q0 19 -1.5 37.5t-1.5 21.5q0 13 13 13h65q18 0 18 -21z" />
    <glyph glyph-name="numbersign" unicode="#" horiz-adv-x="750" 
d="M360 36l48 162h-136l-49 -165q-11 -34 -39 -34q-25 0 -25 27q0 3 2 11l48 161h-152q-27 0 -27 24q0 11 7.5 20t18.5 9h169l34 112h-162q-27 0 -27 24q0 11 7.5 20t18.5 9h179l42 140q7 23 30 23q29 0 29 -25q0 -4 -2 -14l-37 -124h137l42 140q7 23 30 23q29 0 29 -25
q0 -4 -2 -14l-37 -124h164q20 0 20 -25q0 -11 -6.5 -19.5t-18.5 -8.5h-175l-33 -112h173q20 0 20 -25q0 -11 -6.5 -19.5t-18.5 -8.5h-184l-49 -165q-11 -34 -39 -34q-11 0 -18 7.5t-7 18.5q0 3 2 11zM321 363l-33 -112h136l34 112h-137z" />
    <glyph glyph-name="dollar" unicode="$" horiz-adv-x="455" 
d="M74 158q21 -117 138 -117q39 0 70.5 21.5t31.5 64.5q0 37 -22.5 66t-73.5 66q-41 30 -59.5 44.5t-39 36t-27.5 42t-7 48.5q0 64 44 100.5t114 42.5l12 98q3 23 24 23t21 -23q0 -31 -10 -96q61 -3 116 -24q10 -5 10 -16q0 -27 -13 -112q-1 -12 -14 -12q-15 0 -16 17
q-4 48 -36 72.5t-79 24.5q-38 0 -59.5 -19t-21.5 -52q0 -16 4.5 -28.5t18 -26t22 -20.5t33.5 -24t35 -25q64 -47 89 -84t25 -86q0 -79 -51.5 -120t-131.5 -47l-13 -116q-3 -23 -24 -23t-21 23q0 38 12 116q-77 3 -135 27q-7 5 -7 22q0 43 7 113q1 19 16 19t18 -16z" />
    <glyph glyph-name="percent" unicode="%" horiz-adv-x="996" 
d="M197 366q-85 0 -128.5 45t-43.5 121q0 90 55.5 155t149.5 65q78 0 121.5 -48.5t43.5 -122.5q0 -91 -52 -153t-146 -62zM239 701q-57 0 -88 -48t-31 -117q0 -54 24.5 -85t74.5 -31q53 0 86 43.5t33 109.5q0 59 -27.5 93.5t-71.5 34.5zM239 19l466 746q13 20 32 20
q11 0 19.5 -8t8.5 -19q0 -9 -4 -16l-466 -750q-14 -23 -34 -23q-12 0 -20 8.5t-8 21.5q0 12 6 20zM773 -8q-85 0 -128.5 45t-43.5 121q0 90 55.5 155t149.5 65q78 0 121.5 -48.5t43.5 -122.5q0 -91 -52 -153t-146 -62zM815 327q-57 0 -88 -48t-31 -117q0 -54 24.5 -85
t74.5 -31q53 0 86 43.5t33 109.5q0 59 -27.5 93.5t-71.5 34.5z" />
    <glyph glyph-name="ampersand" unicode="&#x26;" horiz-adv-x="805" 
d="M189 276q62 15 98 56.5t36 82.5q0 26 -14 41.5t-36 15.5q-52 0 -99 -62.5t-47 -182.5q0 -177 175 -177q155 0 263.5 127t108.5 302q0 112 -61.5 165.5t-152.5 53.5q-49 0 -84.5 -11t-50 -24t-26 -24t-17.5 -11q-15 0 -15 15q0 44 63 81.5t161 37.5q54 0 102 -14t89.5 -43
t66 -81t24.5 -121q0 -95 -29 -178.5t-78.5 -143.5t-114 -103t-137.5 -64.5t-148 -21.5q-227 0 -227 225q0 138 76 221t176 83q60 0 93 -29t33 -72q0 -44 -34 -88t-109 -61q22 -32 47.5 -50.5t72.5 -37.5q14 -5 14 -12q0 -13 -23 -13q-73 0 -142.5 34.5t-69.5 66.5
q0 13 16 17z" />
    <glyph glyph-name="quotesingle" unicode="'" horiz-adv-x="164" 
d="M144 799q0 -38 -33.5 -143.5t-59.5 -105.5q-15 0 -21 12q21 82 21 186q0 19 -1.5 37.5t-1.5 21.5q0 13 13 13h65q18 0 18 -21z" />
    <glyph glyph-name="parenleft" unicode="(" horiz-adv-x="385" 
d="M209 -198q-66 88 -100 204.5t-34 220.5q0 152 71 311t187 280q12 12 24 12q18 0 18 -15q0 -8 -7 -16q-81 -107 -148 -269t-67 -320q0 -97 22.5 -201t70.5 -176q8 -12 8 -20q0 -21 -25 -21q-13 0 -20 10z" />
    <glyph glyph-name="parenright" unicode=")" horiz-adv-x="395" 
d="M186 820q66 -88 100 -204.5t34 -220.5q0 -152 -71 -311t-187 -280q-12 -12 -24 -12q-18 0 -18 15q0 8 7 16q81 107 148 269t67 320q0 97 -22.5 201t-70.5 176q-8 12 -8 20q0 21 25 21q12 0 20 -10z" />
    <glyph glyph-name="asterisk" unicode="*" horiz-adv-x="430" 
d="M257 592l3 -128q1 -18 -10.5 -23.5t-20.5 13.5l-54 121l-118 -46q-17 -6 -24 4t10 25l103 84l-71 95q-11 14 -2.5 25t25.5 0l102 -69l66 94q10 15 22.5 11.5t8.5 -21.5l-31 -115l117 -31q8 -2 13 -9.5t1 -14.5t-17 -8z" />
    <glyph glyph-name="plus" unicode="+" horiz-adv-x="614" 
d="M538 245h-207l-27 -220q-3 -26 -28 -26t-25 22q0 6 13.5 114t13.5 110h-202q-12 0 -19 7.5t-7 16.5q0 12 8.5 20.5t21.5 8.5h204l24 187q3 26 29 26q24 0 24 -25q0 -5 -12 -95.5t-12 -92.5h202q11 0 18 -7t7 -17q0 -29 -26 -29z" />
    <glyph glyph-name="comma" unicode="," horiz-adv-x="237" 
d="M193 51q0 -77 -52 -131t-108 -54q-18 0 -18 12q0 9 10 12q36 13 55.5 39.5t19.5 53.5q0 30 -48 93q4 23 26.5 39t46.5 16q30 0 49 -20.5t19 -59.5z" />
    <glyph glyph-name="hyphen" unicode="-" horiz-adv-x="350" 
d="M279 301l-195 -40q-10 -2 -13 -2q-17 0 -27 10.5t-10 24.5q0 29 32 36l196 39q18 4 25 4q12 0 20 -10t8 -22q0 -33 -36 -40z" />
    <glyph glyph-name="period" unicode="." horiz-adv-x="214" 
d="M41 66q0 30 20.5 51t49.5 21q30 0 51 -21t21 -51q0 -29 -21 -49.5t-51 -20.5q-29 0 -49.5 20.5t-20.5 49.5z" />
    <glyph glyph-name="slash" unicode="/" horiz-adv-x="479" 
d="M13 -200l391 991q9 27 35 27q13 0 21.5 -7.5t8.5 -20.5q0 -8 -3 -15l-391 -992q-11 -28 -35 -28q-12 0 -21 8.5t-9 21.5q0 7 3 15z" />
    <glyph glyph-name="zero" unicode="0" horiz-adv-x="589" 
d="M40 230q0 117 80 204t201 87q103 0 164.5 -64.5t61.5 -171.5q0 -117 -73 -205t-192 -88q-110 0 -176 64.5t-66 173.5zM331 463q-84 0 -135 -65t-51 -172q0 -76 38.5 -127t108.5 -51q86 0 139.5 66.5t53.5 162.5q0 77 -41.5 131.5t-112.5 54.5z" />
    <glyph glyph-name="one" unicode="1" horiz-adv-x="478" 
d="M336 503q0 -15 -23 -197t-23 -193q0 -37 23 -52t92 -25q13 -1 13 -18q0 -18 -14 -18h-342q-11 0 -11 14q0 20 18 22q73 8 99.5 30.5t33.5 84.5q1 8 9.5 75.5t15.5 123.5t7 61q0 16 -24 16h-116q-14 0 -14 15q0 16 15 20q25 7 121.5 32.5t105.5 25.5q14 0 14 -17z" />
    <glyph glyph-name="two" unicode="2" horiz-adv-x="502" 
d="M401 0h-376q-19 0 -19 17q0 14 15 26q172 126 236 190.5t64 130.5q0 43 -22.5 66t-57.5 23q-79 0 -128 -75q-5 -8 -16 -8q-13 0 -13 17q0 54 57 94t131 40q65 0 110.5 -37.5t45.5 -104.5q0 -73 -66.5 -137t-224.5 -161l287 11q12 0 12 -11q0 -14 -15 -64q-3 -11 -7 -14
t-13 -3z" />
    <glyph glyph-name="three" unicode="3" horiz-adv-x="430" 
d="M158 170q89 -16 137 -70.5t48 -123.5q0 -101 -67.5 -155.5t-169.5 -54.5q-65 0 -114 19t-49 45q0 17 18 17q2 0 33.5 -13.5t77.5 -13.5q74 0 123 45.5t49 121.5q0 64 -40 109.5t-112 49.5q-27 1 -27 20q0 18 24 23q99 17 140.5 66t41.5 104q0 49 -25.5 74t-63.5 25
q-68 0 -105 -58q-8 -12 -21 -12q-15 0 -15 16q0 34 44 75.5t130 41.5q67 0 112.5 -37t45.5 -111q0 -73 -59.5 -132t-155.5 -71z" />
    <glyph glyph-name="four" unicode="4" horiz-adv-x="564" 
d="M398 95h104q13 0 13 -10q0 -13 -10 -48q-3 -11 -20 -11h-94l-27 -222q-2 -17 -15 -17h-60q-15 0 -15 14q0 5 5.5 56t12 107.5t7.5 61.5h-285q-20 0 -20 17q0 14 12 27l400 440q11 11 23 11q17 0 17 -20q0 -41 -48 -406zM95 95h212l34 278z" />
    <glyph glyph-name="five" unicode="5" horiz-adv-x="474" 
d="M147 510h281q14 0 14 -13q0 -8 -13 -64q-4 -18 -23 -18h-250l-32 -154q124 -43 185.5 -106t61.5 -157q0 -90 -69 -158.5t-175 -68.5q-53 0 -103 16t-50 38q0 15 15 15q4 0 31.5 -8t65.5 -8q79 0 130 47.5t51 115.5q0 75 -42.5 123t-151.5 100q-9 4 -9 11q0 6 13 66.5
t28.5 129t16.5 73.5q2 8 3.5 11.5t6.5 6t15 2.5z" />
    <glyph glyph-name="six" unicode="6" horiz-adv-x="586" 
d="M268 361q-17 0 -17 16q0 17 29.5 25t51.5 8q81 0 140.5 -53t59.5 -142q0 -98 -68 -160.5t-176 -62.5q-115 0 -175.5 67t-60.5 165q0 182 140.5 334.5t339.5 204.5q34 9 42 9q21 0 21 -20q0 -13 -14 -19q-93 -35 -165.5 -78.5t-132.5 -103t-92 -140.5t-32 -178
q0 -87 36.5 -139.5t101.5 -52.5q134 0 134 161q0 71 -35 116.5t-95 45.5q-9 0 -19 -1.5t-14 -1.5z" />
    <glyph glyph-name="seven" unicode="7" horiz-adv-x="474" 
d="M44 -224l322 628h-328q-17 0 -21 17l-15 75q0 14 21 14h414q14 0 14 -13q0 -6 -11 -30l-316 -718q-8 -18 -16 -18q-11 0 -58 14q-13 3 -13 12q0 6 7 19z" />
    <glyph glyph-name="eight" unicode="8" horiz-adv-x="585" 
d="M379 473q0 6 9 15.5t19.5 20.5t19.5 35t9 56q0 46 -27.5 75t-80.5 29q-51 0 -80.5 -26.5t-29.5 -67.5q0 -51 42 -92l152 -145q49 -48 76 -89t27 -91q0 -89 -67 -145t-168 -56q-109 0 -166.5 50.5t-57.5 123.5q0 79 53.5 133.5t104.5 54.5q19 0 19 -16q0 -10 -8 -15
q-81 -52 -81 -145q0 -58 40.5 -97t106.5 -39q61 0 98.5 32.5t37.5 88.5q0 63 -80 138l-127 117q-84 77 -84 160q0 77 56.5 125.5t142.5 48.5t135 -43t49 -109q0 -62 -42.5 -100t-80.5 -38q-17 0 -17 11z" />
    <glyph glyph-name="nine" unicode="9" horiz-adv-x="582" 
d="M305 154q17 0 17 -16q0 -17 -29.5 -25t-51.5 -8q-81 0 -140.5 53t-59.5 142q0 98 68 160.5t176 62.5q116 0 176 -69t60 -175q0 -120 -66.5 -230t-175 -186.5t-238.5 -110.5q-34 -9 -42 -9q-21 0 -21 20q0 13 14 19q74 28 134.5 60t116 77t93.5 96.5t60 120t22 146.5
q0 86 -38.5 139t-103.5 53q-134 0 -134 -161q0 -71 35 -116.5t95 -45.5q9 0 19 1.5t14 1.5z" />
    <glyph glyph-name="colon" unicode=":" horiz-adv-x="260" 
d="M78 426q0 30 20.5 51t49.5 21q30 0 51 -21t21 -51q0 -29 -21 -49.5t-51 -20.5q-29 0 -49.5 20.5t-20.5 49.5zM43 66q0 30 20.5 51t49.5 21q30 0 51 -21t21 -51q0 -29 -21 -49.5t-51 -20.5q-29 0 -49.5 20.5t-20.5 49.5z" />
    <glyph glyph-name="semicolon" unicode=";" horiz-adv-x="236" 
d="M78 426q0 30 20.5 51t49.5 21q30 0 51 -21t21 -51q0 -29 -21 -49.5t-51 -20.5q-29 0 -49.5 20.5t-20.5 49.5zM193 51q0 -77 -52 -131t-108 -54q-18 0 -18 12q0 9 10 12q36 13 55.5 39.5t19.5 53.5q0 30 -48 93q4 23 26.5 39t46.5 16q30 0 49 -20.5t19 -59.5z" />
    <glyph glyph-name="less" unicode="&#x3c;" horiz-adv-x="405" 
d="M261 73l-198 152q-13 10 -13 23q0 15 16 27l235 182q12 9 24 9t21 -9.5t9 -21.5q0 -15 -13 -25l-217 -160l177 -129q15 -12 15 -27q0 -12 -9 -21.5t-22 -9.5q-12 0 -25 10z" />
    <glyph glyph-name="equal" unicode="=" horiz-adv-x="564" 
d="M488 323h-394q-12 0 -18 7.5t-6 17.5q0 12 8.5 20t21.5 8h393q10 0 15.5 -8t5.5 -17q0 -12 -7 -20t-19 -8zM468 201h-394q-12 0 -18 7.5t-6 17.5q0 12 8.5 20t21.5 8h393q10 0 15.5 -8t5.5 -17q0 -12 -7 -20t-19 -8z" />
    <glyph glyph-name="greater" unicode="&#x3e;" horiz-adv-x="405" 
d="M144 456l198 -152q13 -10 13 -23q0 -15 -16 -27l-235 -182q-12 -9 -24 -9t-21 9.5t-9 21.5q0 15 13 25l217 160l-177 129q-15 12 -15 27q0 12 9 21.5t22 9.5q12 0 25 -10z" />
    <glyph glyph-name="question" unicode="?" horiz-adv-x="376" 
d="M199 708q-73 0 -73 -114q-18 -4 -27 -4q-32 0 -49 16t-17 42q0 44 48 74t120 30q81 0 128.5 -40t47.5 -113q0 -48 -17 -86t-42 -59t-55 -40t-55 -32.5t-42 -33t-17 -43.5q0 -18 7.5 -31t16.5 -19t16.5 -14t7.5 -16q0 -14 -24 -14q-30 0 -59.5 24t-29.5 65q0 43 20.5 74.5
t49 52t57.5 42t49.5 56.5t20.5 83q0 45 -22 72.5t-60 27.5zM62 66q0 30 20.5 51t49.5 21q30 0 51 -21t21 -51q0 -29 -21 -49.5t-51 -20.5q-29 0 -49.5 20.5t-20.5 49.5z" />
    <glyph glyph-name="at" unicode="@" horiz-adv-x="963" 
d="M508 473q-68 0 -109.5 -84t-41.5 -208q0 -53 12 -79.5t43 -26.5q28 0 60.5 28.5t85.5 113.5l29 210q-32 46 -79 46zM632 84q0 -19 8.5 -26.5t27.5 -7.5q51 0 102 74.5t51 187.5q0 155 -94.5 240.5t-248.5 85.5q-145 0 -240 -121t-95 -295q0 -162 105 -267t249 -105
q24 0 24 -21q0 -12 -7 -21t-18 -9q-204 0 -318 115.5t-114 301.5q0 129 56 238t159 174.5t231 65.5q170 0 279.5 -99.5t109.5 -260.5q0 -176 -88.5 -259t-249.5 -83q-25 0 -25 26q0 14 17 126l-3 1q-41 -77 -83.5 -113.5t-94.5 -36.5q-49 0 -78.5 47t-29.5 136q0 151 77 247
t186 96q41 0 83 -29q40 29 55 29q18 0 18 -18q0 -10 -25.5 -206t-25.5 -213z" />
    <glyph glyph-name="A" unicode="A" horiz-adv-x="664" 
d="M464 144l-24 104h-242l-80 -163q-5 -10 -5 -16q0 -14 20.5 -21t67.5 -12q12 0 12 -17q0 -19 -19 -19h-217q-17 0 -17 15q0 18 17 21q38 7 50.5 20t42.5 70l275 521l-21 70q-3 9 -3 14q0 14 14 14h89l144 -610q9 -38 15 -53.5t21.5 -28.5t44.5 -17q14 -1 14 -18
q0 -18 -14 -18h-251q-11 0 -11 14q0 20 17 22q40 3 55.5 13t15.5 32q0 13 -11 63zM362 578l-138 -278h205l-63 278h-4z" />
    <glyph glyph-name="B" unicode="B" horiz-adv-x="659" 
d="M320 412q169 0 169 152q0 68 -44.5 98.5t-132.5 30.5h-29q-5 -40 -36 -311t-31 -290q0 -27 17 -35t60 -8q91 0 149.5 37.5t58.5 126.5q0 154 -167 154h-13q-26 0 -26 22q0 23 25 23zM109 745h224q117 0 190 -42t73 -130q0 -73 -36.5 -120.5t-98.5 -63.5q66 -14 107 -57.5
t41 -115.5q0 -74 -48.5 -124.5t-115 -71t-142.5 -20.5h-276q-16 0 -16 15q0 18 17 21q50 6 69 30.5t28 104.5q56 476 56 499q0 18 -13.5 25t-58.5 14q-14 2 -14 19t14 17z" />
    <glyph glyph-name="C" unicode="C" horiz-adv-x="681" 
d="M594 33q-120 -42 -227 -42q-146 0 -234 83t-88 248q0 92 25.5 169t74.5 135.5t128 91.5t180 33q100 0 186 -23q11 -4 11 -17q0 -6 -10.5 -88t-13.5 -97q-3 -14 -17 -14q-19 0 -20 16q-2 27 -5 46.5t-14 45t-28 41.5t-48 27t-74 11q-107 0 -185.5 -97t-78.5 -268
q0 -132 54.5 -209t165.5 -77q83 0 133 39.5t89 114.5q8 14 21 14q14 0 14 -15q0 -3 -5.5 -36.5t-11.5 -70t-7 -41.5q-2 -15 -15 -20z" />
    <glyph glyph-name="D" unicode="D" horiz-adv-x="765" 
d="M608 400q0 140 -75 217t-216 77h-30q-5 -34 -36.5 -304.5t-31.5 -285.5q0 -32 19 -44t75 -12q138 0 216.5 96t78.5 256zM298 0h-271q-16 0 -16 14q0 19 17 22q50 6 69 30.5t28 104.5q56 476 56 499q0 18 -13.5 25t-58.5 14q-14 2 -14 19t14 17h209q205 0 303.5 -89.5
t98.5 -254.5q0 -192 -116.5 -296.5t-305.5 -104.5z" />
    <glyph glyph-name="E" unicode="E" horiz-adv-x="619" 
d="M494 0h-467q-16 0 -16 14q0 19 17 22q50 6 69 30.5t28 104.5q56 476 56 499q0 18 -13.5 25t-58.5 14q-14 2 -14 19t14 17h452q12 0 17 -2.5t5 -12.5q0 -17 -13 -160q-1 -16 -17 -16q-15 0 -17 18q-2 57 -27.5 89.5t-72.5 32.5h-152l-31 -281q43 -5 88 -5q29 0 44 1.5
t35.5 9t32.5 25t19 46.5q3 14 18 14q14 0 14 -14q0 -7 -9 -101t-9 -103q0 -15 -15 -15q-17 0 -17 18q0 25 -9.5 40.5t-29 21.5t-34.5 7.5t-41 1.5q-40 0 -94 -4q-1 -12 -8.5 -77.5t-14.5 -125t-7 -62.5q0 -25 26 -33t102 -8q38 0 67.5 11t52 35.5t33.5 40t29 47.5
q8 12 20 12q14 0 14 -11t-36 -164q-5 -21 -30 -21z" />
    <glyph glyph-name="F" unicode="F" horiz-adv-x="585" 
d="M216 91q0 -48 126 -54q23 -2 23 -20q0 -17 -15 -17h-323q-16 0 -16 14q0 19 17 22q50 6 69 30.5t28 104.5q56 476 56 499q0 18 -13.5 25t-58.5 14q-14 2 -14 19t14 17h452q12 0 17 -2.5t5 -12.5q0 -17 -13 -160q-1 -16 -17 -16q-15 0 -17 18q-2 57 -27.5 89.5t-72.5 32.5
h-152l-31 -281q43 -5 88 -5q29 0 44 1.5t35.5 9t32.5 25t19 46.5q3 14 18 14q14 0 14 -14q0 -7 -9 -101t-9 -103q0 -15 -15 -15q-17 0 -17 18q0 25 -9.5 40.5t-29 21.5t-34.5 7.5t-41 1.5q-40 0 -94 -4q-1 -12 -8.5 -77.5t-14.5 -125t-7 -62.5z" />
    <glyph glyph-name="G" unicode="G" horiz-adv-x="748" 
d="M537 95q19 155 19 167q0 19 -14 26.5t-58 13.5q-14 2 -14 19t14 17h252q17 0 17 -16q0 -17 -18 -20q-45 -5 -63 -32.5t-26 -102.5l-7 -65q3 -5 9.5 -13t10 -13.5t3.5 -10.5q0 -11 -21 -21q-104 -52 -250 -52q-165 0 -255.5 98.5t-90.5 245.5q0 194 113.5 305t324.5 111
q93 0 187 -23q11 -3 11 -17q0 -6 -5.5 -47.5t-12 -88t-6.5 -49.5q-1 -14 -18 -14q-18 0 -19 16q-3 35 -9 59.5t-22.5 53.5t-52 44.5t-89.5 15.5q-52 0 -101.5 -22t-92.5 -63.5t-69 -112t-26 -158.5q0 -136 65.5 -218t175.5 -82q132 0 138 49z" />
    <glyph glyph-name="H" unicode="H" horiz-adv-x="845" 
d="M760 0h-271q-16 0 -16 14q0 19 17 22q50 6 69 30.5t28 104.5l19 171h-363q-29 -242 -29 -261q0 -22 17 -30t67 -15q14 -2 14 -19t-14 -17h-271q-16 0 -16 14q0 19 17 22q50 6 69 30.5t28 104.5q56 476 56 499q0 18 -13.5 25t-58.5 14q-14 2 -14 19t14 17h251q12 0 12 -14
q0 -19 -18 -22q-45 -7 -60 -32.5t-24 -102.5l-21 -178h364q5 47 13.5 120.5t12.5 111.5t4 42q0 18 -13.5 25t-58.5 14q-14 2 -14 19t14 17h251q12 0 12 -14q0 -19 -18 -22q-45 -7 -60 -32.5t-24 -102.5q-1 -5 -15 -128.5t-27.5 -242t-13.5 -122.5q0 -22 17 -30t67 -15
q14 -2 14 -19t-14 -17z" />
    <glyph glyph-name="I" unicode="I" horiz-adv-x="382" 
d="M298 0h-271q-16 0 -16 14q0 19 17 22q50 6 69 30.5t28 104.5q56 476 56 499q0 18 -13.5 25t-58.5 14q-14 2 -14 19t14 17h251q12 0 12 -14q0 -19 -18 -22q-45 -7 -60 -32.5t-24 -102.5q-1 -5 -15 -128.5t-27.5 -242t-13.5 -122.5q0 -22 17 -30t67 -15q14 -2 14 -19
t-14 -17z" />
    <glyph glyph-name="J" unicode="J" horiz-adv-x="330" 
d="M340 731q0 -19 -18 -22q-44 -5 -59 -31t-24 -104l-65 -572q-13 -112 -194 -246q-35 -27 -52 -27q-12 0 -18.5 7.5t-6.5 16.5q0 19 22 30l33 17q99 51 120 239q5 42 37 334.5t32 296.5q0 19 -13 26t-58 13q-14 2 -14 19t14 17h252q12 0 12 -14z" />
    <glyph glyph-name="K" unicode="K" horiz-adv-x="702" 
d="M687 -19q0 -13 -45 -13q-123 0 -161 64l-207 344l215 258q25 30 25 44q0 24 -51 30q-16 3 -16 20t18 17h230q17 0 17 -15q0 -16 -16 -21q-86 -19 -139 -82l-194 -226l194 -295q34 -51 56 -72.5t66 -41.5q8 -3 8 -11zM298 0h-271q-16 0 -16 14q0 19 17 22q50 6 69 30.5
t28 104.5q56 476 56 499q0 18 -13.5 25t-58.5 14q-14 2 -14 19t14 17h251q12 0 12 -14q0 -19 -18 -22q-45 -7 -60 -32.5t-24 -102.5q-1 -5 -15 -128.5t-27.5 -242t-13.5 -122.5q0 -22 17 -30t67 -15q14 -2 14 -19t-14 -17z" />
    <glyph glyph-name="L" unicode="L" horiz-adv-x="548" 
d="M372 731q0 -19 -18 -22q-44 -5 -58.5 -30.5t-23.5 -104.5q-1 -9 -27 -240t-26 -234q0 -29 23 -38t89 -9q38 0 67.5 11t51 33t34 40t27.5 47q6 11 19 11q16 0 16 -14q0 -3 -32 -142q-4 -19 -13 -27.5t-19 -10t-36 -1.5h-419q-16 0 -16 14q0 19 17 22q50 6 69 30.5
t28 104.5q56 476 56 499q0 18 -13.5 25t-58.5 14q-14 2 -14 19t14 17h251q12 0 12 -14z" />
    <glyph glyph-name="M" unicode="M" horiz-adv-x="962" 
d="M422 -1l-152 571h-6l-121 -424q-10 -33 -10 -47q0 -47 82 -63q14 -3 14 -19q0 -17 -14 -17h-248q-11 0 -11 14q0 19 17 22q50 7 67 23.5t29 57.5l140 482q10 37 10 46q0 26 -22.5 45.5t-59.5 20.5q-14 0 -14 16q0 18 17 18h190l147 -565h5l258 564h190q12 0 12 -15
q0 -21 -17 -21q-44 -1 -66 -22.5t-22 -54.5v-498q0 -46 17.5 -67.5t63.5 -29.5q14 -3 14 -19q0 -17 -14 -17h-277q-11 0 -11 14q0 19 17 22q49 7 68 26.5t22 57.5q1 10 1 451h-8l-275 -571q-7 -14 -18 -14q-12 0 -15 13z" />
    <glyph glyph-name="N" unicode="N" horiz-adv-x="835" 
d="M649 -13q-11 0 -17 9l-394 595h-4q0 -1 -24.5 -235.5t-24.5 -248.5q0 -29 24.5 -45t78.5 -26q14 -3 14 -19q0 -17 -14 -17h-260q-16 0 -16 16q0 18 16 20q51 6 70 30.5t28 104.5l55 479l-50 66q-7 8 -7 17q0 12 13 12h123l363 -550h4q51 408 51 460q0 24 -22.5 36
t-69.5 17q-15 2 -15 19q0 18 14 18h236q14 0 14 -15q0 -20 -17 -22q-45 -4 -60 -30.5t-24 -103.5l-65 -565q-3 -22 -20 -22z" />
    <glyph glyph-name="O" unicode="O" horiz-adv-x="771" 
d="M360 -8q-148 0 -231.5 90.5t-83.5 239.5q0 183 100.5 306.5t265.5 123.5q150 0 232.5 -90.5t82.5 -249.5q0 -112 -43.5 -207t-128.5 -154t-194 -59zM408 695q-77 0 -136 -54t-87.5 -135t-28.5 -172q0 -126 53 -205.5t154 -79.5q78 0 136.5 53.5t87 133.5t28.5 171
q0 127 -53 207.5t-154 80.5z" />
    <glyph glyph-name="P" unicode="P" horiz-adv-x="599" 
d="M496 518q0 74 -45.5 124.5t-126.5 50.5h-36q-72 -558 -72 -602q0 -48 126 -54q23 -2 23 -20q0 -17 -15 -17h-323q-16 0 -16 14q0 19 17 22q50 6 69 30.5t28 104.5q56 476 56 499q0 18 -13.5 25t-58.5 14q-14 2 -14 19t14 17h230q118 0 191.5 -53t73.5 -158
q0 -63 -27.5 -113t-70.5 -78t-88.5 -42.5t-88.5 -14.5q-26 0 -26 22t21 22q65 0 118.5 47.5t53.5 140.5z" />
    <glyph glyph-name="Q" unicode="Q" horiz-adv-x="771" 
d="M359 -8q58 -102 164 -102q27 0 79 8.5t55 8.5q12 0 12 -10q0 -20 -77.5 -57.5t-127.5 -37.5q-28 0 -50.5 7t-39.5 23t-29 31.5t-23 42t-17 44t-15 48.5q-116 21 -180.5 107.5t-64.5 216.5q0 183 100.5 306.5t265.5 123.5q150 0 232.5 -90.5t82.5 -249.5q0 -112 -44 -207
t-129 -154t-194 -59zM408 695q-77 0 -136 -54t-87.5 -135t-28.5 -172q0 -126 53 -205.5t154 -79.5q78 0 136.5 53.5t87 133.5t28.5 171q0 127 -53 207.5t-154 80.5z" />
    <glyph glyph-name="R" unicode="R" horiz-adv-x="679" 
d="M608 553q0 -88 -60.5 -145t-136.5 -70l-1 -3l141 -229q31 -50 53.5 -71.5t68.5 -42.5q8 -3 8 -13q0 -15 -34 -15q-134 0 -172 68l-156 278q-20 33 -20 44q0 17 20 17q69 0 126 51t57 126q0 70 -41.5 109.5t-128.5 39.5h-45q-71 -550 -71 -606q0 -25 15 -36t57 -18
q23 -3 23 -20t-19 -17h-265q-16 0 -16 14q0 19 17 22q50 6 69 30.5t28 104.5q56 476 56 499q0 18 -13.5 25t-58.5 14q-14 2 -14 19t14 17h257q108 0 175 -48t67 -144z" />
    <glyph glyph-name="S" unicode="S" horiz-adv-x="486" 
d="M229 39q52 0 92 31t40 94q0 55 -28.5 95.5t-93.5 83.5q-40 26 -61.5 42.5t-50 45t-42 62.5t-13.5 75q0 90 64.5 137t161.5 47q84 0 156 -29q11 -4 11 -18q0 -5 -4.5 -34.5t-10.5 -64.5t-7 -39q-3 -14 -16 -14q-16 0 -17 16q-7 69 -38.5 99t-92.5 30q-48 0 -81 -28
t-33 -77q0 -27 7.5 -48.5t25.5 -40t30.5 -29.5t40.5 -29.5t39 -26.5q37 -27 57.5 -45t44 -45.5t33.5 -59.5t10 -72q0 -70 -38.5 -119t-92.5 -69.5t-115 -20.5q-108 0 -183 34q-13 7 -13 24q0 23 21 149q3 18 19 18q13 0 15 -13q11 -92 49.5 -126.5t113.5 -34.5z" />
    <glyph glyph-name="T" unicode="T" horiz-adv-x="580" 
d="M455 693h-91q-69 -598 -69 -608q0 -25 25 -34t86 -15q14 -2 14 -18q0 -18 -14 -18h-332q-15 0 -15 14q0 20 17 22q73 4 95.5 27.5t32.5 107.5l61 522h-103q-46 0 -80.5 -39.5t-46.5 -98.5q-5 -18 -20 -18q-14 0 -14 14q0 4 4.5 45t9.5 84t5 47q2 18 25 18h557q15 0 21 -4
t6 -16q0 -7 -8.5 -85.5t-10.5 -89.5q-3 -16 -17 -16q-15 0 -17 18q-1 65 -36.5 103t-84.5 38z" />
    <glyph glyph-name="U" unicode="U" horiz-adv-x="742" 
d="M675 574l-43 -354q-28 -228 -297 -228q-112 0 -180 50.5t-68 154.5q0 41 24.5 256t24.5 216q0 19 -14 26.5t-58 13.5q-14 2 -14 19t14 17h252q12 0 12 -14q0 -19 -18 -22q-45 -5 -60.5 -32t-23.5 -103q-1 -8 -11.5 -95t-19 -166.5t-8.5 -99.5q0 -79 47 -119t126 -40
q86 0 137 40.5t64 111.5q5 25 28.5 237.5t23.5 224.5q0 19 -13.5 26.5t-58.5 14.5q-14 2 -14 19t14 17h224q12 0 12 -14q0 -19 -18 -22q-44 -5 -59.5 -31t-24.5 -104z" />
    <glyph glyph-name="V" unicode="V" horiz-adv-x="656" 
d="M232 12l-121 541q-20 88 -41 118.5t-56 37.5q-14 3 -14 19q0 17 14 17h264q17 0 17 -14q0 -20 -17 -22q-82 -6 -82 -46q0 -19 9 -63l84 -440h4l243 469q14 27 14 44q0 27 -73 36q-12 1 -12 18q0 18 18 18h225q17 0 17 -15q0 -18 -16 -21q-41 -7 -59.5 -22.5t-43.5 -62.5
l-329 -616q-10 -16 -24 -16q-17 0 -21 20z" />
    <glyph glyph-name="W" unicode="W" horiz-adv-x="964" 
d="M490 524l-220 -507q-11 -25 -29 -25q-15 0 -19 22l-111 539q-18 87 -40 118t-57 38q-14 3 -14 19q0 17 14 17h262q11 0 11 -14q0 -20 -17 -22q-41 -3 -56 -13.5t-15 -34.5q0 -19 8 -61l76 -423h4l217 541q12 28 30 28q16 0 21 -24l113 -544h4l169 447q10 25 10 44
q0 18 -15.5 26.5t-51.5 13.5q-16 1 -16 18q0 18 18 18h230q17 0 17 -15q0 -18 -16 -21q-44 -8 -63.5 -23t-39.5 -62l-258 -609q-10 -23 -25 -23t-20 22z" />
    <glyph glyph-name="X" unicode="X" horiz-adv-x="669" 
d="M291 609l78 -163h4l140 190q21 29 21 44q0 13 -12.5 19t-43.5 10q-11 2 -11 16q0 20 19 20h218q15 0 15 -14q0 -18 -16 -22q-40 -7 -72.5 -30.5t-79.5 -85.5l-154 -201l116 -224q43 -83 62.5 -104.5t56.5 -27.5q11 -1 11 -17q0 -19 -19 -19h-252q-15 0 -15 16q0 18 15 20
q70 4 70 29q0 15 -22 61l-90 187h-3l-177 -231q-11 -14 -11 -23q0 -15 55 -22q17 -3 17 -18q0 -19 -18 -19h-218q-15 0 -15 14q0 19 16 22q39 8 71 30.5t79 81.5l177 221l-116 226q-31 60 -51.5 85.5t-46.5 28.5q-13 1 -13 17q0 7 4.5 13t10.5 6h253q10 0 10 -12
q0 -8 -5 -15.5t-13 -8.5q-67 -5 -67 -37q0 -18 22 -63z" />
    <glyph glyph-name="Y" unicode="Y" horiz-adv-x="638" 
d="M118 38q42 6 62.5 11t36.5 16.5t19 31.5q16 116 16 146q0 76 -28.5 172.5t-65.5 171.5q-42 87 -103 87q-13 0 -24 -3t-16 -3q-14 0 -14 17q0 12 12 18q99 42 162 42q10 0 38 -41t64.5 -138.5t52.5 -215.5h4q35 90 51.5 129.5t42 93t53.5 100.5q25 42 44 60.5t45 18.5
q29 0 76.5 -9.5t47.5 -24.5q0 -13 -16 -16q-35 -7 -52 -13t-46.5 -29.5t-64.5 -68.5q-38 -49 -90 -155t-71 -181q-5 -21 -10.5 -74.5t-5.5 -90.5q0 -11 6 -19t20 -13t24.5 -8t33.5 -6.5t32 -5.5q14 -3 14 -20q0 -18 -14 -18h-338q-16 0 -16 17q0 18 18 21z" />
    <glyph glyph-name="Z" unicode="Z" horiz-adv-x="584" 
d="M536 196q14 0 14 -14q0 -5 -8.5 -39.5t-18 -73.5t-10.5 -45q-5 -24 -42 -24h-469q-12 0 -12 11q0 9 10 24l450 655h-222q-47 0 -75 -30t-46 -97q-5 -16 -21 -16q-13 0 -13 15q0 24 15 152q2 17 8 24t25 7h451q21 0 21 -14q0 -10 -8 -21l-451 -654h203q41 0 71 9.5
t51 31.5t31 38.5t26 48.5q6 12 20 12z" />
    <glyph glyph-name="bracketleft" unicode="[" horiz-adv-x="432" 
d="M74 -144l130 930q4 26 16 36t38 10h162q22 0 22 -25q0 -12 -8 -20.5t-21 -8.5h-124q-17 0 -20 -17l-123 -881q-2 -18 -2 -23q0 -12 15 -12h121q10 0 16.5 -7t6.5 -16q0 -12 -8 -21.5t-21 -9.5h-162q-22 0 -32 6.5t-10 23.5q0 13 4 35z" />
    <glyph glyph-name="backslash" unicode="\" horiz-adv-x="479" 
d="M75 791l391 -991q3 -8 3 -15q0 -13 -9 -21.5t-21 -8.5q-24 0 -35 28l-391 992q-3 7 -3 15q0 13 8.5 20.5t21.5 7.5q26 0 35 -27z" />
    <glyph glyph-name="bracketright" unicode="]" horiz-adv-x="442" 
d="M368 767l-130 -930q-4 -26 -16 -36t-38 -10h-162q-22 0 -22 25q0 12 8 20.5t21 8.5h124q17 0 20 17l123 881q2 18 2 23q0 12 -15 12h-121q-10 0 -16.5 7t-6.5 16q0 12 8 21.5t21 9.5h162q22 0 32 -6.5t10 -23.5q0 -13 -4 -35z" />
    <glyph glyph-name="asciicircum" unicode="^" horiz-adv-x="380" 
d="M264 570l-64 67l-100 -72q-11 -8 -24.5 -5t-20.5 15l159 154l101 -158q-11 -12 -26 -11.5t-25 10.5z" />
    <glyph glyph-name="underscore" unicode="_" horiz-adv-x="587" 
d="M539 -121h-494q-26 0 -26 27q0 13 7 22.5t19 9.5h493q23 0 23 -29q0 -12 -6 -21t-16 -9z" />
    <glyph glyph-name="grave" unicode="`" horiz-adv-x="465" 
d="M320 597q0 -11 -7.5 -17t-17.5 -6q-40 43 -71.5 65t-80.5 43q-8 4 -8 11q0 13 18 42.5t29 29.5q22 0 80 -71.5t58 -96.5z" />
    <glyph glyph-name="a" unicode="a" horiz-adv-x="552" 
d="M349 189l32 260q-32 26 -67 26q-70 0 -124.5 -89.5t-54.5 -209.5q0 -52 16 -80t44 -28q30 0 62.5 27.5t91.5 93.5zM424 93q0 -10 4.5 -12.5t20.5 -2.5h67q16 0 16 -13q0 -15 -72.5 -44t-107.5 -29q-24 0 -24 20q0 9 17 113l-3 1q-48 -66 -90 -100t-94 -34q-54 0 -86 43
t-32 124q0 158 86 260t194 102q35 0 71 -14q61 14 63 14q18 0 18 -18q0 -11 -24 -204t-24 -206z" />
    <glyph glyph-name="b" unicode="b" horiz-adv-x="553" 
d="M188 324l-31 -263q32 -26 68 -26q74 0 135.5 91.5t61.5 210.5q0 51 -20 79.5t-49 28.5q-35 0 -71.5 -28.5t-93.5 -92.5zM195 388l3 -1q98 134 184 134q61 0 98.5 -43.5t37.5 -123.5q0 -154 -90 -258t-222 -104q-55 0 -98.5 9.5t-43.5 24.5q0 13 42 344t42 344
q0 19 -7.5 26.5t-27.5 7.5h-40q-17 0 -17 17q0 16 19 20l98 23q32 8 41 8q28 0 28 -35q0 -23 -47 -393z" />
    <glyph glyph-name="c" unicode="c" horiz-adv-x="422" 
d="M241 66q37 0 71.5 17t56 34.5t26.5 17.5q12 0 12 -14q0 -37 -62.5 -82.5t-140.5 -45.5q-72 0 -115.5 59.5t-43.5 147.5q0 154 74.5 237.5t176.5 83.5q56 0 88.5 -22t32.5 -59q0 -68 -90 -68q0 22 -1.5 36.5t-6.5 32t-18 26.5t-33 9q-48 0 -92 -67t-44 -182
q0 -86 32 -123.5t77 -37.5z" />
    <glyph glyph-name="d" unicode="d" horiz-adv-x="570" 
d="M359 189l34 260q-32 26 -70 26q-72 0 -130 -90t-58 -209q0 -52 16 -80t44 -28q35 0 70.5 28.5t93.5 92.5zM355 125l-3 1q-98 -134 -186 -134q-59 0 -92.5 43t-33.5 124q0 158 89.5 260t199.5 102q36 0 72 -14q25 193 25 207q0 19 -7.5 26.5t-27.5 7.5h-40q-17 0 -17 17
q0 16 19 20l98 23q32 8 41 8q28 0 28 -35q0 -12 -41.5 -342t-41.5 -350q0 -10 25 -10h67q16 0 16 -13q0 -15 -73 -44.5t-108 -29.5q-24 0 -24 20q0 2 15 113z" />
    <glyph glyph-name="e" unicode="e" horiz-adv-x="451" 
d="M423 420q0 -64 -59.5 -106.5t-230.5 -101.5q4 -72 34 -109t75 -37q37 0 71.5 17t55.5 34t26 17q12 0 12 -14q0 -37 -63.5 -82.5t-144.5 -45.5q-66 0 -110 59t-44 149q0 153 75 237t177 84q60 0 93 -29t33 -72zM329 415q0 57 -55 57q-48 0 -92 -57t-49 -159q114 44 155 81
t41 78z" />
    <glyph glyph-name="f" unicode="f" horiz-adv-x="314" 
d="M65 -74l67 537h-58q-21 0 -21 21q0 26 23 26h63l15 123q23 183 190 183q60 0 94.5 -21.5t34.5 -59.5q0 -64 -89 -64q0 16 -0.5 25t-3.5 25t-9 25t-18 16.5t-29 7.5q-68 0 -80 -101l-20 -159h102q23 0 23 -20q0 -26 -21 -26h-108l-50 -413q-8 -64 -20 -110.5t-35.5 -92.5
t-65.5 -70.5t-100 -24.5q-39 0 -64 16.5t-25 49.5q0 31 16.5 49t45.5 18q14 0 30 -6q0 -77 36 -77q21 0 35.5 10.5t22.5 31.5t12 38t7 43z" />
    <glyph glyph-name="g" unicode="g" horiz-adv-x="525" 
d="M358 198l32 254q-31 25 -67 25q-70 0 -124.5 -87.5t-54.5 -203.5q0 -52 16 -79t44 -27q30 0 62.5 26.5t91.5 91.5zM425 30q-8 -67 -32.5 -118t-55 -80t-70 -48t-74 -25t-71.5 -6q-90 0 -131 34t-41 83q0 35 24.5 57.5t57.5 22.5q23 0 46 -14q-25 -34 -25 -67
q0 -32 21 -53.5t56 -21.5q77 0 134.5 55.5t73.5 168.5l16 118l-3 1q-49 -65 -90.5 -98t-93.5 -33q-54 0 -86 42.5t-32 120.5q0 155 86 253.5t194 98.5q34 0 73 -14q61 14 63 14q18 0 18 -18q0 -6 -58 -473z" />
    <glyph glyph-name="h" unicode="h" horiz-adv-x="558" 
d="M194 387h3q61 65 109.5 99.5t94.5 34.5q35 0 57.5 -20.5t22.5 -58.5q0 -21 -28 -183t-28 -169q0 -10 26 -10h64q19 0 19 -11q0 -17 -72 -47t-108 -30q-24 0 -24 18q0 9 28.5 195t28.5 200q0 33 -32 33q-31 0 -66.5 -26t-99.5 -88l-36 -297q-1 -16 -15 -20
q-47 -15 -67 -15q-10 0 -10 11q0 16 43.5 357.5t43.5 353.5q0 19 -7.5 26.5t-27.5 7.5h-40q-17 0 -17 17q0 16 19 20l100 23q32 8 41 8q28 0 28 -31q0 -13 -11.5 -103.5t-24.5 -188.5t-14 -106z" />
    <glyph glyph-name="i" unicode="i" horiz-adv-x="322" 
d="M88 14q0 16 24.5 201t24.5 200q0 6 -4.5 7.5t-20.5 1.5h-61q-13 0 -13 13q0 16 69.5 50t103.5 34q24 0 24 -21q0 -9 -24 -200.5t-24 -204.5q0 -10 4.5 -12.5t20.5 -2.5h64q16 0 16 -13q0 -15 -72.5 -44.5t-107.5 -29.5q-24 0 -24 21zM141 684q0 28 20 48t48 20t48 -20
t20 -48t-20 -48t-48 -20t-48 20t-20 48z" />
    <glyph glyph-name="j" unicode="j" horiz-adv-x="287" 
d="M79 -74q3 15 30.5 244.5t27.5 244.5q0 6 -4.5 7.5t-20.5 1.5h-61q-13 0 -13 13q0 16 69.5 50t103.5 34q24 0 24 -21q0 -8 -13 -112.5t-27.5 -220t-14.5 -116.5q-5 -49 -13 -88t-24.5 -80t-39.5 -68t-60 -44.5t-84 -17.5q-39 0 -64 16.5t-25 49.5q0 26 16 43.5t43 17.5
q17 0 34 -7q0 -37 6.5 -53.5t28.5 -16.5q35 0 52.5 30.5t28.5 92.5zM141 684q0 28 20 48t48 20t48 -20t20 -48t-20 -48t-48 -20t-48 20t-20 48z" />
    <glyph glyph-name="k" unicode="k" horiz-adv-x="521" 
d="M403 396q0 46 -43 46q-35 0 -86.5 -43.5t-92.5 -117.5l-6 -41q20 1 56 13.5t75.5 31.5t68 49.5t28.5 61.5zM190 354h2q37 83 92.5 125t114.5 42q41 0 67 -25.5t26 -63.5q0 -69 -57.5 -120.5t-144.5 -76.5q50 -94 74.5 -125t40.5 -31q5 0 46.5 8t48.5 8q11 0 11 -11
q0 -18 -56 -55t-83 -37q-65 0 -155 217l-46 -13l-18 -169q-1 -16 -15 -20q-47 -15 -67 -15q-10 0 -10 11q0 16 43.5 357.5t43.5 353.5q0 19 -7.5 26.5t-27.5 7.5h-40q-17 0 -17 17q0 16 19 20l100 23q32 8 41 8q28 0 28 -31q0 -13 -12.5 -111.5t-26.5 -205t-15 -114.5z" />
    <glyph glyph-name="l" unicode="l" horiz-adv-x="292" 
d="M242 785q0 -14 -41.5 -345.5t-41.5 -350.5q0 -10 25 -10h67q16 0 16 -13q0 -15 -73 -44.5t-108 -29.5q-24 0 -24 20q0 16 43 353t43 349q0 19 -7.5 26.5t-27.5 7.5h-40q-17 0 -17 17q0 16 19 20l98 23q32 8 41 8q28 0 28 -31z" />
    <glyph glyph-name="m" unicode="m" horiz-adv-x="843" 
d="M402 405q0 33 -32 33q-9 0 -18.5 -2.5t-20 -9t-19 -12t-22.5 -18t-22.5 -20.5t-26.5 -25t-29 -27l-36 -297q-1 -16 -15 -20q-47 -15 -67 -15q-10 0 -10 11q0 12 26.5 208.5t26.5 199.5q0 9 -5 11t-20 2h-58q-16 0 -16 13q0 16 69.5 50t103.5 34q24 0 24 -20
q0 -7 -3.5 -27t-8 -47.5t-6.5 -39.5h3q64 68 107.5 101t88.5 33q35 0 56 -20.5t21 -58.5q0 -26 -8 -55h3q64 69 107 101.5t88 32.5q35 0 57.5 -20.5t22.5 -58.5q0 -21 -28 -183t-28 -169q0 -10 26 -10h64q19 0 19 -11q0 -17 -72 -47t-108 -30q-24 0 -24 18q0 9 28.5 195
t28.5 200q0 33 -32 33q-9 0 -18.5 -2.5t-20 -9t-19 -12t-22.5 -17.5t-23 -20.5l-27 -25.5t-29 -27l-36 -297q-1 -16 -15 -20q-47 -15 -67 -15q-10 0 -10 11q0 12 26 204.5t26 197.5z" />
    <glyph glyph-name="n" unicode="n" horiz-adv-x="584" 
d="M424 521q35 0 57.5 -20.5t22.5 -58.5q0 -21 -28 -183t-28 -169q0 -10 26 -10h64q19 0 19 -11q0 -17 -72 -47t-108 -30q-24 0 -24 18q0 9 28.5 195t28.5 200q0 33 -32 33q-31 0 -66.5 -26t-99.5 -88l-36 -297q-1 -16 -15 -20q-47 -15 -67 -15q-10 0 -10 11
q0 12 26.5 208.5t26.5 199.5q0 9 -5 11t-20 2h-58q-16 0 -16 13q0 16 69.5 50t103.5 34q24 0 24 -20q0 -7 -3.5 -27t-8 -47.5t-6.5 -39.5h3q61 65 109.5 99.5t94.5 34.5z" />
    <glyph glyph-name="o" unicode="o" horiz-adv-x="519" 
d="M298 521q79 0 127.5 -48t48.5 -154q0 -147 -76.5 -237t-176.5 -90q-79 0 -127.5 48t-48.5 152q0 148 76.5 238.5t176.5 90.5zM281 472q-60 0 -100 -75t-40 -199q0 -75 27 -116t70 -41q60 0 100 75t40 199q0 76 -26 116.5t-71 40.5z" />
    <glyph glyph-name="p" unicode="p" horiz-adv-x="567" 
d="M203 324l-32 -260q32 -26 69 -26q74 0 135 90t61 209q0 51 -20 79.5t-49 28.5q-35 0 -70.5 -28.5t-93.5 -92.5zM57 -135q0 3 18 139.5t35.5 271t17.5 137.5q0 11 -26 11h-58q-16 0 -16 13q0 16 69.5 50t103.5 34q24 0 24 -19q0 -29 -17 -114l3 -1q98 134 185 134
q61 0 98.5 -43.5t37.5 -123.5q0 -157 -92.5 -259.5t-205.5 -102.5q-37 0 -73 14q-2 -12 -10 -81t-8 -76q0 -36 86 -49q16 -3 16 -20q0 -16 -13 -16l-262 -11q-13 0 -13 15q0 18 16 21q41 8 60.5 24t23.5 52z" />
    <glyph glyph-name="q" unicode="q" horiz-adv-x="515" 
d="M349 189l32 260q-32 26 -67 26q-70 0 -124.5 -89.5t-54.5 -209.5q0 -52 16 -80t44 -28q30 0 62.5 27.5t91.5 93.5zM309 -134l36 259l-3 1q-48 -66 -90 -100t-94 -34q-54 0 -86 43t-32 124q0 158 86 260t194 102q35 0 71 -14q61 14 63 14q18 0 18 -18q0 -11 -38.5 -325.5
t-38.5 -327.5q0 -36 86 -49q16 -3 16 -20q0 -16 -13 -16l-262 -11q-13 0 -13 15q0 18 16 21q41 8 60 24t24 52z" />
    <glyph glyph-name="r" unicode="r" 
d="M207 336h3q58 105 92.5 144.5t77.5 39.5q29 0 45 -19t16 -45q0 -24 -13.5 -44.5t-39.5 -29.5q-4 16 -15 25t-21 9q-23 0 -57 -37l-88 -102l-31 -250q-1 -16 -15 -20q-47 -15 -67 -15q-10 0 -10 11q0 12 26.5 208.5t26.5 199.5q0 9 -5 11t-20 2h-58q-16 0 -16 13
q0 16 69.5 50t103.5 34q24 0 24 -20q0 -14 -28 -165z" />
    <glyph glyph-name="s" unicode="s" horiz-adv-x="397" 
d="M167 -9q-61 0 -100 21t-39 61q0 28 17 45.5t45 17.5q15 0 27 -4q0 -25 1.5 -38.5t7 -29.5t19 -23t36.5 -7q32 0 56 15.5t24 46.5q0 33 -28 72.5t-61.5 71.5t-61.5 73.5t-28 76.5q0 58 44 94.5t115 36.5q62 0 94.5 -21t32.5 -58q0 -35 -24 -51t-61 -16q0 22 -1 35.5t-6 31
t-17 26t-31 8.5q-32 0 -48.5 -15t-16.5 -40q0 -20 19 -48t45.5 -57t53.5 -59.5t46 -64.5t19 -64q0 -62 -52 -99.5t-127 -37.5z" />
    <glyph glyph-name="t" unicode="t" horiz-adv-x="358" 
d="M215 464q0 -5 -11.5 -94.5t-21.5 -175.5t-10 -95q0 -21 23 -21q30 0 76 22.5t53 22.5q8 0 8 -9q0 -20 -36.5 -49t-90.5 -51t-97 -22q-15 0 -24 9t-9 23q0 9 13 113t27 215l14 111h-69q-21 0 -21 21q0 26 23 26h73l8 66q2 22 18 34l49 35q9 6 16 6q11 0 11 -11
q0 -4 -8 -65t-8 -65h119q21 0 21 -20q0 -26 -21 -26h-125z" />
    <glyph glyph-name="u" unicode="u" horiz-adv-x="587" 
d="M222 500q0 -11 -24 -189.5t-24 -193.5q0 -45 35 -45q30 0 65.5 26.5t101.5 90.5l36 294q2 21 15 23l34 8q4 1 11 2.5t13 3t9 1.5q10 0 10 -11q0 -4 -26.5 -209t-26.5 -210q0 -11 19 -11h73q16 0 16 -13q0 -15 -72.5 -45t-107.5 -30q-24 0 -24 20q0 2 16 114h-3
q-125 -134 -205 -134q-78 0 -78 90q0 23 19.5 171.5t19.5 161.5q0 6 -4.5 7.5t-20.5 1.5h-61q-13 0 -13 13q0 16 69.5 50t103.5 34q24 0 24 -21z" />
    <glyph glyph-name="v" unicode="v" horiz-adv-x="489" 
d="M171 -8q-16 0 -18 20l-42 393q-1 12 -13 12q-4 0 -36.5 -6t-37.5 -6q-11 0 -11 9q0 22 66.5 64.5t96.5 42.5q11 0 15.5 -6t6.5 -22l30 -409q52 55 109.5 143t57.5 150q0 39 -17 54.5t-53 17.5q0 33 20.5 52.5t57.5 19.5q38 0 58.5 -22.5t20.5 -62.5q0 -45 -35 -119.5
t-84 -144.5q-127 -180 -192 -180z" />
    <glyph glyph-name="w" unicode="w" horiz-adv-x="726" 
d="M151 37l-40 368q-1 12 -13 12q-4 0 -36.5 -6t-37.5 -6q-11 0 -11 9q0 22 66.5 64.5t96.5 42.5q11 0 15.5 -6t6.5 -22l31 -395q106 157 162 383q8 32 34 32q24 0 27 -33l29 -396q44 46 97 136t53 146q0 47 -21 65t-49 18q0 34 19.5 53t52.5 19q85 0 85 -86
q0 -88 -106 -252q-127 -191 -175 -191q-28 0 -33 45l-25 242q-34 -84 -97 -185.5t-98 -101.5q-28 0 -33 45z" />
    <glyph glyph-name="x" unicode="x" horiz-adv-x="526" 
d="M297 280l75 -176q6 -13 19 -13q8 0 40.5 22.5t39.5 22.5q11 0 11 -13q0 -27 -48 -79t-92 -52q-17 0 -28 26l-70 173l-70 -119q-18 -29 -28 -42.5t-29 -25.5t-44 -12q-31 0 -48 18t-17 43q0 54 59 54q0 -38 27 -38t53 43l76 128l-71 158q-5 11 -11 11q-7 0 -47 -23.5
t-47 -23.5q-11 0 -11 11q0 28 60 88t91 60q11 0 16 -4.5t11 -19.5l64 -171l82 133q38 62 91 62q28 0 44.5 -19.5t16.5 -44.5q0 -23 -16 -40.5t-41 -17.5q-10 35 -34 35q-28 0 -61 -53z" />
    <glyph glyph-name="y" unicode="y" horiz-adv-x="466" 
d="M173 -41l-79 446q-3 12 -13 12q-5 0 -36 -5.5t-38 -5.5q-11 0 -11 10q0 21 66.5 63t94.5 42q13 0 18 -6t7 -22l56 -452q39 76 60.5 123t41 105t19.5 97q0 79 -70 79q0 36 21 56t58 20q35 0 56.5 -21.5t21.5 -64.5q0 -80 -79.5 -244.5t-188.5 -302t-178 -137.5
q-85 0 -85 70q0 26 18 45t41 19q15 0 28 -5q0 -39 5 -51t21 -12q51 0 145 142z" />
    <glyph glyph-name="z" unicode="z" horiz-adv-x="462" 
d="M447 144q-49 -95 -79.5 -123.5t-71.5 -28.5q-37 0 -95.5 21.5t-81.5 21.5q-36 0 -61 -32q-9 -12 -22 -12q-26 0 -26 21q0 13 17 34l302 383h-172q-9 0 -16.5 -1.5t-14 -6.5t-11 -8t-10.5 -12.5t-8 -13t-8.5 -16.5t-8.5 -16q-7 -14 -17 -14q-15 0 -15 15q0 4 3 14l3 11
q24 83 51.5 111.5t72.5 28.5q39 0 103 -12t83 -12q28 0 41 13q15 15 30 15q10 0 16 -6t6 -14t-10 -21l-320 -393h177q36 0 59 13.5t54 52.5q8 11 18 11q15 0 15 -13q0 -5 -3 -11z" />
    <glyph glyph-name="braceleft" unicode="{" horiz-adv-x="470" 
d="M46 296q-16 0 -16 12q0 14 16 14q36 0 66 8t55 33t27 65l16 238q4 67 42.5 111.5t119.5 44.5q98 0 98 -28q0 -15 -19 -15q-3 0 -17.5 2.5t-30.5 2.5q-54 0 -76.5 -31.5t-26.5 -92.5l-16 -235q-1 -18 -5.5 -33t-13.5 -26t-15.5 -18.5t-20.5 -14.5t-19.5 -9.5t-21.5 -8
t-18 -6.5q3 -1 14.5 -5.5t16.5 -7l15 -7.5t15 -11t11.5 -14t9 -18.5t2.5 -23.5q0 -18 -29.5 -156t-29.5 -158q0 -37 20.5 -55.5t69.5 -18.5q6 0 21 1t19 1q13 0 13 -13q0 -14 -34.5 -22t-69.5 -8q-128 0 -128 114q0 25 28.5 158t28.5 147q0 42 -35 63t-82 21z" />
    <glyph glyph-name="bar" unicode="|" horiz-adv-x="260" 
d="M40 -212l114 1000q3 31 34 31q13 0 22.5 -8.5t9.5 -24.5v-5l-113 -999q-1 -14 -11.5 -22t-23.5 -8t-22.5 8.5t-9.5 22.5v5z" />
    <glyph glyph-name="braceright" unicode="}" horiz-adv-x="480" 
d="M434 319q16 0 16 -12q0 -14 -16 -14q-36 0 -66 -8t-55 -33t-27 -65l-16 -238q-4 -67 -42.5 -111.5t-119.5 -44.5q-98 0 -98 28q0 15 19 15q3 0 17.5 -2.5t30.5 -2.5q54 0 76.5 31.5t26.5 92.5l16 235q1 18 5.5 33t13.5 26t15.5 18.5t20.5 14.5t19.5 9.5t21.5 8t18 6.5
q-3 1 -14.5 5.5t-16.5 7l-15 7.5t-15 11t-11.5 14t-9 18.5t-2.5 23.5q0 18 29.5 156t29.5 158q0 37 -20.5 55.5t-69.5 18.5q-6 0 -21 -1t-19 -1q-13 0 -13 13q0 14 34.5 22t69.5 8q128 0 128 -114q0 -25 -28.5 -158t-28.5 -147q0 -42 35 -63t82 -21z" />
    <glyph glyph-name="asciitilde" unicode="~" horiz-adv-x="477" 
d="M294 400q26 0 38 2t27 11t23 30.5t15 58.5q13 0 24 -15.5t11 -48.5q0 -57 -39 -89.5t-93 -32.5q-15 0 -54 1.5t-55 1.5q-50 0 -75 -18.5t-28 -83.5q-14 0 -27 16t-13 49q0 57 39 89.5t93 32.5q15 0 56.5 -2t57.5 -2z" />
    <glyph glyph-name="nbspace" unicode="&#xa0;" horiz-adv-x="702" 
 />
    <glyph glyph-name="exclamdown" unicode="&#xa1;" horiz-adv-x="252" 
d="M162 292q24 -1 24 -34q0 -10 -9.5 -214.5t-11.5 -230.5q-1 -19 -8 -26.5t-24 -10.5q-66 -11 -75 -11q-17 0 -17 18q0 6 19 113.5t40 226t23 128.5q7 41 39 41zM244 451q0 -30 -20.5 -51t-49.5 -21q-30 0 -51 21t-21 51q0 29 21 49.5t51 20.5q29 0 49.5 -20.5t20.5 -49.5z
" />
    <glyph glyph-name="cent" unicode="&#xa2;" horiz-adv-x="431" 
d="M250 73q38 0 74 19t58 38t27 19q13 0 13 -16q0 -36 -54.5 -82.5t-126.5 -56.5l-13 -117q-3 -23 -24 -23t-21 23q0 25 12 116q-68 7 -108 71t-40 156q0 151 62 241t154 109l12 101q3 23 24 23t21 -23q0 -11 -10 -96q56 -1 89 -25t33 -64q0 -75 -93 -75q0 24 -1.5 40
t-6.5 35.5t-18.5 29.5t-34.5 10q-49 0 -95 -74t-46 -201q0 -96 33 -137t80 -41z" />
    <glyph glyph-name="sterling" unicode="&#xa3;" horiz-adv-x="558" 
d="M404 245h-176l-21 -192h99q33 0 60 8t43.5 19.5t31 31t22 34.5t16.5 38q5 14 19 14q15 0 15 -15q0 -4 -25 -162q-4 -21 -30 -21h-433q-13 0 -13 15q0 18 16 21q51 7 65 20.5t19 52.5l15 136h-69q-26 0 -26 22q0 10 7 17.5t19 7.5h75l7 79q10 108 74.5 156t149.5 48
q40 0 73 -6.5t60 -26.5t27 -53q0 -29 -26.5 -51t-60.5 -22q-4 46 -27.5 79.5t-66.5 33.5q-46 0 -69.5 -30t-30.5 -107l-10 -100h170q23 0 23 -23q0 -10 -6 -17t-16 -7z" />
    <glyph glyph-name="currency" unicode="&#xa4;" horiz-adv-x="839" 
d="M100 366q0 117 76 206l-54 54q-10 10 -4.5 24t18 18t23.5 -4l54 -54q88 75 206 75q113 0 202 -73l56 56q10 11 24 5.5t18 -18t-4 -23.5l-57 -57q80 -90 80 -209q0 -118 -75 -206l52 -52q13 -13 7.5 -27t-19 -16.5t-25.5 6.5l-53 52q-89 -76 -206 -76q-122 0 -211 78
l-55 -55q-12 -13 -26 -7.5t-17 19t6 25.5l56 56q-72 88 -72 203zM168 367q0 -106 73 -183t177 -77t178 77t74 183t-74 183t-178 77t-177 -77t-73 -183z" />
    <glyph glyph-name="yen" unicode="&#xa5;" horiz-adv-x="654" 
d="M497 203h-144q-10 -80 -10 -113q0 -24 24 -33.5t92 -18.5q14 -2 14 -20t-14 -18h-342q-12 0 -12 15q0 21 18 23q63 6 89 18t30 48l11 99h-135q-26 0 -26 21q0 10 7 17t19 7h133q-2 32 -9 62h-158q-26 0 -26 21q0 10 7 17t19 7h144q-38 84 -67 118t-75 34q-10 0 -22 -2
t-15 -2q-15 0 -15 15q0 19 64.5 38t98.5 19q5 0 16 -9t27 -30.5t32 -52t31.5 -80t25.5 -107.5h4q15 44 32.5 85t42.5 88.5t54.5 76.5t56.5 29q44 0 81 -8.5t37 -21.5q0 -15 -21 -17q-67 -7 -115 -46.5t-98 -126.5h151q23 0 23 -22q0 -9 -6 -16t-16 -7h-175q-10 -26 -19 -62
h135q23 0 23 -22q0 -9 -6 -16t-16 -7z" />
    <glyph glyph-name="brokenbar" unicode="&#xa6;" horiz-adv-x="260" 
d="M104 359l50 429q3 31 34 31q13 0 22.5 -8.5t9.5 -24.5v-5l-49 -428q-1 -14 -11.5 -22t-23.5 -8t-22.5 8.5t-9.5 22.5v5zM40 -211l50 429q3 31 34 31q13 0 22.5 -8.5t9.5 -24.5v-5l-49 -428q-1 -14 -11.5 -22t-23.5 -8t-22.5 8.5t-9.5 22.5v5z" />
    <glyph glyph-name="section" unicode="&#xa7;" horiz-adv-x="371" 
d="M188 206q64 4 64 64q0 33 -26 81.5t-57 91t-57 93t-26 85.5q0 59 41.5 95t111.5 36q62 0 94.5 -21t32.5 -58q0 -32 -24.5 -47.5t-60.5 -15.5q-1 20 -2 30t-6.5 29t-19.5 28.5t-36 9.5q-25 0 -39.5 -15t-14.5 -40q0 -30 44 -98t88 -144.5t44 -128.5t-26.5 -82t-65.5 -30
q-44 0 -59 37zM155 319q-41 -22 -41 -72q0 -30 45 -97.5t90 -141t45 -118.5q0 -62 -51 -99.5t-125 -37.5q-61 0 -100 21t-39 61q0 28 17 45.5t45 17.5q15 0 27 -4q-5 -18 -5 -36q0 -62 71 -62q30 0 53.5 15.5t23.5 46.5q0 32 -28.5 82.5t-62 95.5t-62 99.5t-28.5 94.5
q0 45 25 74t62 29q21 0 38 -14z" />
    <glyph glyph-name="dieresis" unicode="&#xa8;" horiz-adv-x="500" 
d="M82 662q0 28 20 48t48 20t48 -20t20 -48t-20 -48t-48 -20t-48 20t-20 48zM282 662q0 28 20 48t48 20t48 -20t20 -48t-20 -48t-48 -20t-48 20t-20 48z" />
    <glyph glyph-name="copyright" unicode="&#xa9;" horiz-adv-x="839" 
d="M123 371q0 -123 86.5 -212t209.5 -89t210.5 89t87.5 212t-88 212.5t-210 89.5t-209 -89.5t-87 -212.5zM70 371q0 144 102.5 247t246.5 103t247 -103t103 -247t-103 -246.5t-247 -102.5q-145 0 -247 102t-102 247zM558 194q-69 -20 -131 -20q-99 0 -153.5 52.5
t-54.5 146.5q0 91 62.5 148t168.5 57q46 0 98 -12q8 -3 8 -11l1 -96q0 -11 -17 -11q-14 0 -14 13q-4 31 -25.5 54.5t-66.5 23.5q-52 0 -91.5 -39.5t-39.5 -120.5q0 -74 34.5 -119.5t91.5 -45.5q54 0 80.5 21.5t38.5 60.5q3 8 12 8q5 0 9 -3t3 -8l-7 -89q0 -8 -7 -10z" />
    <glyph glyph-name="ordfeminine" unicode="&#xaa;" horiz-adv-x="424" 
d="M259 511l23 179q-23 19 -51 19q-48 0 -83.5 -56.5t-35.5 -142.5q0 -71 41 -71q42 0 106 72zM368 740q0 -12 -19 -156t-19 -146q0 -8 19 -8h49q11 0 11 -10q0 -11 -61 -32.5t-87 -21.5q-17 0 -17 15q0 3 2.5 20t5.5 38t4 25l-2 1q-36 -49 -66.5 -73.5t-68.5 -24.5
q-40 0 -64.5 32t-24.5 90q0 115 63.5 189.5t143.5 74.5q28 0 52 -10q1 0 31 5t35 5q13 0 13 -13z" />
    <glyph glyph-name="guillemotleft" unicode="&#xab;" horiz-adv-x="490" 
d="M128 246l72 -194q4 -12 4 -18q0 -9 -7.5 -14.5t-16.5 -5.5q-16 0 -24 13l-141 224l222 226q8 8 18 8q9 0 15.5 -6t6.5 -14q0 -9 -6 -18zM311 246l72 -194q4 -12 4 -18q0 -9 -7.5 -14.5t-16.5 -5.5q-16 0 -24 13l-141 224l222 226q8 8 18 8q9 0 15.5 -6t6.5 -14
q0 -9 -6 -18z" />
    <glyph glyph-name="logicalnot" unicode="&#xac;" horiz-adv-x="500" 
d="M85 376h356v-167q0 -16 -8.5 -25t-19.5 -9t-20 9t-9 25v114h-298q-12 0 -18.5 7.5t-6.5 18.5t6.5 19t17.5 8z" />
    <glyph glyph-name="uni00AD" unicode="&#xad;" horiz-adv-x="350" 
d="M279 301l-195 -40q-10 -2 -13 -2q-17 0 -27 10.5t-10 24.5q0 29 32 36l212 43q1 0 3 0.5t3 0.5q13 0 22 -11t9 -25q0 -30 -36 -37z" />
    <glyph glyph-name="registered" unicode="&#xae;" horiz-adv-x="839" 
d="M70 371q0 144 102.5 247t246.5 103t247 -103t103 -247t-103 -246.5t-247 -102.5q-145 0 -247 102t-102 247zM513 204l-118 151q-2 4 -2 6q0 10 16 10q36 0 61.5 24t25.5 60q0 80 -91 80q-23 0 -28.5 -4t-5.5 -20v-146q0 -81 3 -105q4 -26 12 -34.5t39 -14.5q11 -3 11 -14
t-9 -11h-186q-8 0 -8 10q0 12 10 15q35 5 45 14t12 35q4 32 4 106v14q0 82 -4 114q-2 27 -10.5 35t-43.5 14q-10 1 -10 13q0 10 8 10h182q21 0 42 -3.5t46.5 -13.5t41.5 -32.5t16 -55.5q0 -76 -105 -99l85 -98q46 -53 99 -81q66 84 66 188q0 123 -88 212.5t-210 89.5
t-209 -89.5t-87 -212.5t86.5 -212t209.5 -89q126 0 216 95q-91 0 -122 39z" />
    <glyph glyph-name="macron" unicode="&#xaf;" horiz-adv-x="478" 
d="M356 636h-212q-26 0 -26 26q0 11 6.5 19t18.5 8h209q15 0 22.5 -7.5t7.5 -18.5t-7 -19t-19 -8z" />
    <glyph glyph-name="degree" unicode="&#xb0;" horiz-adv-x="348" 
d="M40 601q0 59 38 99.5t97 40.5q58 0 96 -40.5t38 -99.5t-38 -100t-96 -41q-62 0 -98.5 40.5t-36.5 100.5zM76 601q0 -43 27.5 -69.5t71.5 -26.5q43 0 70 26.5t27 69.5q0 42 -27 68.5t-70 26.5q-44 0 -71.5 -26.5t-27.5 -68.5z" />
    <glyph glyph-name="plusminus" unicode="&#xb1;" horiz-adv-x="635" 
d="M518 17h-444q-12 0 -18 7.5t-6 17.5q0 12 8.5 20t21.5 8h443q10 0 15.5 -8t5.5 -17q0 -12 -7 -20t-19 -8zM559 276h-207l-21 -154q-3 -26 -28 -26t-25 22q0 6 10.5 80.5t10.5 77.5h-202q-12 0 -19 7.5t-7 16.5q0 12 8.5 20.5t21.5 8.5h204l19 156q3 26 29 26q24 0 24 -25
q0 -4 -4.5 -40.5t-9.5 -75t-5 -41.5h202q11 0 18 -7t7 -17q0 -29 -26 -29z" />
    <glyph glyph-name="twosuperior" unicode="&#xb2;" 
d="M332 374h-297q-14 0 -14 12q0 13 11 19q110 76 160.5 130t50.5 98q0 27 -18 41.5t-48 14.5q-55 0 -77 -42q-4 -9 -16 -9q-14 0 -14 17q0 39 42.5 68t102.5 29q65 0 102.5 -26t37.5 -79t-48.5 -95.5t-164.5 -109.5l207 8q8 0 8 -9l-11 -55q-2 -12 -14 -12z" />
    <glyph glyph-name="threesuperior" unicode="&#xb3;" 
d="M211 565q62 -7 94 -31t32 -61q0 -51 -51 -79t-125 -28q-46 0 -88 16.5t-42 34.5t17 18q7 0 33.5 -12.5t61.5 -12.5q43 0 66 17t23 48q0 27 -27.5 46.5t-70.5 23.5q-9 1 -14 5.5t-5 9.5q0 14 17 17q38 5 65.5 15t40 23t17.5 23t5 19q0 19 -18.5 30.5t-48.5 11.5
q-52 0 -77 -37q-5 -9 -14 -9q-17 0 -17 15q0 10 7 23t22.5 27.5t46 24t71.5 9.5q48 0 87 -22.5t39 -62.5q0 -39 -38 -65.5t-109 -36.5z" />
    <glyph glyph-name="acute" unicode="&#xb4;" horiz-adv-x="500" 
d="M168 597q0 25 58 96.5t80 71.5q11 0 29 -29.5t18 -42.5q0 -7 -8 -11q-49 -21 -80.5 -43t-71.5 -65q-10 0 -17.5 6t-7.5 17z" />
    <glyph glyph-name="mu" unicode="&#xb5;" horiz-adv-x="577" 
d="M138 4q-11 -47 -11 -88q0 -85 55 -122q0 -13 -30 -24.5t-54 -11.5q-52 0 -52 37q0 29 39 316.5t39 297.5q0 15 -25 15h-61q-13 0 -13 13q0 16 69.5 50t103.5 34q24 0 24 -21q0 -11 -24 -189.5t-24 -193.5q0 -45 35 -45q30 0 65.5 26.5t101.5 90.5l36 294q2 21 15 23l34 8
q4 1 11 2.5t13 3t9 1.5q10 0 10 -11q0 -4 -26.5 -209t-26.5 -210q0 -11 19 -11h73q16 0 16 -13q0 -15 -72.5 -45t-107.5 -30q-24 0 -24 20q0 2 16 114h-3q-61 -65 -106 -99.5t-87 -34.5q-23 0 -37 12z" />
    <glyph glyph-name="mu" unicode="&#x3bc;" horiz-adv-x="577" 
d="M138 4q-11 -47 -11 -88q0 -85 55 -122q0 -13 -30 -24.5t-54 -11.5q-52 0 -52 37q0 29 39 316.5t39 297.5q0 15 -25 15h-61q-13 0 -13 13q0 16 69.5 50t103.5 34q24 0 24 -21q0 -11 -24 -189.5t-24 -193.5q0 -45 35 -45q30 0 65.5 26.5t101.5 90.5l36 294q2 21 15 23l34 8
q4 1 11 2.5t13 3t9 1.5q10 0 10 -11q0 -4 -26.5 -209t-26.5 -210q0 -11 19 -11h73q16 0 16 -13q0 -15 -72.5 -45t-107.5 -30q-24 0 -24 20q0 2 16 114h-3q-61 -65 -106 -99.5t-87 -34.5q-23 0 -37 12z" />
    <glyph glyph-name="paragraph" unicode="&#xb6;" horiz-adv-x="605" 
d="M479 500l-60 -488q-14 -119 -75.5 -175.5t-154.5 -56.5q-65 0 -105.5 29.5t-40.5 72.5q0 39 23 59t55 20q21 0 37 -9q-18 -27 -18 -63q0 -29 19 -47.5t50 -18.5q54 0 87.5 42.5t42.5 116.5l31 252q-147 8 -202.5 58t-55.5 149q0 102 84.5 155t224.5 53h146q18 0 18 -18
q0 -16 -14 -19q-52 -10 -68.5 -31t-23.5 -81z" />
    <glyph glyph-name="periodcentered" unicode="&#xb7;" horiz-adv-x="250" 
d="M54 334q0 30 20.5 51t49.5 21q30 0 51 -21t21 -51q0 -29 -21 -49.5t-51 -20.5q-29 0 -49.5 20.5t-20.5 49.5z" />
    <glyph glyph-name="cedilla" unicode="&#xb8;" horiz-adv-x="500" 
d="M345 -155q0 -51 -34 -77.5t-85 -26.5q-40 0 -67.5 14.5t-27.5 43.5q0 21 14 36q35 -21 78 -21q56 0 56 39q0 27 -25 42t-67 15q-4 7 -4 13q0 23 49 23q51 0 82 -29.5t31 -71.5z" />
    <glyph glyph-name="onesuperior" unicode="&#xb9;" 
d="M289 738q0 -4 -13.5 -126t-13.5 -141q0 -34 22.5 -47.5t79.5 -21.5q10 -1 10 -13q0 -15 -13 -15h-303q-13 0 -13 11q0 15 17 17q57 6 82.5 23.5t31.5 60.5q4 26 11.5 98.5t7.5 81.5q0 13 -18 13h-102q-13 0 -13 13t11 16q19 5 107 23.5t95 18.5q14 0 14 -12z" />
    <glyph glyph-name="ordmasculine" unicode="&#xba;" horiz-adv-x="391" 
d="M224 753q60 0 96 -35t36 -112q0 -108 -57.5 -174t-132.5 -66q-59 0 -95 35t-36 111q0 109 57 175t132 66zM207 712q-38 0 -62.5 -52.5t-24.5 -139.5q0 -52 17 -80.5t44 -28.5q38 0 62.5 52.5t24.5 139.5q0 53 -16.5 81t-44.5 28z" />
    <glyph glyph-name="guillemotright" unicode="&#xbb;" horiz-adv-x="475" 
d="M342 253l-72 194q-4 12 -4 18q0 9 7.5 14.5t16.5 5.5q16 0 24 -13l141 -224l-222 -226q-8 -8 -18 -8q-9 0 -15.5 6t-6.5 14q0 9 6 18zM159 253l-72 194q-4 12 -4 18q0 9 7.5 14.5t16.5 5.5q16 0 24 -13l141 -224l-222 -226q-8 -8 -18 -8q-9 0 -15.5 6t-6.5 14q0 9 6 18z
" />
    <glyph glyph-name="onequarter" unicode="&#xbc;" horiz-adv-x="990" 
d="M289 738q0 -4 -13.5 -126t-13.5 -141q0 -34 22.5 -47.5t79.5 -21.5q10 -1 10 -13q0 -15 -13 -15h-303q-13 0 -13 11q0 15 17 17q57 6 82.5 23.5t31.5 60.5q4 26 11.5 98.5t7.5 81.5q0 13 -18 13h-102q-13 0 -13 13t11 16q19 5 107 23.5t95 18.5q14 0 14 -12zM239 19
l466 746q13 20 32 20q11 0 19.5 -8t8.5 -19q0 -9 -4 -16l-466 -750q-14 -23 -34 -23q-12 0 -20 8.5t-8 21.5q0 12 6 20zM882 140h75q8 0 8 -6q0 -7 -13 -36q-3 -8 -15 -8h-59l-10 -77q-2 -12 -14 -12h-57q-12 0 -12 10q0 9 4 33l5 46h-185q-15 0 -15 12q0 10 9 20l237 240
q9 9 20 9h40q10 0 10 -8q0 -10 -2 -24zM674 140h125l18 144z" />
    <glyph glyph-name="onehalf" unicode="&#xbd;" horiz-adv-x="1010" 
d="M289 738q0 -4 -13.5 -126t-13.5 -141q0 -34 22.5 -47.5t79.5 -21.5q10 -1 10 -13q0 -15 -13 -15h-303q-13 0 -13 11q0 15 17 17q57 6 82.5 23.5t31.5 60.5q4 26 11.5 98.5t7.5 81.5q0 13 -18 13h-102q-13 0 -13 13t11 16q19 5 107 23.5t95 18.5q14 0 14 -12zM239 19
l466 746q13 20 32 20q11 0 19.5 -8t8.5 -19q0 -9 -4 -16l-466 -750q-14 -23 -34 -23q-12 0 -20 8.5t-8 21.5q0 12 6 20zM922 0h-297q-14 0 -14 12q0 13 11 19q110 76 160.5 130t50.5 98q0 27 -18 41.5t-48 14.5q-55 0 -77 -42q-4 -9 -16 -9q-14 0 -14 17q0 39 42.5 68
t102.5 29q65 0 102.5 -26t37.5 -79t-48.5 -95.5t-164.5 -109.5l207 8q8 0 8 -9l-11 -55q-2 -12 -14 -12z" />
    <glyph glyph-name="threequarters" unicode="&#xbe;" horiz-adv-x="990" 
d="M211 565q62 -7 94 -31t32 -61q0 -51 -51 -79t-125 -28q-46 0 -88 16.5t-42 34.5t17 18q7 0 33.5 -12.5t61.5 -12.5q43 0 66 17t23 48q0 27 -27.5 46.5t-70.5 23.5q-9 1 -14 5.5t-5 9.5q0 14 17 17q38 5 65.5 15t40 23t17.5 23t5 19q0 19 -18.5 30.5t-48.5 11.5
q-52 0 -77 -37q-5 -9 -14 -9q-17 0 -17 15q0 10 7 23t22.5 27.5t46 24t71.5 9.5q48 0 87 -22.5t39 -62.5q0 -39 -38 -65.5t-109 -36.5zM239 19l466 746q13 20 32 20q11 0 19.5 -8t8.5 -19q0 -9 -4 -16l-466 -750q-14 -23 -34 -23q-12 0 -20 8.5t-8 21.5q0 12 6 20zM882 140
h75q8 0 8 -6q0 -7 -13 -36q-3 -8 -15 -8h-59l-10 -77q-2 -12 -14 -12h-57q-12 0 -12 10q0 9 4 33l5 46h-185q-15 0 -15 12q0 10 9 20l237 240q9 9 20 9h40q10 0 10 -8q0 -10 -2 -24zM674 140h125l18 144z" />
    <glyph glyph-name="questiondown" unicode="&#xbf;" horiz-adv-x="376" 
d="M211 -191q73 0 73 114q18 4 27 4q32 0 49 -16t17 -42q0 -44 -48 -74t-120 -30q-81 0 -128.5 40t-47.5 113q0 48 17 86t42 59t55 40t55 32.5t42 33t17 43.5q0 18 -7.5 31t-16.5 19t-16.5 14t-7.5 16q0 14 24 14q30 0 59.5 -24t29.5 -65q0 -43 -20.5 -74.5t-49 -52
t-57.5 -42t-49.5 -56.5t-20.5 -83q0 -45 22 -72.5t60 -27.5zM348 451q0 -30 -20.5 -51t-49.5 -21q-30 0 -51 21t-21 51q0 29 21 49.5t51 20.5q29 0 49.5 -20.5t20.5 -49.5z" />
    <glyph glyph-name="Agrave" unicode="&#xc0;" horiz-adv-x="664" 
d="M464 144l-24 104h-242l-80 -163q-5 -10 -5 -16q0 -14 20.5 -21t67.5 -12q12 0 12 -17q0 -19 -19 -19h-217q-17 0 -17 15q0 18 17 21q38 7 50.5 20t42.5 70l275 521l-21 70q-3 9 -3 14q0 14 14 14h89l144 -610q9 -38 15 -53.5t21.5 -28.5t44.5 -17q14 -1 14 -18
q0 -18 -14 -18h-251q-11 0 -11 14q0 20 17 22q40 3 55.5 13t15.5 32q0 13 -11 63zM362 578l-138 -278h205l-63 278h-4zM462 789q-24 0 -82 18t-91 37q-13 6 -13 17q0 10 21 35q26 32 36 32q7 0 15 -8t19.5 -21t44.5 -34.5t81 -42.5q0 -33 -31 -33z" />
    <glyph glyph-name="Aacute" unicode="&#xc1;" horiz-adv-x="664" 
d="M464 144l-24 104h-242l-80 -163q-5 -10 -5 -16q0 -14 20.5 -21t67.5 -12q12 0 12 -17q0 -19 -19 -19h-217q-17 0 -17 15q0 18 17 21q38 7 50.5 20t42.5 70l275 521l-21 70q-3 9 -3 14q0 14 14 14h89l144 -610q9 -38 15 -53.5t21.5 -28.5t44.5 -17q14 -1 14 -18
q0 -18 -14 -18h-251q-11 0 -11 14q0 20 17 22q40 3 55.5 13t15.5 32q0 13 -11 63zM362 578l-138 -278h205l-63 278h-4zM314 789q-31 0 -31 33q48 21 81 42.5t44.5 34.5t19.5 21t15 8q10 0 36 -32q21 -25 21 -35q0 -11 -13 -17q-33 -19 -91 -37t-82 -18z" />
    <glyph glyph-name="Acircumflex" unicode="&#xc2;" horiz-adv-x="664" 
d="M464 144l-24 104h-242l-80 -163q-5 -10 -5 -16q0 -14 20.5 -21t67.5 -12q12 0 12 -17q0 -19 -19 -19h-217q-17 0 -17 15q0 18 17 21q38 7 50.5 20t42.5 70l275 521l-21 70q-3 9 -3 14q0 14 14 14h89l144 -610q9 -38 15 -53.5t21.5 -28.5t44.5 -17q14 -1 14 -18
q0 -18 -14 -18h-251q-11 0 -11 14q0 20 17 22q40 3 55.5 13t15.5 32q0 13 -11 63zM362 578l-138 -278h205l-63 278h-4zM470 789l-78 40l-102 -40q-9 -3 -17 -3q-22 0 -30 17l161 117l117 -117q-14 -19 -35 -19q-8 0 -16 5z" />
    <glyph glyph-name="Atilde" unicode="&#xc3;" horiz-adv-x="664" 
d="M464 144l-24 104h-242l-80 -163q-5 -10 -5 -16q0 -14 20.5 -21t67.5 -12q12 0 12 -17q0 -19 -19 -19h-217q-17 0 -17 15q0 18 17 21q38 7 50.5 20t42.5 70l275 521l-21 70q-3 9 -3 14q0 14 14 14h89l144 -610q9 -38 15 -53.5t21.5 -28.5t44.5 -17q14 -1 14 -18
q0 -18 -14 -18h-251q-11 0 -11 14q0 20 17 22q40 3 55.5 13t15.5 32q0 13 -11 63zM362 578l-138 -278h205l-63 278h-4zM400 809l-56 26q-20 9 -37 9q-40 0 -43 -53l-25 6q-5 12 -5 30q0 35 23.5 60.5t61.5 25.5q25 0 50 -11l57 -24q20 -9 39 -9q41 0 44 52l25 -6
q5 -13 5 -30q0 -35 -23 -62t-62 -27q-25 0 -54 13z" />
    <glyph glyph-name="Adieresis" unicode="&#xc4;" horiz-adv-x="664" 
d="M464 144l-24 104h-242l-80 -163q-5 -10 -5 -16q0 -14 20.5 -21t67.5 -12q12 0 12 -17q0 -19 -19 -19h-217q-17 0 -17 15q0 18 17 21q38 7 50.5 20t42.5 70l275 521l-21 70q-3 9 -3 14q0 14 14 14h89l144 -610q9 -38 15 -53.5t21.5 -28.5t44.5 -17q14 -1 14 -18
q0 -18 -14 -18h-251q-11 0 -11 14q0 20 17 22q40 3 55.5 13t15.5 32q0 13 -11 63zM362 578l-138 -278h205l-63 278h-4zM224 846q0 28 20 48t48 20t48 -20t20 -48t-20 -48t-48 -20t-48 20t-20 48zM424 846q0 28 20 48t48 20t48 -20t20 -48t-20 -48t-48 -20t-48 20t-20 48z
" />
    <glyph glyph-name="Aring" unicode="&#xc5;" horiz-adv-x="664" 
d="M464 144l-24 104h-242l-80 -163q-5 -10 -5 -16q0 -14 20.5 -21t67.5 -12q12 0 12 -17q0 -19 -19 -19h-217q-17 0 -17 15q0 18 17 21q38 7 50.5 20t42.5 70l275 521l-21 70q-3 9 -3 14q0 14 14 14h89l144 -610q9 -38 15 -53.5t21.5 -28.5t44.5 -17q14 -1 14 -18
q0 -18 -14 -18h-251q-11 0 -11 14q0 20 17 22q40 3 55.5 13t15.5 32q0 13 -11 63zM362 578l-138 -278h205l-63 278h-4zM296 849q0 39 27 65.5t70 26.5q42 0 68.5 -27t26.5 -65q0 -40 -26.5 -66.5t-68.5 -26.5q-45 0 -71 26.5t-26 66.5zM338 846q0 -23 15 -37.5t39 -14.5
q23 0 38 14.5t15 37.5t-15 37.5t-38 14.5q-24 0 -39 -14.5t-15 -37.5z" />
    <glyph glyph-name="AE" unicode="&#xc6;" horiz-adv-x="883" 
d="M389 171l21 185h-201l-138 -239q-23 -39 -23 -51q0 -21 87 -30q12 0 12 -17q0 -19 -19 -19h-225q-17 0 -17 15q0 18 17 21q38 7 54 21.5t49 68.5l366 603q6 10 10.5 13t16.5 3h426q12 0 17 -2.5t5 -12.5q0 -17 -13 -160q-1 -16 -17 -16q-15 0 -17 18q-2 57 -27.5 89.5
t-72.5 32.5h-152l-31 -281q43 -5 88 -5q29 0 44 1.5t35.5 9t32.5 25t19 46.5q3 14 18 14q14 0 14 -14q0 -7 -9 -101t-9 -103q0 -15 -15 -15q-17 0 -17 18q0 25 -9.5 40.5t-29 21.5t-34.5 7.5t-41 1.5q-40 0 -94 -4q-1 -12 -8.5 -77.5t-14.5 -125t-7 -62.5q0 -25 26 -33
t102 -8q38 0 67.5 11t52 35.5t33.5 40t29 47.5q8 12 20 12q14 0 14 -11t-36 -164q-5 -21 -30 -21h-467q-16 0 -16 14q0 19 17 22q50 6 69 30.5t28 104.5zM411 701l-172 -293h177q29 222 29 262q0 17 -6.5 22t-27.5 9z" />
    <glyph glyph-name="Ccedilla" unicode="&#xc7;" horiz-adv-x="681" 
d="M594 33q-120 -42 -227 -42q-146 0 -234 83t-88 248q0 92 25.5 169t74.5 135.5t128 91.5t180 33q100 0 186 -23q11 -4 11 -17q0 -6 -10.5 -88t-13.5 -97q-3 -14 -17 -14q-19 0 -20 16q-2 27 -5 46.5t-14 45t-28 41.5t-48 27t-74 11q-107 0 -185.5 -97t-78.5 -268
q0 -132 54.5 -209t165.5 -77q83 0 133 39.5t89 114.5q8 14 21 14q14 0 14 -15q0 -3 -5.5 -36.5t-11.5 -70t-7 -41.5q-2 -15 -15 -20zM460 -155q0 -51 -34 -77.5t-85 -26.5q-40 0 -67.5 14.5t-27.5 43.5q0 21 14 36q35 -21 78 -21q56 0 56 39q0 27 -25 42t-67 15q-4 7 -4 13
q0 23 49 23q51 0 82 -29.5t31 -71.5z" />
    <glyph glyph-name="Egrave" unicode="&#xc8;" horiz-adv-x="619" 
d="M494 0h-467q-16 0 -16 14q0 19 17 22q50 6 69 30.5t28 104.5q56 476 56 499q0 18 -13.5 25t-58.5 14q-14 2 -14 19t14 17h452q12 0 17 -2.5t5 -12.5q0 -17 -13 -160q-1 -16 -17 -16q-15 0 -17 18q-2 57 -27.5 89.5t-72.5 32.5h-152l-31 -281q43 -5 88 -5q29 0 44 1.5
t35.5 9t32.5 25t19 46.5q3 14 18 14q14 0 14 -14q0 -7 -9 -101t-9 -103q0 -15 -15 -15q-17 0 -17 18q0 25 -9.5 40.5t-29 21.5t-34.5 7.5t-41 1.5q-40 0 -94 -4q-1 -12 -8.5 -77.5t-14.5 -125t-7 -62.5q0 -25 26 -33t102 -8q38 0 67.5 11t52 35.5t33.5 40t29 47.5
q8 12 20 12q14 0 14 -11t-36 -164q-5 -21 -30 -21zM428 789q-24 0 -82 18t-91 37q-13 6 -13 17q0 10 21 35q26 32 36 32q7 0 15 -8t19.5 -21t44.5 -34.5t81 -42.5q0 -33 -31 -33z" />
    <glyph glyph-name="Eacute" unicode="&#xc9;" horiz-adv-x="619" 
d="M494 0h-467q-16 0 -16 14q0 19 17 22q50 6 69 30.5t28 104.5q56 476 56 499q0 18 -13.5 25t-58.5 14q-14 2 -14 19t14 17h452q12 0 17 -2.5t5 -12.5q0 -17 -13 -160q-1 -16 -17 -16q-15 0 -17 18q-2 57 -27.5 89.5t-72.5 32.5h-152l-31 -281q43 -5 88 -5q29 0 44 1.5
t35.5 9t32.5 25t19 46.5q3 14 18 14q14 0 14 -14q0 -7 -9 -101t-9 -103q0 -15 -15 -15q-17 0 -17 18q0 25 -9.5 40.5t-29 21.5t-34.5 7.5t-41 1.5q-40 0 -94 -4q-1 -12 -8.5 -77.5t-14.5 -125t-7 -62.5q0 -25 26 -33t102 -8q38 0 67.5 11t52 35.5t33.5 40t29 47.5
q8 12 20 12q14 0 14 -11t-36 -164q-5 -21 -30 -21zM320 789q-31 0 -31 33q48 21 81 42.5t44.5 34.5t19.5 21t15 8q10 0 36 -32q21 -25 21 -35q0 -11 -13 -17q-33 -19 -91 -37t-82 -18z" />
    <glyph glyph-name="Ecircumflex" unicode="&#xca;" horiz-adv-x="619" 
d="M494 0h-467q-16 0 -16 14q0 19 17 22q50 6 69 30.5t28 104.5q56 476 56 499q0 18 -13.5 25t-58.5 14q-14 2 -14 19t14 17h452q12 0 17 -2.5t5 -12.5q0 -17 -13 -160q-1 -16 -17 -16q-15 0 -17 18q-2 57 -27.5 89.5t-72.5 32.5h-152l-31 -281q43 -5 88 -5q29 0 44 1.5
t35.5 9t32.5 25t19 46.5q3 14 18 14q14 0 14 -14q0 -7 -9 -101t-9 -103q0 -15 -15 -15q-17 0 -17 18q0 25 -9.5 40.5t-29 21.5t-34.5 7.5t-41 1.5q-40 0 -94 -4q-1 -12 -8.5 -77.5t-14.5 -125t-7 -62.5q0 -25 26 -33t102 -8q38 0 67.5 11t52 35.5t33.5 40t29 47.5
q8 12 20 12q14 0 14 -11t-36 -164q-5 -21 -30 -21zM456 789l-78 40l-102 -40q-9 -3 -17 -3q-22 0 -30 17l161 117l117 -117q-14 -19 -35 -19q-8 0 -16 5z" />
    <glyph glyph-name="Edieresis" unicode="&#xcb;" horiz-adv-x="619" 
d="M494 0h-467q-16 0 -16 14q0 19 17 22q50 6 69 30.5t28 104.5q56 476 56 499q0 18 -13.5 25t-58.5 14q-14 2 -14 19t14 17h452q12 0 17 -2.5t5 -12.5q0 -17 -13 -160q-1 -16 -17 -16q-15 0 -17 18q-2 57 -27.5 89.5t-72.5 32.5h-152l-31 -281q43 -5 88 -5q29 0 44 1.5
t35.5 9t32.5 25t19 46.5q3 14 18 14q14 0 14 -14q0 -7 -9 -101t-9 -103q0 -15 -15 -15q-17 0 -17 18q0 25 -9.5 40.5t-29 21.5t-34.5 7.5t-41 1.5q-40 0 -94 -4q-1 -12 -8.5 -77.5t-14.5 -125t-7 -62.5q0 -25 26 -33t102 -8q38 0 67.5 11t52 35.5t33.5 40t29 47.5
q8 12 20 12q14 0 14 -11t-36 -164q-5 -21 -30 -21zM210 846q0 28 20 48t48 20t48 -20t20 -48t-20 -48t-48 -20t-48 20t-20 48zM410 846q0 28 20 48t48 20t48 -20t20 -48t-20 -48t-48 -20t-48 20t-20 48z" />
    <glyph glyph-name="Igrave" unicode="&#xcc;" horiz-adv-x="382" 
d="M298 0h-271q-16 0 -16 14q0 19 17 22q50 6 69 30.5t28 104.5q56 476 56 499q0 18 -13.5 25t-58.5 14q-14 2 -14 19t14 17h251q12 0 12 -14q0 -19 -18 -22q-45 -7 -60 -32.5t-24 -102.5q-1 -5 -15 -128.5t-27.5 -242t-13.5 -122.5q0 -22 17 -30t67 -15q14 -2 14 -19
t-14 -17zM322 784q-24 0 -82 18t-91 37q-13 6 -13 17q0 10 21 35q26 32 36 32q7 0 15 -8t19.5 -21t44.5 -34.5t81 -42.5q0 -33 -31 -33z" />
    <glyph glyph-name="Iacute" unicode="&#xcd;" horiz-adv-x="382" 
d="M298 0h-271q-16 0 -16 14q0 19 17 22q50 6 69 30.5t28 104.5q56 476 56 499q0 18 -13.5 25t-58.5 14q-14 2 -14 19t14 17h251q12 0 12 -14q0 -19 -18 -22q-45 -7 -60 -32.5t-24 -102.5q-1 -5 -15 -128.5t-27.5 -242t-13.5 -122.5q0 -22 17 -30t67 -15q14 -2 14 -19
t-14 -17zM174 784q-31 0 -31 33q48 21 81 42.5t44.5 34.5t19.5 21t15 8q10 0 36 -32q21 -25 21 -35q0 -11 -13 -17q-33 -19 -91 -37t-82 -18z" />
    <glyph glyph-name="Icircumflex" unicode="&#xce;" horiz-adv-x="382" 
d="M298 0h-271q-16 0 -16 14q0 19 17 22q50 6 69 30.5t28 104.5q56 476 56 499q0 18 -13.5 25t-58.5 14q-14 2 -14 19t14 17h251q12 0 12 -14q0 -19 -18 -22q-45 -7 -60 -32.5t-24 -102.5q-1 -5 -15 -128.5t-27.5 -242t-13.5 -122.5q0 -22 17 -30t67 -15q14 -2 14 -19
t-14 -17zM330 784l-78 40l-102 -40q-9 -3 -17 -3q-22 0 -30 17l161 117l117 -117q-14 -19 -35 -19q-8 0 -16 5z" />
    <glyph glyph-name="Idieresis" unicode="&#xcf;" horiz-adv-x="382" 
d="M298 0h-271q-16 0 -16 14q0 19 17 22q50 6 69 30.5t28 104.5q56 476 56 499q0 18 -13.5 25t-58.5 14q-14 2 -14 19t14 17h251q12 0 12 -14q0 -19 -18 -22q-45 -7 -60 -32.5t-24 -102.5q-1 -5 -15 -128.5t-27.5 -242t-13.5 -122.5q0 -22 17 -30t67 -15q14 -2 14 -19
t-14 -17zM94 841q0 28 20 48t48 20t48 -20t20 -48t-20 -48t-48 -20t-48 20t-20 48zM274 841q0 28 20 48t48 20t48 -20t20 -48t-20 -48t-48 -20t-48 20t-20 48z" />
    <glyph glyph-name="Eth" unicode="&#xd0;" horiz-adv-x="765" 
d="M298 0h-271q-16 0 -16 14q0 19 17 22q50 6 69 30.5t28 104.5l20 175h-86q-24 0 -24 22q0 11 7.5 20t18.5 9h90q30 272 30 273q0 18 -13.5 25t-58.5 14q-14 2 -14 19t14 17h209q205 0 303.5 -89.5t98.5 -254.5q0 -192 -116.5 -296.5t-305.5 -104.5zM437 346h-192
q-26 -228 -26 -242q0 -32 19 -44t75 -12q138 0 216.5 96t78.5 256q0 140 -75 217t-216 77h-30l-36 -297h182q30 0 30 -25q0 -10 -7 -18t-19 -8z" />
    <glyph glyph-name="Ntilde" unicode="&#xd1;" horiz-adv-x="835" 
d="M649 -13q-11 0 -17 9l-394 595h-4q0 -1 -24.5 -235.5t-24.5 -248.5q0 -29 24.5 -45t78.5 -26q14 -3 14 -19q0 -17 -14 -17h-260q-16 0 -16 16q0 18 16 20q51 6 70 30.5t28 104.5l55 479l-50 66q-7 8 -7 17q0 12 13 12h123l363 -550h4q51 408 51 460q0 24 -22.5 36
t-69.5 17q-15 2 -15 19q0 18 14 18h236q14 0 14 -15q0 -20 -17 -22q-45 -4 -60 -30.5t-24 -103.5l-65 -565q-3 -22 -20 -22zM499 809l-56 26q-20 9 -37 9q-40 0 -43 -53l-25 6q-5 12 -5 30q0 35 23.5 60.5t61.5 25.5q25 0 50 -11l57 -24q20 -9 39 -9q41 0 44 52l25 -6
q5 -13 5 -30q0 -35 -23 -62t-62 -27q-25 0 -54 13z" />
    <glyph glyph-name="Ograve" unicode="&#xd2;" horiz-adv-x="771" 
d="M360 -8q-148 0 -231.5 90.5t-83.5 239.5q0 183 100.5 306.5t265.5 123.5q150 0 232.5 -90.5t82.5 -249.5q0 -112 -43.5 -207t-128.5 -154t-194 -59zM408 695q-77 0 -136 -54t-87.5 -135t-28.5 -172q0 -126 53 -205.5t154 -79.5q78 0 136.5 53.5t87 133.5t28.5 171
q0 127 -53 207.5t-154 80.5zM502 789q-24 0 -82 18t-91 37q-13 6 -13 17q0 10 21 35q26 32 36 32q7 0 15 -8t19.5 -21t44.5 -34.5t81 -42.5q0 -33 -31 -33z" />
    <glyph glyph-name="Oacute" unicode="&#xd3;" horiz-adv-x="771" 
d="M360 -8q-148 0 -231.5 90.5t-83.5 239.5q0 183 100.5 306.5t265.5 123.5q150 0 232.5 -90.5t82.5 -249.5q0 -112 -43.5 -207t-128.5 -154t-194 -59zM408 695q-77 0 -136 -54t-87.5 -135t-28.5 -172q0 -126 53 -205.5t154 -79.5q78 0 136.5 53.5t87 133.5t28.5 171
q0 127 -53 207.5t-154 80.5zM374 789q-31 0 -31 33q48 21 81 42.5t44.5 34.5t19.5 21t15 8q10 0 36 -32q21 -25 21 -35q0 -11 -13 -17q-33 -19 -91 -37t-82 -18z" />
    <glyph glyph-name="Ocircumflex" unicode="&#xd4;" horiz-adv-x="771" 
d="M360 -8q-148 0 -231.5 90.5t-83.5 239.5q0 183 100.5 306.5t265.5 123.5q150 0 232.5 -90.5t82.5 -249.5q0 -112 -43.5 -207t-128.5 -154t-194 -59zM408 695q-77 0 -136 -54t-87.5 -135t-28.5 -172q0 -126 53 -205.5t154 -79.5q78 0 136.5 53.5t87 133.5t28.5 171
q0 127 -53 207.5t-154 80.5zM510 789l-78 40l-102 -40q-9 -3 -17 -3q-22 0 -30 17l161 117l117 -117q-14 -19 -35 -19q-8 0 -16 5z" />
    <glyph glyph-name="Otilde" unicode="&#xd5;" horiz-adv-x="771" 
d="M360 -8q-148 0 -231.5 90.5t-83.5 239.5q0 183 100.5 306.5t265.5 123.5q150 0 232.5 -90.5t82.5 -249.5q0 -112 -43.5 -207t-128.5 -154t-194 -59zM408 695q-77 0 -136 -54t-87.5 -135t-28.5 -172q0 -126 53 -205.5t154 -79.5q78 0 136.5 53.5t87 133.5t28.5 171
q0 127 -53 207.5t-154 80.5zM450 809l-56 26q-20 9 -37 9q-40 0 -43 -53l-25 6q-5 12 -5 30q0 35 23.5 60.5t61.5 25.5q25 0 50 -11l57 -24q20 -9 39 -9q41 0 44 52l25 -6q5 -13 5 -30q0 -35 -23 -62t-62 -27q-25 0 -54 13z" />
    <glyph glyph-name="Odieresis" unicode="&#xd6;" horiz-adv-x="771" 
d="M360 -8q-148 0 -231.5 90.5t-83.5 239.5q0 183 100.5 306.5t265.5 123.5q150 0 232.5 -90.5t82.5 -249.5q0 -112 -43.5 -207t-128.5 -154t-194 -59zM408 695q-77 0 -136 -54t-87.5 -135t-28.5 -172q0 -126 53 -205.5t154 -79.5q78 0 136.5 53.5t87 133.5t28.5 171
q0 127 -53 207.5t-154 80.5zM264 846q0 28 20 48t48 20t48 -20t20 -48t-20 -48t-48 -20t-48 20t-20 48zM464 846q0 28 20 48t48 20t48 -20t20 -48t-20 -48t-48 -20t-48 20t-20 48z" />
    <glyph glyph-name="multiply" unicode="&#xd7;" horiz-adv-x="636" 
d="M576 467l-211 -196l171 -215q8 -11 8 -21q0 -11 -9 -18.5t-21 -7.5t-19 9l-172 214l-230 -214q-9 -9 -20 -9q-10 0 -16.5 7.5t-6.5 18.5t9 20l233 216l-158 199q-8 10 -8 19q0 12 9 21t20 9q12 0 21 -11l158 -198l208 194q10 9 20 9t17 -7.5t7 -18.5t-10 -20z" />
    <glyph glyph-name="Oslash" unicode="&#xd8;" horiz-adv-x="800" 
d="M748 716l-72 -75q67 -87 67 -229q0 -112 -43.5 -207t-128.5 -154t-194 -59q-150 0 -235 94l-88 -92q-9 -9 -19 -9q-9 0 -15.5 7.5t-6.5 16.5q0 11 7 18l93 97q-51 83 -51 198q0 183 100.5 306.5t265.5 123.5q135 0 217 -76l68 71q8 8 18 8q9 0 16 -7.5t7 -16.5t-6 -15z
M632 407q0 93 -28 159l-395 -410q53 -107 171 -107q78 0 136.5 53.5t87 133.5t28.5 171zM425 695q-77 0 -136 -54t-87.5 -135t-28.5 -172q0 -70 17 -130l391 406q-56 85 -156 85z" />
    <glyph glyph-name="Ugrave" unicode="&#xd9;" horiz-adv-x="742" 
d="M675 574l-43 -354q-28 -228 -297 -228q-112 0 -180 50.5t-68 154.5q0 41 24.5 256t24.5 216q0 19 -14 26.5t-58 13.5q-14 2 -14 19t14 17h252q12 0 12 -14q0 -19 -18 -22q-45 -5 -60.5 -32t-23.5 -103q-1 -8 -11.5 -95t-19 -166.5t-8.5 -99.5q0 -79 47 -119t126 -40
q86 0 137 40.5t64 111.5q5 25 28.5 237.5t23.5 224.5q0 19 -13.5 26.5t-58.5 14.5q-14 2 -14 19t14 17h224q12 0 12 -14q0 -19 -18 -22q-44 -5 -59.5 -31t-24.5 -104zM490 789q-24 0 -82 18t-91 37q-13 6 -13 17q0 10 21 35q26 32 36 32q7 0 15 -8t19.5 -21t44.5 -34.5
t81 -42.5q0 -33 -31 -33z" />
    <glyph glyph-name="Uacute" unicode="&#xda;" horiz-adv-x="742" 
d="M675 574l-43 -354q-28 -228 -297 -228q-112 0 -180 50.5t-68 154.5q0 41 24.5 256t24.5 216q0 19 -14 26.5t-58 13.5q-14 2 -14 19t14 17h252q12 0 12 -14q0 -19 -18 -22q-45 -5 -60.5 -32t-23.5 -103q-1 -8 -11.5 -95t-19 -166.5t-8.5 -99.5q0 -79 47 -119t126 -40
q86 0 137 40.5t64 111.5q5 25 28.5 237.5t23.5 224.5q0 19 -13.5 26.5t-58.5 14.5q-14 2 -14 19t14 17h224q12 0 12 -14q0 -19 -18 -22q-44 -5 -59.5 -31t-24.5 -104zM392 789q-31 0 -31 33q48 21 81 42.5t44.5 34.5t19.5 21t15 8q10 0 36 -32q21 -25 21 -35q0 -11 -13 -17
q-33 -19 -91 -37t-82 -18z" />
    <glyph glyph-name="Ucircumflex" unicode="&#xdb;" horiz-adv-x="742" 
d="M675 574l-43 -354q-28 -228 -297 -228q-112 0 -180 50.5t-68 154.5q0 41 24.5 256t24.5 216q0 19 -14 26.5t-58 13.5q-14 2 -14 19t14 17h252q12 0 12 -14q0 -19 -18 -22q-45 -5 -60.5 -32t-23.5 -103q-1 -8 -11.5 -95t-19 -166.5t-8.5 -99.5q0 -79 47 -119t126 -40
q86 0 137 40.5t64 111.5q5 25 28.5 237.5t23.5 224.5q0 19 -13.5 26.5t-58.5 14.5q-14 2 -14 19t14 17h224q12 0 12 -14q0 -19 -18 -22q-44 -5 -59.5 -31t-24.5 -104zM528 789l-78 40l-102 -40q-9 -3 -17 -3q-22 0 -30 17l161 117l117 -117q-14 -19 -35 -19q-8 0 -16 5z" />
    <glyph glyph-name="Udieresis" unicode="&#xdc;" horiz-adv-x="742" 
d="M675 574l-43 -354q-28 -228 -297 -228q-112 0 -180 50.5t-68 154.5q0 41 24.5 256t24.5 216q0 19 -14 26.5t-58 13.5q-14 2 -14 19t14 17h252q12 0 12 -14q0 -19 -18 -22q-45 -5 -60.5 -32t-23.5 -103q-1 -8 -11.5 -95t-19 -166.5t-8.5 -99.5q0 -79 47 -119t126 -40
q86 0 137 40.5t64 111.5q5 25 28.5 237.5t23.5 224.5q0 19 -13.5 26.5t-58.5 14.5q-14 2 -14 19t14 17h224q12 0 12 -14q0 -19 -18 -22q-44 -5 -59.5 -31t-24.5 -104zM282 846q0 28 20 48t48 20t48 -20t20 -48t-20 -48t-48 -20t-48 20t-20 48zM482 846q0 28 20 48t48 20
t48 -20t20 -48t-20 -48t-48 -20t-48 20t-20 48z" />
    <glyph glyph-name="Yacute" unicode="&#xdd;" horiz-adv-x="638" 
d="M118 38q42 6 62.5 11t36.5 16.5t19 31.5q16 116 16 146q0 76 -28.5 172.5t-65.5 171.5q-42 87 -103 87q-13 0 -24 -3t-16 -3q-14 0 -14 17q0 12 12 18q99 42 162 42q10 0 38 -41t64.5 -138.5t52.5 -215.5h4q35 90 51.5 129.5t42 93t53.5 100.5q25 42 44 60.5t45 18.5
q29 0 76.5 -9.5t47.5 -24.5q0 -13 -16 -16q-35 -7 -52 -13t-46.5 -29.5t-64.5 -68.5q-38 -49 -90 -155t-71 -181q-5 -21 -10.5 -74.5t-5.5 -90.5q0 -11 6 -19t20 -13t24.5 -8t33.5 -6.5t32 -5.5q14 -3 14 -20q0 -18 -14 -18h-338q-16 0 -16 17q0 18 18 21zM320 789
q-31 0 -31 33q48 21 81 42.5t44.5 34.5t19.5 21t15 8q10 0 36 -32q21 -25 21 -35q0 -11 -13 -17q-33 -19 -91 -37t-82 -18z" />
    <glyph glyph-name="Thorn" unicode="&#xde;" horiz-adv-x="593" 
d="M270 573h45q117 0 186.5 -53t69.5 -158q0 -60 -26 -103.5t-69 -65t-85.5 -30.5t-87.5 -9q-26 0 -26 22t21 22q30 0 57 7.5t52.5 24.5t40.5 50.5t15 79.5q0 66 -42 113.5t-121 47.5h-36q-50 -423 -50 -440q0 -22 17 -30t67 -15q14 -2 14 -19t-14 -17h-271q-16 0 -16 14
q0 19 17 22q50 6 69 30.5t28 104.5q56 476 56 499q0 18 -13.5 25t-58.5 14q-14 2 -14 19t14 17h251q12 0 12 -14q0 -19 -18 -22q-44 -7 -59.5 -32.5t-24.5 -103.5z" />
    <glyph glyph-name="germandbls" unicode="&#xdf;" horiz-adv-x="586" 
d="M-51 -247q-39 0 -64 16.5t-25 49.5q0 31 16.5 49t45.5 18q14 0 30 -6q0 -77 36 -77q21 0 35.5 10.5t22.5 31.5t12 38t7 43l67 537h-60q-19 0 -19 21q0 26 23 26h63l15 123q23 183 197 183q69 0 121.5 -32.5t52.5 -98.5q0 -37 -13.5 -67.5t-32.5 -51t-38.5 -40.5
t-33 -44.5t-13.5 -52.5q0 -25 25.5 -64t56 -74.5t56 -81t25.5 -81.5q0 -62 -52 -99.5t-127 -37.5q-61 0 -100 21t-39 61q0 28 17 45.5t45 17.5q15 0 27 -4q0 -21 1.5 -33t7 -29.5t21 -26.5t40.5 -9q28 0 51 15.5t23 46.5q0 33 -24 72.5t-52 71.5t-52 73.5t-24 76.5
q0 34 20.5 72.5t45.5 68t45.5 69t20.5 74.5q0 42 -30.5 69t-70.5 27q-42 0 -71.5 -24.5t-35.5 -76.5l-74 -618q-8 -64 -20 -110.5t-35.5 -92.5t-65.5 -70.5t-100 -24.5z" />
    <glyph glyph-name="agrave" unicode="&#xe0;" horiz-adv-x="552" 
d="M349 189l32 260q-32 26 -67 26q-70 0 -124.5 -89.5t-54.5 -209.5q0 -52 16 -80t44 -28q30 0 62.5 27.5t91.5 93.5zM424 93q0 -10 4.5 -12.5t20.5 -2.5h67q16 0 16 -13q0 -15 -72.5 -44t-107.5 -29q-24 0 -24 20q0 9 17 113l-3 1q-48 -66 -90 -100t-94 -34q-54 0 -86 43
t-32 124q0 158 86 260t194 102q35 0 71 -14q61 14 63 14q18 0 18 -18q0 -11 -24 -204t-24 -206zM377 597q0 -11 -7.5 -17t-17.5 -6q-40 43 -71.5 65t-80.5 43q-8 4 -8 11q0 13 18 42.5t29 29.5q22 0 80 -71.5t58 -96.5z" />
    <glyph glyph-name="aacute" unicode="&#xe1;" horiz-adv-x="552" 
d="M349 189l32 260q-32 26 -67 26q-70 0 -124.5 -89.5t-54.5 -209.5q0 -52 16 -80t44 -28q30 0 62.5 27.5t91.5 93.5zM424 93q0 -10 4.5 -12.5t20.5 -2.5h67q16 0 16 -13q0 -15 -72.5 -44t-107.5 -29q-24 0 -24 20q0 9 17 113l-3 1q-48 -66 -90 -100t-94 -34q-54 0 -86 43
t-32 124q0 158 86 260t194 102q35 0 71 -14q61 14 63 14q18 0 18 -18q0 -11 -24 -204t-24 -206zM275 597q0 25 58 96.5t80 71.5q11 0 29 -29.5t18 -42.5q0 -7 -8 -11q-49 -21 -80.5 -43t-71.5 -65q-10 0 -17.5 6t-7.5 17z" />
    <glyph glyph-name="acircumflex" unicode="&#xe2;" horiz-adv-x="552" 
d="M349 189l32 260q-32 26 -67 26q-70 0 -124.5 -89.5t-54.5 -209.5q0 -52 16 -80t44 -28q30 0 62.5 27.5t91.5 93.5zM424 93q0 -10 4.5 -12.5t20.5 -2.5h67q16 0 16 -13q0 -15 -72.5 -44t-107.5 -29q-24 0 -24 20q0 9 17 113l-3 1q-48 -66 -90 -100t-94 -34q-54 0 -86 43
t-32 124q0 158 86 260t194 102q35 0 71 -14q61 14 63 14q18 0 18 -18q0 -11 -24 -204t-24 -206zM389 600l-64 67l-100 -72q-7 -6 -17 -6q-18 0 -28 16l159 154l101 -158q-10 -12 -25 -12t-26 11z" />
    <glyph glyph-name="atilde" unicode="&#xe3;" horiz-adv-x="552" 
d="M349 189l32 260q-32 26 -67 26q-70 0 -124.5 -89.5t-54.5 -209.5q0 -52 16 -80t44 -28q30 0 62.5 27.5t91.5 93.5zM424 93q0 -10 4.5 -12.5t20.5 -2.5h67q16 0 16 -13q0 -15 -72.5 -44t-107.5 -29q-24 0 -24 20q0 9 17 113l-3 1q-48 -66 -90 -100t-94 -34q-54 0 -86 43
t-32 124q0 158 86 260t194 102q35 0 71 -14q61 14 63 14q18 0 18 -18q0 -11 -24 -204t-24 -206zM345 617l-56 26q-20 9 -37 9q-40 0 -43 -53l-25 6q-5 13 -5 30q0 35 23.5 60.5t61.5 25.5q25 0 50 -11l57 -24q20 -9 39 -9q41 0 44 52l25 -6q5 -12 5 -30q0 -35 -23 -62
t-62 -27q-25 0 -54 13z" />
    <glyph glyph-name="adieresis" unicode="&#xe4;" horiz-adv-x="552" 
d="M349 189l32 260q-32 26 -67 26q-70 0 -124.5 -89.5t-54.5 -209.5q0 -52 16 -80t44 -28q30 0 62.5 27.5t91.5 93.5zM424 93q0 -10 4.5 -12.5t20.5 -2.5h67q16 0 16 -13q0 -15 -72.5 -44t-107.5 -29q-24 0 -24 20q0 9 17 113l-3 1q-48 -66 -90 -100t-94 -34q-54 0 -86 43
t-32 124q0 158 86 260t194 102q35 0 71 -14q61 14 63 14q18 0 18 -18q0 -11 -24 -204t-24 -206zM159 662q0 28 20 48t48 20t48 -20t20 -48t-20 -48t-48 -20t-48 20t-20 48zM359 662q0 28 20 48t48 20t48 -20t20 -48t-20 -48t-48 -20t-48 20t-20 48z" />
    <glyph glyph-name="aring" unicode="&#xe5;" horiz-adv-x="552" 
d="M349 189l32 260q-32 26 -67 26q-70 0 -124.5 -89.5t-54.5 -209.5q0 -52 16 -80t44 -28q30 0 62.5 27.5t91.5 93.5zM424 93q0 -10 4.5 -12.5t20.5 -2.5h67q16 0 16 -13q0 -15 -72.5 -44t-107.5 -29q-24 0 -24 20q0 9 17 113l-3 1q-48 -66 -90 -100t-94 -34q-54 0 -86 43
t-32 124q0 158 86 260t194 102q35 0 71 -14q61 14 63 14q18 0 18 -18q0 -11 -24 -204t-24 -206zM227 638q0 39 27 65.5t70 26.5q42 0 68.5 -27t26.5 -65q0 -40 -26.5 -66.5t-68.5 -26.5q-45 0 -71 26.5t-26 66.5zM269 635q0 -23 15 -37.5t39 -14.5q23 0 38 14.5t15 37.5
t-15 37.5t-38 14.5q-24 0 -39 -14.5t-15 -37.5z" />
    <glyph glyph-name="ae" unicode="&#xe6;" horiz-adv-x="759" 
d="M731 420q0 -64 -59.5 -106.5t-230.5 -101.5q4 -72 34 -109t75 -37q37 0 71.5 17t55.5 34t26 17q12 0 12 -14q0 -37 -63.5 -82.5t-144.5 -45.5q-54 0 -94.5 41t-54.5 109q-103 -150 -200 -150q-54 0 -86 43t-32 124q0 159 86.5 260.5t195.5 101.5q90 0 146 -47
q62 47 137 47q60 0 93 -29t33 -72zM195 68q30 0 67.5 30.5t90.5 94.5v7q0 134 62 220q-13 23 -42 39t-59 16q-70 0 -124.5 -89.5t-54.5 -209.5q0 -52 16 -80t44 -28zM637 415q0 27 -15.5 42t-44.5 15q-43 0 -87 -57.5t-49 -158.5q114 44 155 81t41 78z" />
    <glyph glyph-name="ccedilla" unicode="&#xe7;" horiz-adv-x="422" 
d="M241 66q37 0 71.5 17t56 34.5t26.5 17.5q12 0 12 -14q0 -37 -62.5 -82.5t-140.5 -45.5q-72 0 -115.5 59.5t-43.5 147.5q0 154 74.5 237.5t176.5 83.5q56 0 88.5 -22t32.5 -59q0 -68 -90 -68q0 22 -1.5 36.5t-6.5 32t-18 26.5t-33 9q-48 0 -92 -67t-44 -182
q0 -86 32 -123.5t77 -37.5zM308 -155q0 -51 -34 -77.5t-85 -26.5q-40 0 -67.5 14.5t-27.5 43.5q0 21 14 36q35 -21 78 -21q56 0 56 39q0 27 -25 42t-67 15q-4 7 -4 13q0 23 49 23q51 0 82 -29.5t31 -71.5z" />
    <glyph glyph-name="egrave" unicode="&#xe8;" horiz-adv-x="451" 
d="M423 420q0 -64 -59.5 -106.5t-230.5 -101.5q4 -72 34 -109t75 -37q37 0 71.5 17t55.5 34t26 17q12 0 12 -14q0 -37 -63.5 -82.5t-144.5 -45.5q-66 0 -110 59t-44 149q0 153 75 237t177 84q60 0 93 -29t33 -72zM329 415q0 57 -55 57q-48 0 -92 -57t-49 -159q114 44 155 81
t41 78zM295 597q0 -11 -7.5 -17t-17.5 -6q-40 43 -71.5 65t-80.5 43q-8 4 -8 11q0 13 18 42.5t29 29.5q22 0 80 -71.5t58 -96.5z" />
    <glyph glyph-name="eacute" unicode="&#xe9;" horiz-adv-x="451" 
d="M423 420q0 -64 -59.5 -106.5t-230.5 -101.5q4 -72 34 -109t75 -37q37 0 71.5 17t55.5 34t26 17q12 0 12 -14q0 -37 -63.5 -82.5t-144.5 -45.5q-66 0 -110 59t-44 149q0 153 75 237t177 84q60 0 93 -29t33 -72zM329 415q0 57 -55 57q-48 0 -92 -57t-49 -159q114 44 155 81
t41 78zM203 597q0 25 58 96.5t80 71.5q11 0 29 -29.5t18 -42.5q0 -7 -8 -11q-49 -21 -80.5 -43t-71.5 -65q-10 0 -17.5 6t-7.5 17z" />
    <glyph glyph-name="ecircumflex" unicode="&#xea;" horiz-adv-x="451" 
d="M423 420q0 -64 -59.5 -106.5t-230.5 -101.5q4 -72 34 -109t75 -37q37 0 71.5 17t55.5 34t26 17q12 0 12 -14q0 -37 -63.5 -82.5t-144.5 -45.5q-66 0 -110 59t-44 149q0 153 75 237t177 84q60 0 93 -29t33 -72zM329 415q0 57 -55 57q-48 0 -92 -57t-49 -159q114 44 155 81
t41 78zM357 600l-64 67l-100 -72q-8 -6 -17 -6q-18 0 -28 16l159 154l101 -158q-10 -12 -25 -12t-26 11z" />
    <glyph glyph-name="edieresis" unicode="&#xeb;" horiz-adv-x="451" 
d="M423 420q0 -64 -59.5 -106.5t-230.5 -101.5q4 -72 34 -109t75 -37q37 0 71.5 17t55.5 34t26 17q12 0 12 -14q0 -37 -63.5 -82.5t-144.5 -45.5q-66 0 -110 59t-44 149q0 153 75 237t177 84q60 0 93 -29t33 -72zM329 415q0 57 -55 57q-48 0 -92 -57t-49 -159q114 44 155 81
t41 78zM127 662q0 28 20 48t48 20t48 -20t20 -48t-20 -48t-48 -20t-48 20t-20 48zM327 662q0 28 20 48t48 20t48 -20t20 -48t-20 -48t-48 -20t-48 20t-20 48z" />
    <glyph glyph-name="igrave" unicode="&#xec;" horiz-adv-x="322" 
d="M88 14q0 16 24.5 201t24.5 200q0 6 -4.5 7.5t-20.5 1.5h-61q-13 0 -13 13q0 16 69.5 50t103.5 34q24 0 24 -21q0 -9 -24 -200.5t-24 -204.5q0 -10 4.5 -12.5t20.5 -2.5h64q16 0 16 -13q0 -15 -72.5 -44.5t-107.5 -29.5q-24 0 -24 21zM276 597q0 -11 -7.5 -17t-17.5 -6
q-40 43 -71.5 65t-80.5 43q-8 4 -8 11q0 13 18 42.5t29 29.5q22 0 80 -71.5t58 -96.5z" />
    <glyph glyph-name="iacute" unicode="&#xed;" horiz-adv-x="322" 
d="M88 14q0 16 24.5 201t24.5 200q0 6 -4.5 7.5t-20.5 1.5h-61q-13 0 -13 13q0 16 69.5 50t103.5 34q24 0 24 -21q0 -9 -24 -200.5t-24 -204.5q0 -10 4.5 -12.5t20.5 -2.5h64q16 0 16 -13q0 -15 -72.5 -44.5t-107.5 -29.5q-24 0 -24 21zM124 597q0 25 58 96.5t80 71.5
q11 0 29 -29.5t18 -42.5q0 -7 -8 -11q-49 -21 -80.5 -43t-71.5 -65q-10 0 -17.5 6t-7.5 17z" />
    <glyph glyph-name="icircumflex" unicode="&#xee;" horiz-adv-x="322" 
d="M88 14q0 16 24.5 201t24.5 200q0 6 -4.5 7.5t-20.5 1.5h-61q-13 0 -13 13q0 16 69.5 50t103.5 34q24 0 24 -21q0 -9 -24 -200.5t-24 -204.5q0 -10 4.5 -12.5t20.5 -2.5h64q16 0 16 -13q0 -15 -72.5 -44.5t-107.5 -29.5q-24 0 -24 21zM268 600l-64 67l-100 -72
q-8 -6 -17 -6q-18 0 -28 16l159 154l101 -158q-11 -12 -25 -12q-15 0 -26 11z" />
    <glyph glyph-name="idieresis" unicode="&#xef;" horiz-adv-x="322" 
d="M88 14q0 16 24.5 201t24.5 200q0 6 -4.5 7.5t-20.5 1.5h-61q-13 0 -13 13q0 16 69.5 50t103.5 34q24 0 24 -21q0 -9 -24 -200.5t-24 -204.5q0 -10 4.5 -12.5t20.5 -2.5h64q16 0 16 -13q0 -15 -72.5 -44.5t-107.5 -29.5q-24 0 -24 21zM53 662q0 28 20 48t48 20t48 -20
t20 -48t-20 -48t-48 -20t-48 20t-20 48zM223 662q0 28 20 48t48 20t48 -20t20 -48t-20 -48t-48 -20t-48 20t-20 48z" />
    <glyph glyph-name="eth" unicode="&#xf0;" horiz-adv-x="509" 
d="M470 730l-98 -48q48 -55 75 -143.5t27 -185.5q0 -71 -15 -134t-44.5 -114.5t-79.5 -82t-114 -30.5q-79 0 -127.5 48t-48.5 152q0 148 72 238.5t167 90.5q53 0 86 -35q-18 81 -77 157l-172 -85q-7 -4 -14 -4q-20 0 -20 22q0 14 12 20l164 81q-59 64 -148 117q-8 5 -8 10
q0 12 23 12q52 0 78 -4.5t55 -23.5q39 -26 80 -72l103 51q7 4 15 4q20 0 20 -22q0 -14 -11 -19zM281 472q-60 0 -100 -75t-40 -199q0 -75 27 -116t70 -41q61 0 102 75.5t41 198.5q0 75 -27.5 116t-72.5 41z" />
    <glyph glyph-name="ntilde" unicode="&#xf1;" horiz-adv-x="584" 
d="M424 521q35 0 57.5 -20.5t22.5 -58.5q0 -21 -28 -183t-28 -169q0 -10 26 -10h64q19 0 19 -11q0 -17 -72 -47t-108 -30q-24 0 -24 18q0 9 28.5 195t28.5 200q0 33 -32 33q-31 0 -66.5 -26t-99.5 -88l-36 -297q-1 -16 -15 -20q-47 -15 -67 -15q-10 0 -10 11
q0 12 26.5 208.5t26.5 199.5q0 9 -5 11t-20 2h-58q-16 0 -16 13q0 16 69.5 50t103.5 34q24 0 24 -20q0 -7 -3.5 -27t-8 -47.5t-6.5 -39.5h3q61 65 109.5 99.5t94.5 34.5zM364 617l-56 26q-20 9 -37 9q-40 0 -43 -53l-25 6q-5 13 -5 30q0 35 23.5 60.5t61.5 25.5q25 0 50 -11
l57 -24q20 -9 39 -9q41 0 44 52l25 -6q5 -12 5 -30q0 -35 -23 -62t-62 -27q-25 0 -54 13z" />
    <glyph glyph-name="ograve" unicode="&#xf2;" horiz-adv-x="519" 
d="M298 521q79 0 127.5 -48t48.5 -154q0 -147 -76.5 -237t-176.5 -90q-79 0 -127.5 48t-48.5 152q0 148 76.5 238.5t176.5 90.5zM281 472q-60 0 -100 -75t-40 -199q0 -75 27 -116t70 -41q60 0 100 75t40 199q0 76 -26 116.5t-71 40.5zM360 597q0 -11 -7.5 -17t-17.5 -6
q-40 43 -71.5 65t-80.5 43q-8 4 -8 11q0 13 18 42.5t29 29.5q22 0 80 -71.5t58 -96.5z" />
    <glyph glyph-name="oacute" unicode="&#xf3;" horiz-adv-x="519" 
d="M298 521q79 0 127.5 -48t48.5 -154q0 -147 -76.5 -237t-176.5 -90q-79 0 -127.5 48t-48.5 152q0 148 76.5 238.5t176.5 90.5zM281 472q-60 0 -100 -75t-40 -199q0 -75 27 -116t70 -41q60 0 100 75t40 199q0 76 -26 116.5t-71 40.5zM238 597q0 25 58 96.5t80 71.5
q11 0 29 -29.5t18 -42.5q0 -7 -8 -11q-49 -21 -80.5 -43t-71.5 -65q-10 0 -17.5 6t-7.5 17z" />
    <glyph glyph-name="ocircumflex" unicode="&#xf4;" horiz-adv-x="519" 
d="M298 521q79 0 127.5 -48t48.5 -154q0 -147 -76.5 -237t-176.5 -90q-79 0 -127.5 48t-48.5 152q0 148 76.5 238.5t176.5 90.5zM281 472q-60 0 -100 -75t-40 -199q0 -75 27 -116t70 -41q60 0 100 75t40 199q0 76 -26 116.5t-71 40.5zM372 600l-64 67l-100 -72q-8 -6 -17 -6
q-18 0 -28 16l159 154l101 -158q-11 -12 -25 -12q-15 0 -26 11z" />
    <glyph glyph-name="otilde" unicode="&#xf5;" horiz-adv-x="519" 
d="M298 521q79 0 127.5 -48t48.5 -154q0 -147 -76.5 -237t-176.5 -90q-79 0 -127.5 48t-48.5 152q0 148 76.5 238.5t176.5 90.5zM281 472q-60 0 -100 -75t-40 -199q0 -75 27 -116t70 -41q60 0 100 75t40 199q0 76 -26 116.5t-71 40.5zM318 617l-56 26q-20 9 -37 9
q-40 0 -43 -53l-25 6q-5 13 -5 30q0 35 23.5 60.5t61.5 25.5q25 0 50 -11l57 -24q20 -9 39 -9q41 0 44 52l25 -6q5 -12 5 -30q0 -35 -23 -62t-62 -27q-25 0 -54 13z" />
    <glyph glyph-name="odieresis" unicode="&#xf6;" horiz-adv-x="519" 
d="M298 521q79 0 127.5 -48t48.5 -154q0 -147 -76.5 -237t-176.5 -90q-79 0 -127.5 48t-48.5 152q0 148 76.5 238.5t176.5 90.5zM281 472q-60 0 -100 -75t-40 -199q0 -75 27 -116t70 -41q60 0 100 75t40 199q0 76 -26 116.5t-71 40.5zM142 662q0 28 20 48t48 20t48 -20
t20 -48t-20 -48t-48 -20t-48 20t-20 48zM342 662q0 28 20 48t48 20t48 -20t20 -48t-20 -48t-48 -20t-48 20t-20 48z" />
    <glyph glyph-name="divide" unicode="&#xf7;" horiz-adv-x="594" 
d="M518 245h-444q-12 0 -18 7.5t-6 17.5q0 12 8.5 20t21.5 8h443q10 0 15.5 -8t5.5 -17q0 -12 -7 -20t-19 -8zM251 450q0 27 18 45.5t44 18.5t44.5 -18.5t18.5 -45.5q0 -25 -18.5 -43t-44.5 -18t-44 17.5t-18 43.5zM220 74q0 26 18 44.5t44 18.5t44.5 -18.5t18.5 -44.5
t-18.5 -44t-44.5 -18t-44 18t-18 44z" />
    <glyph glyph-name="oslash" unicode="&#xf8;" horiz-adv-x="519" 
d="M515 484l-59 -59q18 -46 18 -106q0 -147 -76.5 -237t-176.5 -90q-91 0 -137 58l-57 -58q-9 -9 -19 -9t-16.5 7.5t-6.5 17.5q0 9 8 17l68 68q-16 42 -16 99q0 148 76.5 238.5t176.5 90.5q88 0 133 -55l49 49q8 8 18 8t16.5 -7.5t6.5 -16.5t-6 -15zM378 315q0 20 -1 30
l-226 -227q24 -77 87 -77q60 0 100 75t40 199zM281 472q-60 0 -100 -75t-40 -199v-24l225 226q-25 72 -85 72z" />
    <glyph glyph-name="ugrave" unicode="&#xf9;" horiz-adv-x="587" 
d="M222 500q0 -11 -24 -189.5t-24 -193.5q0 -45 35 -45q30 0 65.5 26.5t101.5 90.5l36 294q2 21 15 23l34 8q4 1 11 2.5t13 3t9 1.5q10 0 10 -11q0 -4 -26.5 -209t-26.5 -210q0 -11 19 -11h73q16 0 16 -13q0 -15 -72.5 -45t-107.5 -30q-24 0 -24 20q0 2 16 114h-3
q-125 -134 -205 -134q-78 0 -78 90q0 23 19.5 171.5t19.5 161.5q0 6 -4.5 7.5t-20.5 1.5h-61q-13 0 -13 13q0 16 69.5 50t103.5 34q24 0 24 -21zM374 597q0 -11 -7.5 -17t-17.5 -6q-40 43 -71.5 65t-80.5 43q-8 4 -8 11q0 13 18 42.5t29 29.5q22 0 80 -71.5t58 -96.5z" />
    <glyph glyph-name="uacute" unicode="&#xfa;" horiz-adv-x="587" 
d="M222 500q0 -11 -24 -189.5t-24 -193.5q0 -45 35 -45q30 0 65.5 26.5t101.5 90.5l36 294q2 21 15 23l34 8q4 1 11 2.5t13 3t9 1.5q10 0 10 -11q0 -4 -26.5 -209t-26.5 -210q0 -11 19 -11h73q16 0 16 -13q0 -15 -72.5 -45t-107.5 -30q-24 0 -24 20q0 2 16 114h-3
q-125 -134 -205 -134q-78 0 -78 90q0 23 19.5 171.5t19.5 161.5q0 6 -4.5 7.5t-20.5 1.5h-61q-13 0 -13 13q0 16 69.5 50t103.5 34q24 0 24 -21zM272 597q0 25 58 96.5t80 71.5q11 0 29 -29.5t18 -42.5q0 -7 -8 -11q-49 -21 -80.5 -43t-71.5 -65q-10 0 -17.5 6t-7.5 17z" />
    <glyph glyph-name="ucircumflex" unicode="&#xfb;" horiz-adv-x="587" 
d="M222 500q0 -11 -24 -189.5t-24 -193.5q0 -45 35 -45q30 0 65.5 26.5t101.5 90.5l36 294q2 21 15 23l34 8q4 1 11 2.5t13 3t9 1.5q10 0 10 -11q0 -4 -26.5 -209t-26.5 -210q0 -11 19 -11h73q16 0 16 -13q0 -15 -72.5 -45t-107.5 -30q-24 0 -24 20q0 2 16 114h-3
q-125 -134 -205 -134q-78 0 -78 90q0 23 19.5 171.5t19.5 161.5q0 6 -4.5 7.5t-20.5 1.5h-61q-13 0 -13 13q0 16 69.5 50t103.5 34q24 0 24 -21zM396 600l-64 67l-100 -72q-7 -6 -17 -6q-18 0 -28 16l159 154l101 -158q-11 -12 -25 -12q-15 0 -26 11z" />
    <glyph glyph-name="udieresis" unicode="&#xfc;" horiz-adv-x="587" 
d="M222 500q0 -11 -24 -189.5t-24 -193.5q0 -45 35 -45q30 0 65.5 26.5t101.5 90.5l36 294q2 21 15 23l34 8q4 1 11 2.5t13 3t9 1.5q10 0 10 -11q0 -4 -26.5 -209t-26.5 -210q0 -11 19 -11h73q16 0 16 -13q0 -15 -72.5 -45t-107.5 -30q-24 0 -24 20q0 2 16 114h-3
q-125 -134 -205 -134q-78 0 -78 90q0 23 19.5 171.5t19.5 161.5q0 6 -4.5 7.5t-20.5 1.5h-61q-13 0 -13 13q0 16 69.5 50t103.5 34q24 0 24 -21zM166 662q0 28 20 48t48 20t48 -20t20 -48t-20 -48t-48 -20t-48 20t-20 48zM366 662q0 28 20 48t48 20t48 -20t20 -48t-20 -48
t-48 -20t-48 20t-20 48z" />
    <glyph glyph-name="yacute" unicode="&#xfd;" horiz-adv-x="466" 
d="M173 -41l-79 446q-3 12 -13 12q-5 0 -36 -5.5t-38 -5.5q-11 0 -11 10q0 21 66.5 63t94.5 42q13 0 18 -6t7 -22l56 -452q39 76 60.5 123t41 105t19.5 97q0 79 -70 79q0 36 21 56t58 20q35 0 56.5 -21.5t21.5 -64.5q0 -80 -79.5 -244.5t-188.5 -302t-178 -137.5
q-85 0 -85 70q0 26 18 45t41 19q15 0 28 -5q0 -39 5 -51t21 -12q51 0 145 142zM230 597q0 25 58 96.5t80 71.5q11 0 29 -29.5t18 -42.5q0 -7 -8 -11q-49 -21 -80.5 -43t-71.5 -65q-10 0 -17.5 6t-7.5 17z" />
    <glyph glyph-name="thorn" unicode="&#xfe;" horiz-adv-x="550" 
d="M186 324l-32 -260q32 -26 69 -26q74 0 135 90t61 209q0 51 -20 79.5t-49 28.5q-35 0 -70.5 -28.5t-93.5 -92.5zM228 -220q0 -16 -13 -16l-262 -11q-13 0 -13 15q0 18 16 21q42 8 61 23t23 53q1 7 54.5 420.5t53.5 428.5q0 19 -7.5 26.5t-27.5 7.5h-40q-17 0 -17 17
q0 16 19 20l98 23q32 8 41 8q28 0 28 -31q0 -19 -22.5 -187.5t-28.5 -209.5l3 -1q98 134 185 134q61 0 98.5 -43.5t37.5 -123.5q0 -157 -92.5 -259.5t-205.5 -102.5q-37 0 -73 14q-2 -12 -10 -81t-8 -76q0 -36 86 -49q16 -3 16 -20z" />
    <glyph glyph-name="ydieresis" unicode="&#xff;" horiz-adv-x="466" 
d="M173 -41l-79 446q-3 12 -13 12q-5 0 -36 -5.5t-38 -5.5q-11 0 -11 10q0 21 66.5 63t94.5 42q13 0 18 -6t7 -22l56 -452q39 76 60.5 123t41 105t19.5 97q0 79 -70 79q0 36 21 56t58 20q35 0 56.5 -21.5t21.5 -64.5q0 -80 -79.5 -244.5t-188.5 -302t-178 -137.5
q-85 0 -85 70q0 26 18 45t41 19q15 0 28 -5q0 -39 5 -51t21 -12q51 0 145 142zM114 662q0 28 20 48t48 20t48 -20t20 -48t-20 -48t-48 -20t-48 20t-20 48zM314 662q0 28 20 48t48 20t48 -20t20 -48t-20 -48t-48 -20t-48 20t-20 48z" />
    <glyph glyph-name="Amacron" unicode="&#x100;" horiz-adv-x="664" 
d="M464 144l-24 104h-242l-80 -163q-5 -10 -5 -16q0 -14 20.5 -21t67.5 -12q12 0 12 -17q0 -19 -19 -19h-217q-17 0 -17 15q0 18 17 21q38 7 50.5 20t42.5 70l275 521l-21 70q-3 9 -3 14q0 14 14 14h89l144 -610q9 -38 15 -53.5t21.5 -28.5t44.5 -17q14 -1 14 -18
q0 -18 -14 -18h-251q-11 0 -11 14q0 20 17 22q40 3 55.5 13t15.5 32q0 13 -11 63zM362 578l-138 -278h205l-63 278h-4zM498 820h-212q-26 0 -26 26q0 11 6.5 19t18.5 8h209q15 0 22.5 -7.5t7.5 -18.5t-7 -19t-19 -8z" />
    <glyph glyph-name="amacron" unicode="&#x101;" horiz-adv-x="552" 
d="M349 189l32 260q-32 26 -67 26q-70 0 -124.5 -89.5t-54.5 -209.5q0 -52 16 -80t44 -28q30 0 62.5 27.5t91.5 93.5zM424 93q0 -10 4.5 -12.5t20.5 -2.5h67q16 0 16 -13q0 -15 -72.5 -44t-107.5 -29q-24 0 -24 20q0 9 17 113l-3 1q-48 -66 -90 -100t-94 -34q-54 0 -86 43
t-32 124q0 158 86 260t194 102q35 0 71 -14q61 14 63 14q18 0 18 -18q0 -11 -24 -204t-24 -206zM443 636h-212q-26 0 -26 26q0 11 6.5 19t18.5 8h209q15 0 22.5 -7.5t7.5 -18.5t-7 -19t-19 -8z" />
    <glyph glyph-name="Abreve" unicode="&#x102;" horiz-adv-x="664" 
d="M464 144l-24 104h-242l-80 -163q-5 -10 -5 -16q0 -14 20.5 -21t67.5 -12q12 0 12 -17q0 -19 -19 -19h-217q-17 0 -17 15q0 18 17 21q38 7 50.5 20t42.5 70l275 521l-21 70q-3 9 -3 14q0 14 14 14h89l144 -610q9 -38 15 -53.5t21.5 -28.5t44.5 -17q14 -1 14 -18
q0 -18 -14 -18h-251q-11 0 -11 14q0 20 17 22q40 3 55.5 13t15.5 32q0 13 -11 63zM362 578l-138 -278h205l-63 278h-4zM391 783q-63 0 -100 35t-37 87q0 10 5 16t12 6q10 0 15 -12q28 -64 107 -64q86 0 121 64q7 13 18 13q14 0 14 -19q-1 -44 -47 -85t-108 -41z" />
    <glyph glyph-name="abreve" unicode="&#x103;" horiz-adv-x="552" 
d="M349 189l32 260q-32 26 -67 26q-70 0 -124.5 -89.5t-54.5 -209.5q0 -52 16 -80t44 -28q30 0 62.5 27.5t91.5 93.5zM424 93q0 -10 4.5 -12.5t20.5 -2.5h67q16 0 16 -13q0 -15 -72.5 -44t-107.5 -29q-24 0 -24 20q0 9 17 113l-3 1q-48 -66 -90 -100t-94 -34q-54 0 -86 43
t-32 124q0 158 86 260t194 102q35 0 71 -14q61 14 63 14q18 0 18 -18q0 -11 -24 -204t-24 -206zM319 582q-57 0 -92.5 39.5t-35.5 92.5q0 22 15 22q9 0 14 -12q32 -74 106 -74q81 0 122 74q7 13 18 13q15 0 15 -17q0 -37 -48 -87.5t-114 -50.5z" />
    <glyph glyph-name="Aogonek" unicode="&#x104;" horiz-adv-x="664" 
d="M471 -140q0 84 75 140h-148q-11 0 -11 14q0 20 17 22q40 3 55.5 13t15.5 32q0 13 -11 63l-24 104h-242l-80 -163q-5 -10 -5 -16q0 -14 20.5 -21t67.5 -12q12 0 12 -17q0 -19 -19 -19h-217q-17 0 -17 15q0 18 17 21q38 7 50.5 20t42.5 70l275 521l-21 70q-3 9 -3 14
q0 14 14 14h89l144 -610q9 -38 15 -53.5t21.5 -28.5t44.5 -17q14 -1 14 -18q0 -18 -14 -18q-29 0 -64.5 -31t-35.5 -76q0 -32 20 -49t52 -17q38 0 63 16q8 -45 -14 -71t-79 -26q-50 0 -85 29t-35 85zM362 578l-138 -278h205l-63 278h-4z" />
    <glyph glyph-name="aogonek" unicode="&#x105;" horiz-adv-x="552" 
d="M222 -140q0 52 31.5 95t74.5 64q1 12 17 106l-3 1q-48 -66 -90 -100t-94 -34q-54 0 -86 43t-32 124q0 158 86 260t194 102q35 0 71 -14q61 14 63 14q18 0 18 -18q0 -11 -24 -204t-24 -206q0 -10 4.5 -12.5t20.5 -2.5h67q16 0 16 -13q0 -5 -10 -12t-31.5 -15.5t-36 -14
t-44 -16t-35.5 -12.5q-30 -11 -52.5 -38t-22.5 -64q0 -32 20 -49t52 -17q38 0 63 16q8 -45 -14 -71t-79 -26q-50 0 -85 29t-35 85zM349 189l32 260q-32 26 -67 26q-70 0 -124.5 -89.5t-54.5 -209.5q0 -52 16 -80t44 -28q30 0 62.5 27.5t91.5 93.5z" />
    <glyph glyph-name="Cacute" unicode="&#x106;" horiz-adv-x="681" 
d="M594 33q-120 -42 -227 -42q-146 0 -234 83t-88 248q0 92 25.5 169t74.5 135.5t128 91.5t180 33q100 0 186 -23q11 -4 11 -17q0 -6 -10.5 -88t-13.5 -97q-3 -14 -17 -14q-19 0 -20 16q-2 27 -5 46.5t-14 45t-28 41.5t-48 27t-74 11q-107 0 -185.5 -97t-78.5 -268
q0 -132 54.5 -209t165.5 -77q83 0 133 39.5t89 114.5q8 14 21 14q14 0 14 -15q0 -3 -5.5 -36.5t-11.5 -70t-7 -41.5q-2 -15 -15 -20zM397 789q-31 0 -31 33q48 21 81 42.5t44.5 34.5t19.5 21t15 8q10 0 36 -32q21 -25 21 -35q0 -11 -13 -17q-33 -19 -91 -37t-82 -18z" />
    <glyph glyph-name="cacute" unicode="&#x107;" horiz-adv-x="422" 
d="M241 66q37 0 71.5 17t56 34.5t26.5 17.5q12 0 12 -14q0 -37 -62.5 -82.5t-140.5 -45.5q-72 0 -115.5 59.5t-43.5 147.5q0 154 74.5 237.5t176.5 83.5q56 0 88.5 -22t32.5 -59q0 -68 -90 -68q0 22 -1.5 36.5t-6.5 32t-18 26.5t-33 9q-48 0 -92 -67t-44 -182
q0 -86 32 -123.5t77 -37.5zM245 597q0 25 58 96.5t80 71.5q11 0 29 -29.5t18 -42.5q0 -7 -8 -11q-49 -21 -80.5 -43t-71.5 -65q-10 0 -17.5 6t-7.5 17z" />
    <glyph glyph-name="Ccircumflex" unicode="&#x108;" horiz-adv-x="681" 
d="M594 33q-120 -42 -227 -42q-146 0 -234 83t-88 248q0 92 25.5 169t74.5 135.5t128 91.5t180 33q100 0 186 -23q11 -4 11 -17q0 -6 -10.5 -88t-13.5 -97q-3 -14 -17 -14q-19 0 -20 16q-2 27 -5 46.5t-14 45t-28 41.5t-48 27t-74 11q-107 0 -185.5 -97t-78.5 -268
q0 -132 54.5 -209t165.5 -77q83 0 133 39.5t89 114.5q8 14 21 14q14 0 14 -15q0 -3 -5.5 -36.5t-11.5 -70t-7 -41.5q-2 -15 -15 -20zM533 789l-78 40l-102 -40q-9 -3 -17 -3q-22 0 -30 17l161 117l117 -117q-14 -19 -35 -19q-8 0 -16 5z" />
    <glyph glyph-name="ccircumflex" unicode="&#x109;" horiz-adv-x="422" 
d="M241 66q37 0 71.5 17t56 34.5t26.5 17.5q12 0 12 -14q0 -37 -62.5 -82.5t-140.5 -45.5q-72 0 -115.5 59.5t-43.5 147.5q0 154 74.5 237.5t176.5 83.5q56 0 88.5 -22t32.5 -59q0 -68 -90 -68q0 22 -1.5 36.5t-6.5 32t-18 26.5t-33 9q-48 0 -92 -67t-44 -182
q0 -86 32 -123.5t77 -37.5zM369 600l-64 67l-100 -72q-7 -6 -17 -6q-18 0 -28 16l159 154l101 -158q-10 -12 -25 -12t-26 11z" />
    <glyph glyph-name="Cdotaccent" unicode="&#x10a;" horiz-adv-x="681" 
d="M594 33q-120 -42 -227 -42q-146 0 -234 83t-88 248q0 92 25.5 169t74.5 135.5t128 91.5t180 33q100 0 186 -23q11 -4 11 -17q0 -6 -10.5 -88t-13.5 -97q-3 -14 -17 -14q-19 0 -20 16q-2 27 -5 46.5t-14 45t-28 41.5t-48 27t-74 11q-107 0 -185.5 -97t-78.5 -268
q0 -132 54.5 -209t165.5 -77q83 0 133 39.5t89 114.5q8 14 21 14q14 0 14 -15q0 -3 -5.5 -36.5t-11.5 -70t-7 -41.5q-2 -15 -15 -20zM391 846q0 28 20 48t48 20t48 -20t20 -48t-20 -48t-48 -20t-48 20t-20 48z" />
    <glyph glyph-name="cdotaccent" unicode="&#x10b;" horiz-adv-x="422" 
d="M241 66q37 0 71.5 17t56 34.5t26.5 17.5q12 0 12 -14q0 -37 -62.5 -82.5t-140.5 -45.5q-72 0 -115.5 59.5t-43.5 147.5q0 154 74.5 237.5t176.5 83.5q56 0 88.5 -22t32.5 -59q0 -68 -90 -68q0 22 -1.5 36.5t-6.5 32t-18 26.5t-33 9q-48 0 -92 -67t-44 -182
q0 -86 32 -123.5t77 -37.5zM240 672q0 28 20 48t48 20t48 -20t20 -48t-20 -48t-48 -20t-48 20t-20 48z" />
    <glyph glyph-name="Ccaron" unicode="&#x10c;" horiz-adv-x="681" 
d="M594 33q-120 -42 -227 -42q-146 0 -234 83t-88 248q0 92 25.5 169t74.5 135.5t128 91.5t180 33q100 0 186 -23q11 -4 11 -17q0 -6 -10.5 -88t-13.5 -97q-3 -14 -17 -14q-19 0 -20 16q-2 27 -5 46.5t-14 45t-28 41.5t-48 27t-74 11q-107 0 -185.5 -97t-78.5 -268
q0 -132 54.5 -209t165.5 -77q83 0 133 39.5t89 114.5q8 14 21 14q14 0 14 -15q0 -3 -5.5 -36.5t-11.5 -70t-7 -41.5q-2 -15 -15 -20zM382 908l78 -40l102 40q9 3 17 3q22 0 30 -17l-161 -117l-117 117q14 19 35 19q8 0 16 -5z" />
    <glyph glyph-name="ccaron" unicode="&#x10d;" horiz-adv-x="422" 
d="M241 66q37 0 71.5 17t56 34.5t26.5 17.5q12 0 12 -14q0 -37 -62.5 -82.5t-140.5 -45.5q-72 0 -115.5 59.5t-43.5 147.5q0 154 74.5 237.5t176.5 83.5q56 0 88.5 -22t32.5 -59q0 -68 -90 -68q0 22 -1.5 36.5t-6.5 32t-18 26.5t-33 9q-48 0 -92 -67t-44 -182
q0 -86 32 -123.5t77 -37.5zM245 743l64 -67l100 72q8 6 17 6q18 0 28 -16l-159 -154l-101 158q10 12 25 12t26 -11z" />
    <glyph glyph-name="Dcaron" unicode="&#x10e;" horiz-adv-x="765" 
d="M608 400q0 140 -75 217t-216 77h-30q-5 -34 -36.5 -304.5t-31.5 -285.5q0 -32 19 -44t75 -12q138 0 216.5 96t78.5 256zM298 0h-271q-16 0 -16 14q0 19 17 22q50 6 69 30.5t28 104.5q56 476 56 499q0 18 -13.5 25t-58.5 14q-14 2 -14 19t14 17h209q205 0 303.5 -89.5
t98.5 -254.5q0 -192 -116.5 -296.5t-305.5 -104.5zM330 908l78 -40l102 40q9 3 17 3q22 0 30 -17l-161 -117l-117 117q14 19 35 19q8 0 16 -5z" />
    <glyph glyph-name="dcaron" unicode="&#x10f;" horiz-adv-x="570" 
d="M359 189l34 260q-32 26 -70 26q-72 0 -130 -90t-58 -209q0 -52 16 -80t44 -28q35 0 70.5 28.5t93.5 92.5zM355 125l-3 1q-98 -134 -186 -134q-59 0 -92.5 43t-33.5 124q0 158 89.5 260t199.5 102q36 0 72 -14q25 193 25 207q0 19 -7.5 26.5t-27.5 7.5h-40q-17 0 -17 17
q0 16 19 20l98 23q32 8 41 8q28 0 28 -35q0 -12 -41.5 -342t-41.5 -350q0 -10 25 -10h67q16 0 16 -13q0 -15 -73 -44.5t-108 -29.5q-24 0 -24 20q0 2 15 113zM569 559q-16 0 -23 16q24 73 24 135q0 25 -3 52.5t-3 33.5q0 14 13 14h65q17 0 17 -20q0 -51 -30.5 -141
t-59.5 -90z" />
    <glyph glyph-name="Dcroat" unicode="&#x110;" horiz-adv-x="765" 
d="M298 0h-271q-16 0 -16 14q0 19 17 22q50 6 69 30.5t28 104.5l20 175h-86q-24 0 -24 22q0 11 7.5 20t18.5 9h90q30 272 30 273q0 18 -13.5 25t-58.5 14q-14 2 -14 19t14 17h209q205 0 303.5 -89.5t98.5 -254.5q0 -192 -116.5 -296.5t-305.5 -104.5zM437 346h-192
q-26 -228 -26 -242q0 -32 19 -44t75 -12q138 0 216.5 96t78.5 256q0 140 -75 217t-216 77h-30l-36 -297h182q30 0 30 -25q0 -10 -7 -18t-19 -8z" />
    <glyph glyph-name="dcroat" unicode="&#x111;" horiz-adv-x="590" 
d="M355 125l-3 1q-98 -134 -186 -134q-59 0 -92.5 43t-33.5 124q0 158 89.5 260t199.5 102q36 0 72 -14l11 85h-132q-26 0 -26 22q0 10 7 17.5t19 7.5h138q1 8 3 26.5t3.5 32.5t1.5 16q0 19 -7.5 26.5t-27.5 7.5h-40q-17 0 -17 17q0 16 19 20l98 23q32 8 41 8q28 0 28 -35
q0 -6 -7 -65t-10 -77h64q23 0 23 -23q0 -24 -22 -24h-70q-6 -41 -33.5 -264t-27.5 -239q0 -10 25 -10h67q16 0 16 -13q0 -15 -73 -44.5t-108 -29.5q-24 0 -24 20q0 2 15 113zM359 189l34 260q-32 26 -70 26q-72 0 -130 -90t-58 -209q0 -52 16 -80t44 -28q35 0 70.5 28.5
t93.5 92.5z" />
    <glyph glyph-name="Emacron" unicode="&#x112;" horiz-adv-x="619" 
d="M494 0h-467q-16 0 -16 14q0 19 17 22q50 6 69 30.5t28 104.5q56 476 56 499q0 18 -13.5 25t-58.5 14q-14 2 -14 19t14 17h452q12 0 17 -2.5t5 -12.5q0 -17 -13 -160q-1 -16 -17 -16q-15 0 -17 18q-2 57 -27.5 89.5t-72.5 32.5h-152l-31 -281q43 -5 88 -5q29 0 44 1.5
t35.5 9t32.5 25t19 46.5q3 14 18 14q14 0 14 -14q0 -7 -9 -101t-9 -103q0 -15 -15 -15q-17 0 -17 18q0 25 -9.5 40.5t-29 21.5t-34.5 7.5t-41 1.5q-40 0 -94 -4q-1 -12 -8.5 -77.5t-14.5 -125t-7 -62.5q0 -25 26 -33t102 -8q38 0 67.5 11t52 35.5t33.5 40t29 47.5
q8 12 20 12q14 0 14 -11t-36 -164q-5 -21 -30 -21zM484 820h-212q-26 0 -26 26q0 11 6.5 19t18.5 8h209q15 0 22.5 -7.5t7.5 -18.5t-7 -19t-19 -8z" />
    <glyph glyph-name="emacron" unicode="&#x113;" horiz-adv-x="451" 
d="M423 420q0 -64 -59.5 -106.5t-230.5 -101.5q4 -72 34 -109t75 -37q37 0 71.5 17t55.5 34t26 17q12 0 12 -14q0 -37 -63.5 -82.5t-144.5 -45.5q-66 0 -110 59t-44 149q0 153 75 237t177 84q60 0 93 -29t33 -72zM329 415q0 57 -55 57q-48 0 -92 -57t-49 -159q114 44 155 81
t41 78zM401 636h-212q-26 0 -26 26q0 11 6.5 19t18.5 8h209q15 0 22.5 -7.5t7.5 -18.5t-7 -19t-19 -8z" />
    <glyph glyph-name="Ebreve" unicode="&#x114;" horiz-adv-x="619" 
d="M494 0h-467q-16 0 -16 14q0 19 17 22q50 6 69 30.5t28 104.5q56 476 56 499q0 18 -13.5 25t-58.5 14q-14 2 -14 19t14 17h452q12 0 17 -2.5t5 -12.5q0 -17 -13 -160q-1 -16 -17 -16q-15 0 -17 18q-2 57 -27.5 89.5t-72.5 32.5h-152l-31 -281q43 -5 88 -5q29 0 44 1.5
t35.5 9t32.5 25t19 46.5q3 14 18 14q14 0 14 -14q0 -7 -9 -101t-9 -103q0 -15 -15 -15q-17 0 -17 18q0 25 -9.5 40.5t-29 21.5t-34.5 7.5t-41 1.5q-40 0 -94 -4q-1 -12 -8.5 -77.5t-14.5 -125t-7 -62.5q0 -25 26 -33t102 -8q38 0 67.5 11t52 35.5t33.5 40t29 47.5
q8 12 20 12q14 0 14 -11t-36 -164q-5 -21 -30 -21zM377 783q-63 0 -100 35t-37 87q0 10 5 16t12 6q10 0 15 -12q28 -64 107 -64q86 0 121 64q7 13 18 13q14 0 14 -19q-1 -44 -47 -85t-108 -41z" />
    <glyph glyph-name="ebreve" unicode="&#x115;" horiz-adv-x="451" 
d="M423 420q0 -64 -59.5 -106.5t-230.5 -101.5q4 -72 34 -109t75 -37q37 0 71.5 17t55.5 34t26 17q12 0 12 -14q0 -37 -63.5 -82.5t-144.5 -45.5q-66 0 -110 59t-44 149q0 153 75 237t177 84q60 0 93 -29t33 -72zM329 415q0 57 -55 57q-48 0 -92 -57t-49 -159q114 44 155 81
t41 78zM287 582q-57 0 -92.5 39.5t-35.5 92.5q0 22 15 22q9 0 14 -12q32 -74 106 -74q81 0 122 74q7 13 18 13q15 0 15 -17q0 -37 -48 -87.5t-114 -50.5z" />
    <glyph glyph-name="Edotaccent" unicode="&#x116;" horiz-adv-x="619" 
d="M494 0h-467q-16 0 -16 14q0 19 17 22q50 6 69 30.5t28 104.5q56 476 56 499q0 18 -13.5 25t-58.5 14q-14 2 -14 19t14 17h452q12 0 17 -2.5t5 -12.5q0 -17 -13 -160q-1 -16 -17 -16q-15 0 -17 18q-2 57 -27.5 89.5t-72.5 32.5h-152l-31 -281q43 -5 88 -5q29 0 44 1.5
t35.5 9t32.5 25t19 46.5q3 14 18 14q14 0 14 -14q0 -7 -9 -101t-9 -103q0 -15 -15 -15q-17 0 -17 18q0 25 -9.5 40.5t-29 21.5t-34.5 7.5t-41 1.5q-40 0 -94 -4q-1 -12 -8.5 -77.5t-14.5 -125t-7 -62.5q0 -25 26 -33t102 -8q38 0 67.5 11t52 35.5t33.5 40t29 47.5
q8 12 20 12q14 0 14 -11t-36 -164q-5 -21 -30 -21zM314 846q0 28 20 48t48 20t48 -20t20 -48t-20 -48t-48 -20t-48 20t-20 48z" />
    <glyph glyph-name="edotaccent" unicode="&#x117;" horiz-adv-x="451" 
d="M423 420q0 -64 -59.5 -106.5t-230.5 -101.5q4 -72 34 -109t75 -37q37 0 71.5 17t55.5 34t26 17q12 0 12 -14q0 -37 -63.5 -82.5t-144.5 -45.5q-66 0 -110 59t-44 149q0 153 75 237t177 84q60 0 93 -29t33 -72zM329 415q0 57 -55 57q-48 0 -92 -57t-49 -159q114 44 155 81
t41 78zM228 672q0 28 20 48t48 20t48 -20t20 -48t-20 -48t-48 -20t-48 20t-20 48z" />
    <glyph glyph-name="Eogonek" unicode="&#x118;" horiz-adv-x="619" 
d="M316 -140q0 84 75 140h-364q-16 0 -16 14q0 19 17 22q50 6 69 30.5t28 104.5q56 476 56 499q0 18 -13.5 25t-58.5 14q-14 2 -14 19t14 17h452q12 0 17 -2.5t5 -12.5q0 -17 -13 -160q-1 -16 -17 -16q-15 0 -17 18q-2 57 -27.5 89.5t-72.5 32.5h-152l-31 -281q43 -5 88 -5
q29 0 44 1.5t35.5 9t32.5 25t19 46.5q3 14 18 14q14 0 14 -14q0 -7 -9 -101t-9 -103q0 -15 -15 -15q-17 0 -17 18q0 25 -9.5 40.5t-29 21.5t-34.5 7.5t-41 1.5q-40 0 -94 -4q-1 -12 -8.5 -77.5t-14.5 -125t-7 -62.5q0 -25 26 -33t102 -8q38 0 67.5 11t52 35.5t33.5 40
t29 47.5q8 12 20 12q14 0 14 -11t-36 -164q-5 -21 -30 -21q-31 0 -65.5 -31t-34.5 -76q0 -32 20 -49t52 -17q38 0 63 16q8 -45 -14 -71t-79 -26q-50 0 -85 29t-35 85z" />
    <glyph glyph-name="eogonek" unicode="&#x119;" horiz-adv-x="451" 
d="M101 -140q0 73 69 135q-55 13 -90 69.5t-35 135.5q0 153 75 237t177 84q60 0 93 -29t33 -72q0 -64 -59.5 -106.5t-230.5 -101.5q4 -72 34 -109t75 -37q37 0 71.5 17t55.5 34t26 17q12 0 12 -14q0 -29 -44.5 -66t-109.5 -56q-31 -10 -52.5 -38t-21.5 -67q0 -32 20 -49
t52 -17q38 0 63 16q8 -45 -14 -71t-79 -26q-50 0 -85 29t-35 85zM329 415q0 57 -55 57q-48 0 -92 -57t-49 -159q114 44 155 81t41 78z" />
    <glyph glyph-name="Ecaron" unicode="&#x11a;" horiz-adv-x="619" 
d="M494 0h-467q-16 0 -16 14q0 19 17 22q50 6 69 30.5t28 104.5q56 476 56 499q0 18 -13.5 25t-58.5 14q-14 2 -14 19t14 17h452q12 0 17 -2.5t5 -12.5q0 -17 -13 -160q-1 -16 -17 -16q-15 0 -17 18q-2 57 -27.5 89.5t-72.5 32.5h-152l-31 -281q43 -5 88 -5q29 0 44 1.5
t35.5 9t32.5 25t19 46.5q3 14 18 14q14 0 14 -14q0 -7 -9 -101t-9 -103q0 -15 -15 -15q-17 0 -17 18q0 25 -9.5 40.5t-29 21.5t-34.5 7.5t-41 1.5q-40 0 -94 -4q-1 -12 -8.5 -77.5t-14.5 -125t-7 -62.5q0 -25 26 -33t102 -8q38 0 67.5 11t52 35.5t33.5 40t29 47.5
q8 12 20 12q14 0 14 -11t-36 -164q-5 -21 -30 -21zM305 908l78 -40l102 40q9 3 17 3q22 0 30 -17l-161 -117l-117 117q14 19 35 19q8 0 16 -5z" />
    <glyph glyph-name="ecaron" unicode="&#x11b;" horiz-adv-x="451" 
d="M423 420q0 -64 -59.5 -106.5t-230.5 -101.5q4 -72 34 -109t75 -37q37 0 71.5 17t55.5 34t26 17q12 0 12 -14q0 -37 -63.5 -82.5t-144.5 -45.5q-66 0 -110 59t-44 149q0 153 75 237t177 84q60 0 93 -29t33 -72zM329 415q0 57 -55 57q-48 0 -92 -57t-49 -159q114 44 155 81
t41 78zM233 743l64 -67l100 72q7 6 17 6q18 0 28 -16l-159 -154l-101 158q10 12 25 12t26 -11z" />
    <glyph glyph-name="Gcircumflex" unicode="&#x11c;" horiz-adv-x="748" 
d="M537 95q19 155 19 167q0 19 -14 26.5t-58 13.5q-14 2 -14 19t14 17h252q17 0 17 -16q0 -17 -18 -20q-45 -5 -63 -32.5t-26 -102.5l-7 -65q3 -5 9.5 -13t10 -13.5t3.5 -10.5q0 -11 -21 -21q-104 -52 -250 -52q-165 0 -255.5 98.5t-90.5 245.5q0 194 113.5 305t324.5 111
q93 0 187 -23q11 -3 11 -17q0 -6 -5.5 -47.5t-12 -88t-6.5 -49.5q-1 -14 -18 -14q-18 0 -19 16q-3 35 -9 59.5t-22.5 53.5t-52 44.5t-89.5 15.5q-52 0 -101.5 -22t-92.5 -63.5t-69 -112t-26 -158.5q0 -136 65.5 -218t175.5 -82q132 0 138 49zM571 789l-78 40l-102 -40
q-9 -3 -17 -3q-22 0 -30 17l161 117l117 -117q-14 -19 -35 -19q-8 0 -16 5z" />
    <glyph glyph-name="gcircumflex" unicode="&#x11d;" horiz-adv-x="525" 
d="M358 198l32 254q-31 25 -67 25q-70 0 -124.5 -87.5t-54.5 -203.5q0 -52 16 -79t44 -27q30 0 62.5 26.5t91.5 91.5zM425 30q-8 -67 -32.5 -118t-55 -80t-70 -48t-74 -25t-71.5 -6q-90 0 -131 34t-41 83q0 35 24.5 57.5t57.5 22.5q23 0 46 -14q-25 -34 -25 -67
q0 -32 21 -53.5t56 -21.5q77 0 134.5 55.5t73.5 168.5l16 118l-3 1q-49 -65 -90.5 -98t-93.5 -33q-54 0 -86 42.5t-32 120.5q0 155 86 253.5t194 98.5q34 0 73 -14q61 14 63 14q18 0 18 -18q0 -6 -58 -473zM399 600l-64 67l-100 -72q-7 -6 -17 -6q-18 0 -28 16l159 154
l101 -158q-11 -12 -25 -12q-15 0 -26 11z" />
    <glyph glyph-name="Gbreve" unicode="&#x11e;" horiz-adv-x="748" 
d="M537 95q19 155 19 167q0 19 -14 26.5t-58 13.5q-14 2 -14 19t14 17h252q17 0 17 -16q0 -17 -18 -20q-45 -5 -63 -32.5t-26 -102.5l-7 -65q3 -5 9.5 -13t10 -13.5t3.5 -10.5q0 -11 -21 -21q-104 -52 -250 -52q-165 0 -255.5 98.5t-90.5 245.5q0 194 113.5 305t324.5 111
q93 0 187 -23q11 -3 11 -17q0 -6 -5.5 -47.5t-12 -88t-6.5 -49.5q-1 -14 -18 -14q-18 0 -19 16q-3 35 -9 59.5t-22.5 53.5t-52 44.5t-89.5 15.5q-52 0 -101.5 -22t-92.5 -63.5t-69 -112t-26 -158.5q0 -136 65.5 -218t175.5 -82q132 0 138 49zM492 783q-63 0 -100 35t-37 87
q0 10 5 16t12 6q10 0 15 -12q28 -64 107 -64q86 0 121 64q7 13 18 13q14 0 14 -19q-1 -44 -47 -85t-108 -41z" />
    <glyph glyph-name="gbreve" unicode="&#x11f;" horiz-adv-x="525" 
d="M358 198l32 254q-31 25 -67 25q-70 0 -124.5 -87.5t-54.5 -203.5q0 -52 16 -79t44 -27q30 0 62.5 26.5t91.5 91.5zM425 30q-8 -67 -32.5 -118t-55 -80t-70 -48t-74 -25t-71.5 -6q-90 0 -131 34t-41 83q0 35 24.5 57.5t57.5 22.5q23 0 46 -14q-25 -34 -25 -67
q0 -32 21 -53.5t56 -21.5q77 0 134.5 55.5t73.5 168.5l16 118l-3 1q-49 -65 -90.5 -98t-93.5 -33q-54 0 -86 42.5t-32 120.5q0 155 86 253.5t194 98.5q34 0 73 -14q61 14 63 14q18 0 18 -18q0 -6 -58 -473zM328 582q-57 0 -92.5 39.5t-35.5 92.5q0 22 15 22q9 0 14 -12
q32 -74 106 -74q81 0 122 74q7 13 18 13q15 0 15 -17q0 -37 -48 -87.5t-114 -50.5z" />
    <glyph glyph-name="Gdotaccent" unicode="&#x120;" horiz-adv-x="748" 
d="M537 95q19 155 19 167q0 19 -14 26.5t-58 13.5q-14 2 -14 19t14 17h252q17 0 17 -16q0 -17 -18 -20q-45 -5 -63 -32.5t-26 -102.5l-7 -65q3 -5 9.5 -13t10 -13.5t3.5 -10.5q0 -11 -21 -21q-104 -52 -250 -52q-165 0 -255.5 98.5t-90.5 245.5q0 194 113.5 305t324.5 111
q93 0 187 -23q11 -3 11 -17q0 -6 -5.5 -47.5t-12 -88t-6.5 -49.5q-1 -14 -18 -14q-18 0 -19 16q-3 35 -9 59.5t-22.5 53.5t-52 44.5t-89.5 15.5q-52 0 -101.5 -22t-92.5 -63.5t-69 -112t-26 -158.5q0 -136 65.5 -218t175.5 -82q132 0 138 49zM409 846q0 28 20 48t48 20
t48 -20t20 -48t-20 -48t-48 -20t-48 20t-20 48z" />
    <glyph glyph-name="gdotaccent" unicode="&#x121;" horiz-adv-x="525" 
d="M358 198l32 254q-31 25 -67 25q-70 0 -124.5 -87.5t-54.5 -203.5q0 -52 16 -79t44 -27q30 0 62.5 26.5t91.5 91.5zM425 30q-8 -67 -32.5 -118t-55 -80t-70 -48t-74 -25t-71.5 -6q-90 0 -131 34t-41 83q0 35 24.5 57.5t57.5 22.5q23 0 46 -14q-25 -34 -25 -67
q0 -32 21 -53.5t56 -21.5q77 0 134.5 55.5t73.5 168.5l16 118l-3 1q-49 -65 -90.5 -98t-93.5 -33q-54 0 -86 42.5t-32 120.5q0 155 86 253.5t194 98.5q34 0 73 -14q61 14 63 14q18 0 18 -18q0 -6 -58 -473zM269 672q0 28 20 48t48 20t48 -20t20 -48t-20 -48t-48 -20t-48 20
t-20 48z" />
    <glyph glyph-name="Gcommaaccent" unicode="&#x122;" horiz-adv-x="748" 
d="M537 95q19 155 19 167q0 19 -14 26.5t-58 13.5q-14 2 -14 19t14 17h252q17 0 17 -16q0 -17 -18 -20q-45 -5 -63 -32.5t-26 -102.5l-7 -65q3 -5 9.5 -13t10 -13.5t3.5 -10.5q0 -11 -21 -21q-104 -52 -250 -52q-165 0 -255.5 98.5t-90.5 245.5q0 194 113.5 305t324.5 111
q93 0 187 -23q11 -3 11 -17q0 -6 -5.5 -47.5t-12 -88t-6.5 -49.5q-1 -14 -18 -14q-18 0 -19 16q-3 35 -9 59.5t-22.5 53.5t-52 44.5t-89.5 15.5q-52 0 -101.5 -22t-92.5 -63.5t-69 -112t-26 -158.5q0 -136 65.5 -218t175.5 -82q132 0 138 49zM467 -133q0 -46 -40 -79
t-74 -33q-14 0 -14 13q0 11 11 15q30 10 30 45q0 4 -2 14l-46 45q0 22 18.5 40t47.5 18q28 0 48.5 -19.5t20.5 -58.5z" />
    <glyph glyph-name="gcommaaccent" unicode="&#x123;" horiz-adv-x="525" 
d="M358 198l32 254q-31 25 -67 25q-70 0 -124.5 -87.5t-54.5 -203.5q0 -52 16 -79t44 -27q30 0 62.5 26.5t91.5 91.5zM425 30q-8 -67 -32.5 -118t-55 -80t-70 -48t-74 -25t-71.5 -6q-90 0 -131 34t-41 83q0 35 24.5 57.5t57.5 22.5q23 0 46 -14q-25 -34 -25 -67
q0 -32 21 -53.5t56 -21.5q77 0 134.5 55.5t73.5 168.5l16 118l-3 1q-49 -65 -90.5 -98t-93.5 -33q-54 0 -86 42.5t-32 120.5q0 155 86 253.5t194 98.5q34 0 73 -14q61 14 63 14q18 0 18 -18q0 -6 -58 -473zM366 768q15 4 18.5 -9t-10.5 -18q-18 -6 -25.5 -23.5t-2.5 -35.5
l46 -45q0 -22 -18.5 -40t-47.5 -18q-28 0 -48.5 19.5t-20.5 58.5t28 68t81 43z" />
    <glyph glyph-name="Hcircumflex" unicode="&#x124;" horiz-adv-x="845" 
d="M760 0h-271q-16 0 -16 14q0 19 17 22q50 6 69 30.5t28 104.5l19 171h-363q-29 -242 -29 -261q0 -22 17 -30t67 -15q14 -2 14 -19t-14 -17h-271q-16 0 -16 14q0 19 17 22q50 6 69 30.5t28 104.5q56 476 56 499q0 18 -13.5 25t-58.5 14q-14 2 -14 19t14 17h251q12 0 12 -14
q0 -19 -18 -22q-45 -7 -60 -32.5t-24 -102.5l-21 -178h364q5 47 13.5 120.5t12.5 111.5t4 42q0 18 -13.5 25t-58.5 14q-14 2 -14 19t14 17h251q12 0 12 -14q0 -19 -18 -22q-45 -7 -60 -32.5t-24 -102.5q-1 -5 -15 -128.5t-27.5 -242t-13.5 -122.5q0 -22 17 -30t67 -15
q14 -2 14 -19t-14 -17zM560 789l-78 40l-102 -40q-9 -3 -17 -3q-22 0 -30 17l161 117l117 -117q-14 -19 -35 -19q-8 0 -16 5z" />
    <glyph glyph-name="hcircumflex" unicode="&#x125;" horiz-adv-x="558" 
d="M194 387h3q61 65 109.5 99.5t94.5 34.5q35 0 57.5 -20.5t22.5 -58.5q0 -21 -28 -183t-28 -169q0 -10 26 -10h64q19 0 19 -11q0 -17 -72 -47t-108 -30q-24 0 -24 18q0 9 28.5 195t28.5 200q0 33 -32 33q-31 0 -66.5 -26t-99.5 -88l-36 -297q-1 -16 -15 -20
q-47 -15 -67 -15q-10 0 -10 11q0 16 43.5 357.5t43.5 353.5q0 19 -7.5 26.5t-27.5 7.5h-40q-17 0 -17 17q0 16 19 20l100 23q32 8 41 8q28 0 28 -31q0 -13 -11.5 -103.5t-24.5 -188.5t-14 -106zM290 844l-78 40l-102 -40q-9 -3 -17 -3q-22 0 -30 17l161 117l117 -117
q-14 -19 -35 -19q-8 0 -16 5z" />
    <glyph glyph-name="Hbar" unicode="&#x126;" horiz-adv-x="845" 
d="M760 0h-271q-16 0 -16 14q0 19 17 22q50 6 69 30.5t28 104.5l19 171h-363q-29 -242 -29 -261q0 -22 17 -30t67 -15q14 -2 14 -19t-14 -17h-271q-16 0 -16 14q0 19 17 22q50 6 69 30.5t28 104.5q56 476 56 499q0 18 -13.5 25t-58.5 14q-14 2 -14 19t14 17h251q12 0 12 -14
q0 -19 -18 -22q-45 -7 -60 -32.5t-24 -102.5l-5 -44h363q3 29 7 66t6 54t2 20q0 18 -13.5 25t-58.5 14q-14 2 -14 19t14 17h251q12 0 12 -14q0 -19 -18 -22q-45 -7 -60 -32.5t-24 -102.5q-1 -5 -15 -128.5t-27.5 -242t-13.5 -122.5q0 -22 17 -30t67 -15q14 -2 14 -19
t-14 -17zM613 396l9 84h-363l-10 -84h364z" />
    <glyph glyph-name="hbar" unicode="&#x127;" horiz-adv-x="558" 
d="M361 592h-140l-27 -205h3q61 65 109.5 99.5t94.5 34.5q35 0 57.5 -20.5t22.5 -58.5q0 -21 -28 -183t-28 -169q0 -10 26 -10h64q19 0 19 -11q0 -17 -72 -47t-108 -30q-24 0 -24 18q0 9 28.5 195t28.5 200q0 33 -32 33q-31 0 -66.5 -26t-99.5 -88l-36 -297q-1 -16 -15 -20
q-47 -15 -67 -15q-10 0 -10 11q0 10 17.5 150t36 287t19.5 152h-61q-26 0 -26 22q0 10 7 17.5t19 7.5h67q8 64 8 75q0 19 -7.5 26.5t-27.5 7.5h-40q-17 0 -17 17q0 16 19 20l100 23q32 8 41 8q28 0 28 -31q0 -12 -17 -146h133q23 0 23 -23q0 -24 -22 -24z" />
    <glyph glyph-name="Itilde" unicode="&#x128;" horiz-adv-x="382" 
d="M298 0h-271q-16 0 -16 14q0 19 17 22q50 6 69 30.5t28 104.5q56 476 56 499q0 18 -13.5 25t-58.5 14q-14 2 -14 19t14 17h251q12 0 12 -14q0 -19 -18 -22q-45 -7 -60 -32.5t-24 -102.5q-1 -5 -15 -128.5t-27.5 -242t-13.5 -122.5q0 -22 17 -30t67 -15q14 -2 14 -19
t-14 -17zM260 804l-56 26q-20 9 -37 9q-40 0 -43 -53l-25 6q-5 12 -5 30q0 35 23.5 60.5t61.5 25.5q25 0 50 -11l57 -24q20 -9 39 -9q41 0 44 52l25 -6q5 -12 5 -30q0 -35 -23 -62t-62 -27q-25 0 -54 13z" />
    <glyph glyph-name="itilde" unicode="&#x129;" horiz-adv-x="322" 
d="M88 14q0 16 24.5 201t24.5 200q0 6 -4.5 7.5t-20.5 1.5h-61q-13 0 -13 13q0 16 69.5 50t103.5 34q24 0 24 -21q0 -9 -24 -200.5t-24 -204.5q0 -10 4.5 -12.5t20.5 -2.5h64q16 0 16 -13q0 -15 -72.5 -44.5t-107.5 -29.5q-24 0 -24 21zM224 617l-56 26q-20 9 -37 9
q-40 0 -43 -53l-25 6q-5 13 -5 30q0 35 23.5 60.5t61.5 25.5q25 0 50 -11l57 -24q20 -9 39 -9q41 0 44 52l25 -6q5 -12 5 -30q0 -35 -23 -62t-62 -27q-25 0 -54 13z" />
    <glyph glyph-name="imacron" unicode="&#x12b;" horiz-adv-x="322" 
d="M88 14q0 16 24.5 201t24.5 200q0 6 -4.5 7.5t-20.5 1.5h-61q-13 0 -13 13q0 16 69.5 50t103.5 34q24 0 24 -21q0 -9 -24 -200.5t-24 -204.5q0 -10 4.5 -12.5t20.5 -2.5h64q16 0 16 -13q0 -15 -72.5 -44.5t-107.5 -29.5q-24 0 -24 21zM312 636h-212q-26 0 -26 26
q0 11 6.5 19t18.5 8h209q15 0 22.5 -7.5t7.5 -18.5t-7 -19t-19 -8z" />
    <glyph glyph-name="Ibreve" unicode="&#x12c;" horiz-adv-x="382" 
d="M298 0h-271q-16 0 -16 14q0 19 17 22q50 6 69 30.5t28 104.5q56 476 56 499q0 18 -13.5 25t-58.5 14q-14 2 -14 19t14 17h251q12 0 12 -14q0 -19 -18 -22q-45 -7 -60 -32.5t-24 -102.5q-1 -5 -15 -128.5t-27.5 -242t-13.5 -122.5q0 -22 17 -30t67 -15q14 -2 14 -19
t-14 -17zM251 778q-63 0 -100 35t-37 87q0 10 5 16t12 6q10 0 15 -12q28 -64 107 -64q86 0 121 64q7 13 18 13q14 0 14 -19q-1 -44 -47 -85t-108 -41z" />
    <glyph glyph-name="Iogonek" unicode="&#x12e;" horiz-adv-x="382" 
d="M298 0q-38 0 -67.5 -30t-29.5 -77q0 -32 20 -49t52 -17q38 0 63 16q8 -45 -14 -71t-79 -26q-50 0 -85 29t-35 85q0 84 75 140h-171q-16 0 -16 14q0 19 17 22q50 6 69 30.5t28 104.5q56 476 56 499q0 18 -13.5 25t-58.5 14q-14 2 -14 19t14 17h251q12 0 12 -14
q0 -19 -18 -22q-45 -7 -60 -32.5t-24 -102.5q-1 -5 -15 -128.5t-27.5 -242t-13.5 -122.5q0 -22 17 -30t67 -15q14 -2 14 -19t-14 -17z" />
    <glyph glyph-name="iogonek" unicode="&#x12f;" horiz-adv-x="322" 
d="M28 -140q0 72 65 139q-5 5 -5 15q0 16 24.5 201t24.5 200q0 6 -4.5 7.5t-20.5 1.5h-61q-13 0 -13 13q0 16 69.5 50t103.5 34q24 0 24 -21q0 -9 -24 -200.5t-24 -204.5q0 -10 4.5 -12.5t20.5 -2.5h64q16 0 16 -13q0 -10 -34 -29.5t-71 -30.5q-81 -25 -81 -114
q0 -32 20 -49t52 -17q38 0 63 16q8 -45 -14 -71t-79 -26q-50 0 -85 29t-35 85zM141 684q0 28 20 48t48 20t48 -20t20 -48t-20 -48t-48 -20t-48 20t-20 48z" />
    <glyph glyph-name="Idotaccent" unicode="&#x130;" horiz-adv-x="382" 
d="M298 0h-271q-16 0 -16 14q0 19 17 22q50 6 69 30.5t28 104.5q56 476 56 499q0 18 -13.5 25t-58.5 14q-14 2 -14 19t14 17h251q12 0 12 -14q0 -19 -18 -22q-45 -7 -60 -32.5t-24 -102.5q-1 -5 -15 -128.5t-27.5 -242t-13.5 -122.5q0 -22 17 -30t67 -15q14 -2 14 -19
t-14 -17zM188 841q0 28 20 48t48 20t48 -20t20 -48t-20 -48t-48 -20t-48 20t-20 48z" />
    <glyph glyph-name="dotlessi" unicode="&#x131;" horiz-adv-x="322" 
d="M88 14q0 16 24.5 201t24.5 200q0 6 -4.5 7.5t-20.5 1.5h-61q-13 0 -13 13q0 16 69.5 50t103.5 34q24 0 24 -21q0 -9 -24 -200.5t-24 -204.5q0 -10 4.5 -12.5t20.5 -2.5h64q16 0 16 -13q0 -15 -72.5 -44.5t-107.5 -29.5q-24 0 -24 21z" />
    <glyph glyph-name="IJ" unicode="&#x132;" horiz-adv-x="712" 
d="M298 0h-271q-16 0 -16 14q0 19 17 22q50 6 69 30.5t28 104.5q56 476 56 499q0 18 -13.5 25t-58.5 14q-14 2 -14 19t14 17h251q12 0 12 -14q0 -19 -18 -22q-45 -7 -60 -32.5t-24 -102.5q-1 -5 -15 -128.5t-27.5 -242t-13.5 -122.5q0 -22 17 -30t67 -15q14 -2 14 -19
t-14 -17zM722 731q0 -19 -18 -22q-44 -5 -59 -31t-24 -104l-65 -572q-13 -112 -194 -246q-35 -27 -52 -27q-12 0 -18.5 7.5t-6.5 16.5q0 19 22 30l33 17q99 51 120 239q5 42 37 334.5t32 296.5q0 19 -13 26t-58 13q-14 2 -14 19t14 17h252q12 0 12 -14z" />
    <glyph glyph-name="ij" unicode="&#x133;" horiz-adv-x="609" 
d="M88 14q0 16 24.5 201t24.5 200q0 6 -4.5 7.5t-20.5 1.5h-61q-13 0 -13 13q0 16 69.5 50t103.5 34q24 0 24 -21q0 -9 -24 -200.5t-24 -204.5q0 -10 4.5 -12.5t20.5 -2.5h64q16 0 16 -13q0 -15 -72.5 -44.5t-107.5 -29.5q-24 0 -24 21zM141 684q0 28 20 48t48 20t48 -20
t20 -48t-20 -48t-48 -20t-48 20t-20 48zM401 -74q3 15 30.5 244.5t27.5 244.5q0 6 -4.5 7.5t-20.5 1.5h-61q-13 0 -13 13q0 16 69.5 50t103.5 34q24 0 24 -21q0 -8 -13 -112.5t-27.5 -220t-14.5 -116.5q-5 -49 -13 -88t-24.5 -80t-39.5 -68t-60 -44.5t-84 -17.5
q-39 0 -64 16.5t-25 49.5q0 26 16 43.5t43 17.5q17 0 34 -7q0 -37 6.5 -53.5t28.5 -16.5q35 0 52.5 30.5t28.5 92.5zM463 684q0 28 20 48t48 20t48 -20t20 -48t-20 -48t-48 -20t-48 20t-20 48z" />
    <glyph glyph-name="Jcircumflex" unicode="&#x134;" horiz-adv-x="330" 
d="M340 731q0 -19 -18 -22q-44 -5 -59 -31t-24 -104l-65 -572q-13 -112 -194 -246q-35 -27 -52 -27q-12 0 -18.5 7.5t-6.5 16.5q0 19 22 30l33 17q99 51 120 239q5 42 37 334.5t32 296.5q0 19 -13 26t-58 13q-14 2 -14 19t14 17h252q12 0 12 -14zM295 789l-78 40l-102 -40
q-9 -3 -17 -3q-22 0 -30 17l161 117l117 -117q-14 -19 -35 -19q-8 0 -16 5z" />
    <glyph glyph-name="jcircumflex" unicode="&#x135;" horiz-adv-x="287" 
d="M79 -74q3 15 30.5 244.5t27.5 244.5q0 6 -4.5 7.5t-20.5 1.5h-61q-13 0 -13 13q0 16 69.5 50t103.5 34q24 0 24 -21q0 -8 -13 -112.5t-27.5 -220t-14.5 -116.5q-5 -49 -13 -88t-24.5 -80t-39.5 -68t-60 -44.5t-84 -17.5q-39 0 -64 16.5t-25 49.5q0 26 16 43.5t43 17.5
q17 0 34 -7q0 -37 6.5 -53.5t28.5 -16.5q35 0 52.5 30.5t28.5 92.5zM264 600l-64 67l-100 -72q-8 -6 -17 -6q-18 0 -28 16l159 154l101 -158q-11 -12 -25 -12q-15 0 -26 11z" />
    <glyph glyph-name="Kcommaaccent" unicode="&#x136;" horiz-adv-x="702" 
d="M687 -19q0 -13 -45 -13q-123 0 -161 64l-207 344l215 258q25 30 25 44q0 24 -51 30q-16 3 -16 20t18 17h230q17 0 17 -15q0 -16 -16 -21q-86 -19 -139 -82l-194 -226l194 -295q34 -51 56 -72.5t66 -41.5q8 -3 8 -11zM298 0h-271q-16 0 -16 14q0 19 17 22q50 6 69 30.5
t28 104.5q56 476 56 499q0 18 -13.5 25t-58.5 14q-14 2 -14 19t14 17h251q12 0 12 -14q0 -19 -18 -22q-45 -7 -60 -32.5t-24 -102.5q-1 -5 -15 -128.5t-27.5 -242t-13.5 -122.5q0 -22 17 -30t67 -15q14 -2 14 -19t-14 -17zM409 -133q0 -46 -40 -79t-74 -33q-14 0 -14 13
q0 11 11 15q30 10 30 45q0 4 -2 14l-46 45q0 22 18.5 40t47.5 18q28 0 48.5 -19.5t20.5 -58.5z" />
    <glyph glyph-name="kcommaaccent" unicode="&#x137;" horiz-adv-x="521" 
d="M403 396q0 46 -43 46q-35 0 -86.5 -43.5t-92.5 -117.5l-6 -41q20 1 56 13.5t75.5 31.5t68 49.5t28.5 61.5zM190 354h2q37 83 92.5 125t114.5 42q41 0 67 -25.5t26 -63.5q0 -69 -57.5 -120.5t-144.5 -76.5q50 -94 74.5 -125t40.5 -31q5 0 46.5 8t48.5 8q11 0 11 -11
q0 -18 -56 -55t-83 -37q-65 0 -155 217l-46 -13l-18 -169q-1 -16 -15 -20q-47 -15 -67 -15q-10 0 -10 11q0 16 43.5 357.5t43.5 353.5q0 19 -7.5 26.5t-27.5 7.5h-40q-17 0 -17 17q0 16 19 20l100 23q32 8 41 8q28 0 28 -31q0 -13 -12.5 -111.5t-26.5 -205t-15 -114.5z
M293 -133q0 -46 -40 -79t-74 -33q-14 0 -14 13q0 11 11 15q30 10 30 45q0 4 -2 14l-46 45q0 22 18.5 40t47.5 18q28 0 48.5 -19.5t20.5 -58.5z" />
    <glyph glyph-name="kgreenlandic" unicode="&#x138;" horiz-adv-x="544" 
d="M426 396q0 46 -43 46q-35 0 -86.5 -43.5t-92.5 -117.5l-6 -41q20 1 56 13.5t75.5 31.5t68 49.5t28.5 61.5zM134 411q0 9 -5 11t-20 2h-55q-16 0 -16 13q0 16 69.5 50t103.5 34q24 0 24 -20q0 -6 -3.5 -29t-9.5 -58t-9 -60h2q37 83 92.5 125t114.5 42q41 0 67 -25.5
t26 -63.5q0 -69 -57.5 -120.5t-144.5 -76.5q50 -94 74.5 -125t40.5 -31q5 0 46.5 8t48.5 8q11 0 11 -11q0 -18 -56 -55t-83 -37q-65 0 -155 217l-46 -13l-18 -169q-1 -16 -15 -20q-47 -15 -67 -15q-10 0 -10 11q0 16 25 206t25 202z" />
    <glyph glyph-name="Lacute" unicode="&#x139;" horiz-adv-x="548" 
d="M372 731q0 -19 -18 -22q-44 -5 -58.5 -30.5t-23.5 -104.5q-1 -9 -27 -240t-26 -234q0 -29 23 -38t89 -9q38 0 67.5 11t51 33t34 40t27.5 47q6 11 19 11q16 0 16 -14q0 -3 -32 -142q-4 -19 -13 -27.5t-19 -10t-36 -1.5h-419q-16 0 -16 14q0 19 17 22q50 6 69 30.5
t28 104.5q56 476 56 499q0 18 -13.5 25t-58.5 14q-14 2 -14 19t14 17h251q12 0 12 -14zM211 789q-31 0 -31 33q48 21 81 42.5t44.5 34.5t19.5 21t15 8q10 0 36 -32q21 -25 21 -35q0 -11 -13 -17q-33 -19 -91 -37t-82 -18z" />
    <glyph glyph-name="lacute" unicode="&#x13a;" horiz-adv-x="292" 
d="M242 785q0 -14 -41.5 -345.5t-41.5 -350.5q0 -10 25 -10h67q16 0 16 -13q0 -15 -73 -44.5t-108 -29.5q-24 0 -24 20q0 16 43 353t43 349q0 19 -7.5 26.5t-27.5 7.5h-40q-17 0 -17 17q0 16 19 20l98 23q32 8 41 8q28 0 28 -31zM133 844q-31 0 -31 33q48 21 81 42.5
t44.5 34.5t19.5 21t15 8q10 0 36 -32q21 -25 21 -35q0 -11 -13 -17q-33 -19 -91 -37t-82 -18z" />
    <glyph glyph-name="Lcommaaccent" unicode="&#x13b;" horiz-adv-x="548" 
d="M372 731q0 -19 -18 -22q-44 -5 -58.5 -30.5t-23.5 -104.5q-1 -9 -27 -240t-26 -234q0 -29 23 -38t89 -9q38 0 67.5 11t51 33t34 40t27.5 47q6 11 19 11q16 0 16 -14q0 -3 -32 -142q-4 -19 -13 -27.5t-19 -10t-36 -1.5h-419q-16 0 -16 14q0 19 17 22q50 6 69 30.5
t28 104.5q56 476 56 499q0 18 -13.5 25t-58.5 14q-14 2 -14 19t14 17h251q12 0 12 -14zM347 -133q0 -46 -40 -79t-74 -33q-14 0 -14 13q0 11 11 15q30 10 30 45q0 4 -2 14l-46 45q0 22 18.5 40t47.5 18q28 0 48.5 -19.5t20.5 -58.5z" />
    <glyph glyph-name="lcommaaccent" unicode="&#x13c;" horiz-adv-x="292" 
d="M242 785q0 -14 -41.5 -345.5t-41.5 -350.5q0 -10 25 -10h67q16 0 16 -13q0 -15 -73 -44.5t-108 -29.5q-24 0 -24 20q0 16 43 353t43 349q0 19 -7.5 26.5t-27.5 7.5h-40q-17 0 -17 17q0 16 19 20l98 23q32 8 41 8q28 0 28 -31zM193 -133q0 -46 -40 -79t-74 -33
q-14 0 -14 13q0 11 11 15q30 10 30 45q0 4 -2 14l-46 45q0 22 18.5 40t47.5 18q28 0 48.5 -19.5t20.5 -58.5z" />
    <glyph glyph-name="Lcaron" unicode="&#x13d;" horiz-adv-x="548" 
d="M372 731q0 -19 -18 -22q-44 -5 -58.5 -30.5t-23.5 -104.5q-1 -9 -27 -240t-26 -234q0 -29 23 -38t89 -9q38 0 67.5 11t51 33t34 40t27.5 47q6 11 19 11q16 0 16 -14q0 -3 -32 -142q-4 -19 -13 -27.5t-19 -10t-36 -1.5h-419q-16 0 -16 14q0 19 17 22q50 6 69 30.5
t28 104.5q56 476 56 499q0 18 -13.5 25t-58.5 14q-14 2 -14 19t14 17h251q12 0 12 -14zM457 559q-16 0 -23 16q24 73 24 135q0 25 -3 52.5t-3 33.5q0 14 13 14h65q17 0 17 -20q0 -51 -30.5 -141t-59.5 -90z" />
    <glyph glyph-name="lcaron" unicode="&#x13e;" horiz-adv-x="292" 
d="M242 785q0 -14 -41.5 -345.5t-41.5 -350.5q0 -10 25 -10h67q16 0 16 -13q0 -15 -73 -44.5t-108 -29.5q-24 0 -24 20q0 16 43 353t43 349q0 19 -7.5 26.5t-27.5 7.5h-40q-17 0 -17 17q0 16 19 20l98 23q32 8 41 8q28 0 28 -31zM291 559q-16 0 -23 16q24 73 24 135
q0 25 -3 52.5t-3 33.5q0 14 13 14h65q17 0 17 -20q0 -51 -30.5 -141t-59.5 -90z" />
    <glyph glyph-name="Ldot" unicode="&#x13f;" horiz-adv-x="548" 
d="M372 731q0 -19 -18 -22q-44 -5 -58.5 -30.5t-23.5 -104.5q-1 -9 -27 -240t-26 -234q0 -29 23 -38t89 -9q38 0 67.5 11t51 33t34 40t27.5 47q6 11 19 11q16 0 16 -14q0 -3 -32 -142q-4 -19 -13 -27.5t-19 -10t-36 -1.5h-419q-16 0 -16 14q0 19 17 22q50 6 69 30.5
t28 104.5q56 476 56 499q0 18 -13.5 25t-58.5 14q-14 2 -14 19t14 17h251q12 0 12 -14zM401 371q0 30 20.5 51t49.5 21q30 0 51 -21t21 -51q0 -29 -21 -49.5t-51 -20.5q-29 0 -49.5 20.5t-20.5 49.5z" />
    <glyph glyph-name="ldot" unicode="&#x140;" horiz-adv-x="392" 
d="M242 785q0 -14 -41.5 -345.5t-41.5 -350.5q0 -10 25 -10h67q16 0 16 -13q0 -15 -73 -44.5t-108 -29.5q-24 0 -24 20q0 16 43 353t43 349q0 19 -7.5 26.5t-27.5 7.5h-40q-17 0 -17 17q0 16 19 20l98 23q32 8 41 8q28 0 28 -31zM269 334q0 30 20.5 51t49.5 21q30 0 51 -21
t21 -51q0 -29 -21 -49.5t-51 -20.5q-29 0 -49.5 20.5t-20.5 49.5z" />
    <glyph glyph-name="Lslash" unicode="&#x141;" horiz-adv-x="548" 
d="M372 731q0 -19 -18 -22q-44 -5 -58.5 -30.5t-23.5 -104.5l-17 -144l134 80q9 5 18 5q11 0 18 -7.5t7 -17.5q0 -13 -13 -22l-171 -101q-5 -49 -13 -121.5t-12 -108.5t-4 -37q0 -29 23 -38t89 -9q38 0 67.5 11t51 33t34 40t27.5 47q6 11 19 11q16 0 16 -14q0 -3 -32 -142
q-4 -19 -13 -27.5t-19 -10t-36 -1.5h-419q-16 0 -16 14q0 19 17 22q50 6 69 30.5t28 104.5l16 142l-84 -50q-10 -5 -16 -5q-10 0 -16 7t-6 17q0 16 13 23l116 69q33 276 33 296q0 18 -13.5 25t-58.5 14q-14 2 -14 19t14 17h251q12 0 12 -14z" />
    <glyph glyph-name="lslash" unicode="&#x142;" horiz-adv-x="308" 
d="M325 450l-128 -37q-38 -298 -38 -324q0 -10 25 -10h67q16 0 16 -13q0 -15 -73 -44.5t-108 -29.5q-24 0 -24 20q0 25 46 375l-59 -16q-8 -2 -10 -2q-22 0 -22 23q0 18 19 24l78 22q34 264 34 276q0 19 -7.5 26.5t-27.5 7.5h-40q-17 0 -17 17q0 16 19 20l98 23q32 8 41 8
q28 0 28 -31q0 -16 -39 -322l108 32q3 1 8 1q10 0 16 -7t6 -17q0 -18 -16 -22z" />
    <glyph glyph-name="Nacute" unicode="&#x143;" horiz-adv-x="835" 
d="M649 -13q-11 0 -17 9l-394 595h-4q0 -1 -24.5 -235.5t-24.5 -248.5q0 -29 24.5 -45t78.5 -26q14 -3 14 -19q0 -17 -14 -17h-260q-16 0 -16 16q0 18 16 20q51 6 70 30.5t28 104.5l55 479l-50 66q-7 8 -7 17q0 12 13 12h123l363 -550h4q51 408 51 460q0 24 -22.5 36
t-69.5 17q-15 2 -15 19q0 18 14 18h236q14 0 14 -15q0 -20 -17 -22q-45 -4 -60 -30.5t-24 -103.5l-65 -565q-3 -22 -20 -22zM423 789q-31 0 -31 33q48 21 81 42.5t44.5 34.5t19.5 21t15 8q10 0 36 -32q21 -25 21 -35q0 -11 -13 -17q-33 -19 -91 -37t-82 -18z" />
    <glyph glyph-name="nacute" unicode="&#x144;" horiz-adv-x="584" 
d="M424 521q35 0 57.5 -20.5t22.5 -58.5q0 -21 -28 -183t-28 -169q0 -10 26 -10h64q19 0 19 -11q0 -17 -72 -47t-108 -30q-24 0 -24 18q0 9 28.5 195t28.5 200q0 33 -32 33q-31 0 -66.5 -26t-99.5 -88l-36 -297q-1 -16 -15 -20q-47 -15 -67 -15q-10 0 -10 11
q0 12 26.5 208.5t26.5 199.5q0 9 -5 11t-20 2h-58q-16 0 -16 13q0 16 69.5 50t103.5 34q24 0 24 -20q0 -7 -3.5 -27t-8 -47.5t-6.5 -39.5h3q61 65 109.5 99.5t94.5 34.5zM284 597q0 25 58 96.5t80 71.5q11 0 29 -29.5t18 -42.5q0 -7 -8 -11q-49 -21 -80.5 -43t-71.5 -65
q-10 0 -17.5 6t-7.5 17z" />
    <glyph glyph-name="Ncommaaccent" unicode="&#x145;" horiz-adv-x="835" 
d="M649 -13q-11 0 -17 9l-394 595h-4q0 -1 -24.5 -235.5t-24.5 -248.5q0 -29 24.5 -45t78.5 -26q14 -3 14 -19q0 -17 -14 -17h-260q-16 0 -16 16q0 18 16 20q51 6 70 30.5t28 104.5l55 479l-50 66q-7 8 -7 17q0 12 13 12h123l363 -550h4q51 408 51 460q0 24 -22.5 36
t-69.5 17q-15 2 -15 19q0 18 14 18h236q14 0 14 -15q0 -20 -17 -22q-45 -4 -60 -30.5t-24 -103.5l-65 -565q-3 -22 -20 -22zM470 -133q0 -46 -40 -79t-74 -33q-14 0 -14 13q0 11 11 15q30 10 30 45q0 4 -2 14l-46 45q0 22 18.5 40t47.5 18q28 0 48.5 -19.5t20.5 -58.5z" />
    <glyph glyph-name="ncommaaccent" unicode="&#x146;" horiz-adv-x="584" 
d="M424 521q35 0 57.5 -20.5t22.5 -58.5q0 -21 -28 -183t-28 -169q0 -10 26 -10h64q19 0 19 -11q0 -17 -72 -47t-108 -30q-24 0 -24 18q0 9 28.5 195t28.5 200q0 33 -32 33q-31 0 -66.5 -26t-99.5 -88l-36 -297q-1 -16 -15 -20q-47 -15 -67 -15q-10 0 -10 11
q0 12 26.5 208.5t26.5 199.5q0 9 -5 11t-20 2h-58q-16 0 -16 13q0 16 69.5 50t103.5 34q24 0 24 -20q0 -7 -3.5 -27t-8 -47.5t-6.5 -39.5h3q61 65 109.5 99.5t94.5 34.5zM327 -133q0 -46 -40 -79t-74 -33q-14 0 -14 13q0 11 11 15q30 10 30 45q0 4 -2 14l-46 45
q0 22 18.5 40t47.5 18q28 0 48.5 -19.5t20.5 -58.5z" />
    <glyph glyph-name="Ncaron" unicode="&#x147;" horiz-adv-x="835" 
d="M649 -13q-11 0 -17 9l-394 595h-4q0 -1 -24.5 -235.5t-24.5 -248.5q0 -29 24.5 -45t78.5 -26q14 -3 14 -19q0 -17 -14 -17h-260q-16 0 -16 16q0 18 16 20q51 6 70 30.5t28 104.5l55 479l-50 66q-7 8 -7 17q0 12 13 12h123l363 -550h4q51 408 51 460q0 24 -22.5 36
t-69.5 17q-15 2 -15 19q0 18 14 18h236q14 0 14 -15q0 -20 -17 -22q-45 -4 -60 -30.5t-24 -103.5l-65 -565q-3 -22 -20 -22zM398 908l78 -40l102 40q9 3 17 3q22 0 30 -17l-161 -117l-117 117q14 19 35 19q8 0 16 -5z" />
    <glyph glyph-name="ncaron" unicode="&#x148;" horiz-adv-x="584" 
d="M424 521q35 0 57.5 -20.5t22.5 -58.5q0 -21 -28 -183t-28 -169q0 -10 26 -10h64q19 0 19 -11q0 -17 -72 -47t-108 -30q-24 0 -24 18q0 9 28.5 195t28.5 200q0 33 -32 33q-31 0 -66.5 -26t-99.5 -88l-36 -297q-1 -16 -15 -20q-47 -15 -67 -15q-10 0 -10 11
q0 12 26.5 208.5t26.5 199.5q0 9 -5 11t-20 2h-58q-16 0 -16 13q0 16 69.5 50t103.5 34q24 0 24 -20q0 -7 -3.5 -27t-8 -47.5t-6.5 -39.5h3q61 65 109.5 99.5t94.5 34.5zM284 743l64 -67l100 72q8 6 17 6q18 0 28 -16l-159 -154l-101 158q11 12 25 12q15 0 26 -11z" />
    <glyph glyph-name="Eng" unicode="&#x14a;" horiz-adv-x="825" 
d="M734 574l-67 -581q-13 -111 -71 -175.5t-144 -64.5q-70 0 -106 25t-36 65q0 27 21 46t50 19q22 0 44 -8q0 -50 9.5 -71t42.5 -21q110 0 132 223l-371 560h-4q0 -1 -24.5 -235.5t-24.5 -248.5q0 -29 24.5 -45t78.5 -26q14 -3 14 -19q0 -17 -14 -17h-260q-16 0 -16 16
q0 18 16 20q51 6 70 30.5t28 104.5l55 479l-50 66q-7 8 -7 17q0 12 13 12h123l363 -550h4q51 408 51 460q0 24 -22.5 36t-69.5 17q-15 2 -15 19q0 18 14 18h236q14 0 14 -15q0 -20 -17 -22q-44 -4 -59.5 -30t-24.5 -104z" />
    <glyph glyph-name="eng" unicode="&#x14b;" horiz-adv-x="548" 
d="M504 442q0 -13 -23 -189t-27 -202q-7 -46 -15 -80t-24.5 -78t-39 -72t-59 -48t-83.5 -20q-39 0 -64 16.5t-25 49.5q0 26 16 43.5t43 17.5q17 0 34 -7q0 -37 6.5 -53.5t28.5 -16.5q35 0 52.5 30.5t28.5 92.5q3 15 30 239.5t27 239.5q0 33 -32 33q-31 0 -66.5 -26
t-99.5 -88l-36 -297q-1 -16 -15 -20q-47 -15 -67 -15q-10 0 -10 11q0 12 26.5 208.5t26.5 199.5q0 9 -5 11t-20 2h-58q-16 0 -16 13q0 16 69.5 50t103.5 34q24 0 24 -20q0 -7 -3.5 -27t-8 -47.5t-6.5 -39.5h3q61 65 109.5 99.5t94.5 34.5q35 0 57.5 -20.5t22.5 -58.5z" />
    <glyph glyph-name="Omacron" unicode="&#x14c;" horiz-adv-x="771" 
d="M360 -8q-148 0 -231.5 90.5t-83.5 239.5q0 183 100.5 306.5t265.5 123.5q150 0 232.5 -90.5t82.5 -249.5q0 -112 -43.5 -207t-128.5 -154t-194 -59zM408 695q-77 0 -136 -54t-87.5 -135t-28.5 -172q0 -126 53 -205.5t154 -79.5q78 0 136.5 53.5t87 133.5t28.5 171
q0 127 -53 207.5t-154 80.5zM538 820h-212q-26 0 -26 26q0 11 6.5 19t18.5 8h209q15 0 22.5 -7.5t7.5 -18.5t-7 -19t-19 -8z" />
    <glyph glyph-name="omacron" unicode="&#x14d;" horiz-adv-x="519" 
d="M298 521q79 0 127.5 -48t48.5 -154q0 -147 -76.5 -237t-176.5 -90q-79 0 -127.5 48t-48.5 152q0 148 76.5 238.5t176.5 90.5zM281 472q-60 0 -100 -75t-40 -199q0 -75 27 -116t70 -41q60 0 100 75t40 199q0 76 -26 116.5t-71 40.5zM416 636h-212q-26 0 -26 26
q0 11 6.5 19t18.5 8h209q15 0 22.5 -7.5t7.5 -18.5t-7 -19t-19 -8z" />
    <glyph glyph-name="Obreve" unicode="&#x14e;" horiz-adv-x="771" 
d="M360 -8q-148 0 -231.5 90.5t-83.5 239.5q0 183 100.5 306.5t265.5 123.5q150 0 232.5 -90.5t82.5 -249.5q0 -112 -43.5 -207t-128.5 -154t-194 -59zM408 695q-77 0 -136 -54t-87.5 -135t-28.5 -172q0 -126 53 -205.5t154 -79.5q78 0 136.5 53.5t87 133.5t28.5 171
q0 127 -53 207.5t-154 80.5zM431 783q-63 0 -100 35t-37 87q0 10 5 16t12 6q10 0 15 -12q28 -64 107 -64q86 0 121 64q7 13 18 13q14 0 14 -19q-1 -44 -47 -85t-108 -41z" />
    <glyph glyph-name="obreve" unicode="&#x14f;" horiz-adv-x="519" 
d="M298 521q79 0 127.5 -48t48.5 -154q0 -147 -76.5 -237t-176.5 -90q-79 0 -127.5 48t-48.5 152q0 148 76.5 238.5t176.5 90.5zM281 472q-60 0 -100 -75t-40 -199q0 -75 27 -116t70 -41q60 0 100 75t40 199q0 76 -26 116.5t-71 40.5zM302 582q-57 0 -92.5 39.5t-35.5 92.5
q0 22 15 22q9 0 14 -12q32 -74 106 -74q81 0 122 74q7 13 18 13q15 0 15 -17q0 -37 -48 -87.5t-114 -50.5z" />
    <glyph glyph-name="Ohungarumlaut" unicode="&#x150;" horiz-adv-x="771" 
d="M360 -8q-148 0 -231.5 90.5t-83.5 239.5q0 183 100.5 306.5t265.5 123.5q150 0 232.5 -90.5t82.5 -249.5q0 -112 -43.5 -207t-128.5 -154t-194 -59zM408 695q-77 0 -136 -54t-87.5 -135t-28.5 -172q0 -126 53 -205.5t154 -79.5q78 0 136.5 53.5t87 133.5t28.5 171
q0 127 -53 207.5t-154 80.5zM297 789q-31 0 -31 33q48 21 81 42.5t44.5 34.5t19.5 21t15 8q10 0 36 -32q21 -25 21 -35q0 -11 -13 -17q-33 -19 -91 -37t-82 -18zM497 789q-31 0 -31 33q48 21 81 42.5t44.5 34.5t19.5 21t15 8q10 0 36 -32q21 -25 21 -35q0 -11 -13 -17
q-33 -19 -91 -37t-82 -18z" />
    <glyph glyph-name="ohungarumlaut" unicode="&#x151;" horiz-adv-x="519" 
d="M298 521q79 0 127.5 -48t48.5 -154q0 -147 -76.5 -237t-176.5 -90q-79 0 -127.5 48t-48.5 152q0 148 76.5 238.5t176.5 90.5zM281 472q-60 0 -100 -75t-40 -199q0 -75 27 -116t70 -41q60 0 100 75t40 199q0 76 -26 116.5t-71 40.5zM188 597q0 25 58 96.5t80 71.5
q11 0 29 -29.5t18 -42.5q0 -7 -8 -11q-49 -21 -80.5 -43t-71.5 -65q-10 0 -17.5 6t-7.5 17zM352 597q0 25 58 96.5t80 71.5q11 0 29 -29.5t18 -42.5q0 -7 -8 -11q-49 -21 -80.5 -43t-71.5 -65q-10 0 -17.5 6t-7.5 17z" />
    <glyph glyph-name="OE" unicode="&#x152;" horiz-adv-x="1062" 
d="M360 -8q-148 0 -231.5 90.5t-83.5 239.5q0 183 100.5 306.5t265.5 123.5q34 0 76 -7h517q12 0 17 -2.5t5 -12.5q0 -17 -13 -160q-1 -16 -17 -16t-17 18q-2 57 -27.5 89.5t-72.5 32.5h-272q119 -90 119 -284q19 -2 58 -2q29 0 44 1.5t35.5 9t32.5 25t19 46.5q3 14 18 14
q14 0 14 -14q0 -7 -9 -101t-9 -103q0 -15 -15 -15q-17 0 -17 18q0 25 -9.5 40.5t-29 21.5t-34.5 7.5t-41 1.5q-20 0 -60 -2q-10 -93 -51 -171.5t-107 -128.5q19 -8 71 -8h151q38 0 67.5 11t52 35.5t33.5 40t29 47.5q7 12 20 12q14 0 14 -11t-36 -164q-5 -21 -30 -21h-501
q-38 -8 -76 -8zM408 695q-77 0 -136 -54t-87.5 -135t-28.5 -172q0 -126 53 -205.5t154 -79.5q78 0 136.5 53.5t87 133.5t28.5 171q0 127 -53 207.5t-154 80.5z" />
    <glyph glyph-name="oe" unicode="&#x153;" horiz-adv-x="782" 
d="M754 420q0 -64 -59.5 -106.5t-230.5 -101.5q4 -72 34 -109t75 -37q37 0 71.5 17t55.5 34t26 17q12 0 12 -14q0 -37 -63.5 -82.5t-144.5 -45.5q-44 0 -81 27.5t-48 73.5q-32 -47 -81.5 -74t-98.5 -27q-79 0 -127.5 48t-48.5 152q0 148 76.5 238.5t176.5 90.5
q49 0 87.5 -26t57.5 -72q32 46 83 72t102 26q60 0 93 -29t33 -72zM281 472q-60 0 -100 -75t-40 -199q0 -75 27 -116t70 -41q60 0 100 75t40 199q0 76 -26 116.5t-71 40.5zM660 415q0 27 -15.5 42t-44.5 15q-43 0 -87 -57.5t-49 -158.5q114 44 155 81t41 78z" />
    <glyph glyph-name="Racute" unicode="&#x154;" horiz-adv-x="679" 
d="M608 553q0 -88 -60.5 -145t-136.5 -70l-1 -3l141 -229q31 -50 53.5 -71.5t68.5 -42.5q8 -3 8 -13q0 -15 -34 -15q-134 0 -172 68l-156 278q-20 33 -20 44q0 17 20 17q69 0 126 51t57 126q0 70 -41.5 109.5t-128.5 39.5h-45q-71 -550 -71 -606q0 -25 15 -36t57 -18
q23 -3 23 -20t-19 -17h-265q-16 0 -16 14q0 19 17 22q50 6 69 30.5t28 104.5q56 476 56 499q0 18 -13.5 25t-58.5 14q-14 2 -14 19t14 17h257q108 0 175 -48t67 -144zM295 789q-31 0 -31 33q48 21 81 42.5t44.5 34.5t19.5 21t15 8q10 0 36 -32q21 -25 21 -35q0 -11 -13 -17
q-33 -19 -91 -37t-82 -18z" />
    <glyph glyph-name="racute" unicode="&#x155;" 
d="M207 336h3q58 105 92.5 144.5t77.5 39.5q29 0 45 -19t16 -45q0 -24 -13.5 -44.5t-39.5 -29.5q-4 16 -15 25t-21 9q-23 0 -57 -37l-88 -102l-31 -250q-1 -16 -15 -20q-47 -15 -67 -15q-10 0 -10 11q0 12 26.5 208.5t26.5 199.5q0 9 -5 11t-20 2h-58q-16 0 -16 13
q0 16 69.5 50t103.5 34q24 0 24 -20q0 -14 -28 -165zM226 597q0 25 58 96.5t80 71.5q11 0 29 -29.5t18 -42.5q0 -7 -8 -11q-49 -21 -80.5 -43t-71.5 -65q-10 0 -17.5 6t-7.5 17z" />
    <glyph glyph-name="Rcommaaccent" unicode="&#x156;" horiz-adv-x="679" 
d="M608 553q0 -88 -60.5 -145t-136.5 -70l-1 -3l141 -229q31 -50 53.5 -71.5t68.5 -42.5q8 -3 8 -13q0 -15 -34 -15q-134 0 -172 68l-156 278q-20 33 -20 44q0 17 20 17q69 0 126 51t57 126q0 70 -41.5 109.5t-128.5 39.5h-45q-71 -550 -71 -606q0 -25 15 -36t57 -18
q23 -3 23 -20t-19 -17h-265q-16 0 -16 14q0 19 17 22q50 6 69 30.5t28 104.5q56 476 56 499q0 18 -13.5 25t-58.5 14q-14 2 -14 19t14 17h257q108 0 175 -48t67 -144zM408 -133q0 -46 -40 -79t-74 -33q-14 0 -14 13q0 11 11 15q30 10 30 45q0 4 -2 14l-46 45q0 22 18.5 40
t47.5 18q28 0 48.5 -19.5t20.5 -58.5z" />
    <glyph glyph-name="rcommaaccent" unicode="&#x157;" 
d="M207 336h3q58 105 92.5 144.5t77.5 39.5q29 0 45 -19t16 -45q0 -24 -13.5 -44.5t-39.5 -29.5q-4 16 -15 25t-21 9q-23 0 -57 -37l-88 -102l-31 -250q-1 -16 -15 -20q-47 -15 -67 -15q-10 0 -10 11q0 12 26.5 208.5t26.5 199.5q0 9 -5 11t-20 2h-58q-16 0 -16 13
q0 16 69.5 50t103.5 34q24 0 24 -20q0 -14 -28 -165zM193 -133q0 -46 -40 -79t-74 -33q-14 0 -14 13q0 11 11 15q30 10 30 45q0 4 -2 14l-46 45q0 22 18.5 40t47.5 18q28 0 48.5 -19.5t20.5 -58.5z" />
    <glyph glyph-name="Rcaron" unicode="&#x158;" horiz-adv-x="679" 
d="M608 553q0 -88 -60.5 -145t-136.5 -70l-1 -3l141 -229q31 -50 53.5 -71.5t68.5 -42.5q8 -3 8 -13q0 -15 -34 -15q-134 0 -172 68l-156 278q-20 33 -20 44q0 17 20 17q69 0 126 51t57 126q0 70 -41.5 109.5t-128.5 39.5h-45q-71 -550 -71 -606q0 -25 15 -36t57 -18
q23 -3 23 -20t-19 -17h-265q-16 0 -16 14q0 19 17 22q50 6 69 30.5t28 104.5q56 476 56 499q0 18 -13.5 25t-58.5 14q-14 2 -14 19t14 17h257q108 0 175 -48t67 -144zM300 908l78 -40l102 40q9 3 17 3q22 0 30 -17l-161 -117l-117 117q14 19 35 19q8 0 16 -5z" />
    <glyph glyph-name="rcaron" unicode="&#x159;" 
d="M207 336h3q58 105 92.5 144.5t77.5 39.5q29 0 45 -19t16 -45q0 -24 -13.5 -44.5t-39.5 -29.5q-4 16 -15 25t-21 9q-23 0 -57 -37l-88 -102l-31 -250q-1 -16 -15 -20q-47 -15 -67 -15q-10 0 -10 11q0 12 26.5 208.5t26.5 199.5q0 9 -5 11t-20 2h-58q-16 0 -16 13
q0 16 69.5 50t103.5 34q24 0 24 -20q0 -14 -28 -165zM216 743l64 -67l100 72q8 6 17 6q18 0 28 -16l-159 -154l-101 158q11 12 25 12q15 0 26 -11z" />
    <glyph glyph-name="Sacute" unicode="&#x15a;" horiz-adv-x="486" 
d="M229 39q52 0 92 31t40 94q0 55 -28.5 95.5t-93.5 83.5q-40 26 -61.5 42.5t-50 45t-42 62.5t-13.5 75q0 90 64.5 137t161.5 47q84 0 156 -29q11 -4 11 -18q0 -5 -4.5 -34.5t-10.5 -64.5t-7 -39q-3 -14 -16 -14q-16 0 -17 16q-7 69 -38.5 99t-92.5 30q-48 0 -81 -28
t-33 -77q0 -27 7.5 -48.5t25.5 -40t30.5 -29.5t40.5 -29.5t39 -26.5q37 -27 57.5 -45t44 -45.5t33.5 -59.5t10 -72q0 -70 -38.5 -119t-92.5 -69.5t-115 -20.5q-108 0 -183 34q-13 7 -13 24q0 23 21 149q3 18 19 18q13 0 15 -13q11 -92 49.5 -126.5t113.5 -34.5zM236 789
q-31 0 -31 33q48 21 81 42.5t44.5 34.5t19.5 21t15 8q10 0 36 -32q21 -25 21 -35q0 -11 -13 -17q-33 -19 -91 -37t-82 -18z" />
    <glyph glyph-name="sacute" unicode="&#x15b;" horiz-adv-x="397" 
d="M167 -9q-61 0 -100 21t-39 61q0 28 17 45.5t45 17.5q15 0 27 -4q0 -25 1.5 -38.5t7 -29.5t19 -23t36.5 -7q32 0 56 15.5t24 46.5q0 33 -28 72.5t-61.5 71.5t-61.5 73.5t-28 76.5q0 58 44 94.5t115 36.5q62 0 94.5 -21t32.5 -58q0 -35 -24 -51t-61 -16q0 22 -1 35.5t-6 31
t-17 26t-31 8.5q-32 0 -48.5 -15t-16.5 -40q0 -20 19 -48t45.5 -57t53.5 -59.5t46 -64.5t19 -64q0 -62 -52 -99.5t-127 -37.5zM191 597q0 25 58 96.5t80 71.5q11 0 29 -29.5t18 -42.5q0 -7 -8 -11q-49 -21 -80.5 -43t-71.5 -65q-10 0 -17.5 6t-7.5 17z" />
    <glyph glyph-name="Scircumflex" unicode="&#x15c;" horiz-adv-x="486" 
d="M229 39q52 0 92 31t40 94q0 55 -28.5 95.5t-93.5 83.5q-40 26 -61.5 42.5t-50 45t-42 62.5t-13.5 75q0 90 64.5 137t161.5 47q84 0 156 -29q11 -4 11 -18q0 -5 -4.5 -34.5t-10.5 -64.5t-7 -39q-3 -14 -16 -14q-16 0 -17 16q-7 69 -38.5 99t-92.5 30q-48 0 -81 -28
t-33 -77q0 -27 7.5 -48.5t25.5 -40t30.5 -29.5t40.5 -29.5t39 -26.5q37 -27 57.5 -45t44 -45.5t33.5 -59.5t10 -72q0 -70 -38.5 -119t-92.5 -69.5t-115 -20.5q-108 0 -183 34q-13 7 -13 24q0 23 21 149q3 18 19 18q13 0 15 -13q11 -92 49.5 -126.5t113.5 -34.5zM392 789
l-78 40l-102 -40q-9 -3 -17 -3q-22 0 -30 17l161 117l117 -117q-14 -19 -35 -19q-8 0 -16 5z" />
    <glyph glyph-name="scircumflex" unicode="&#x15d;" horiz-adv-x="397" 
d="M167 -9q-61 0 -100 21t-39 61q0 28 17 45.5t45 17.5q15 0 27 -4q0 -25 1.5 -38.5t7 -29.5t19 -23t36.5 -7q32 0 56 15.5t24 46.5q0 33 -28 72.5t-61.5 71.5t-61.5 73.5t-28 76.5q0 58 44 94.5t115 36.5q62 0 94.5 -21t32.5 -58q0 -35 -24 -51t-61 -16q0 22 -1 35.5t-6 31
t-17 26t-31 8.5q-32 0 -48.5 -15t-16.5 -40q0 -20 19 -48t45.5 -57t53.5 -59.5t46 -64.5t19 -64q0 -62 -52 -99.5t-127 -37.5zM325 600l-64 67l-100 -72q-7 -6 -17 -6q-18 0 -28 16l159 154l101 -158q-10 -12 -25 -12t-26 11z" />
    <glyph glyph-name="Scedilla" unicode="&#x15e;" horiz-adv-x="486" 
d="M229 39q52 0 92 31t40 94q0 55 -28.5 95.5t-93.5 83.5q-40 26 -61.5 42.5t-50 45t-42 62.5t-13.5 75q0 90 64.5 137t161.5 47q84 0 156 -29q11 -4 11 -18q0 -5 -4.5 -34.5t-10.5 -64.5t-7 -39q-3 -14 -16 -14q-16 0 -17 16q-7 69 -38.5 99t-92.5 30q-48 0 -81 -28
t-33 -77q0 -27 7.5 -48.5t25.5 -40t30.5 -29.5t40.5 -29.5t39 -26.5q37 -27 57.5 -45t44 -45.5t33.5 -59.5t10 -72q0 -70 -38.5 -119t-92.5 -69.5t-115 -20.5q-108 0 -183 34q-13 7 -13 24q0 23 21 149q3 18 19 18q13 0 15 -13q11 -92 49.5 -126.5t113.5 -34.5zM323 -155
q0 -51 -34 -77.5t-85 -26.5q-40 0 -67.5 14.5t-27.5 43.5q0 21 14 36q35 -21 78 -21q56 0 56 39q0 27 -25 42t-67 15q-4 7 -4 13q0 23 49 23q51 0 82 -29.5t31 -71.5z" />
    <glyph glyph-name="scedilla" unicode="&#x15f;" horiz-adv-x="397" 
d="M167 -9q-61 0 -100 21t-39 61q0 28 17 45.5t45 17.5q15 0 27 -4q0 -25 1.5 -38.5t7 -29.5t19 -23t36.5 -7q32 0 56 15.5t24 46.5q0 33 -28 72.5t-61.5 71.5t-61.5 73.5t-28 76.5q0 58 44 94.5t115 36.5q62 0 94.5 -21t32.5 -58q0 -35 -24 -51t-61 -16q0 22 -1 35.5t-6 31
t-17 26t-31 8.5q-32 0 -48.5 -15t-16.5 -40q0 -20 19 -48t45.5 -57t53.5 -59.5t46 -64.5t19 -64q0 -62 -52 -99.5t-127 -37.5zM262 -155q0 -51 -34 -77.5t-85 -26.5q-40 0 -67.5 14.5t-27.5 43.5q0 21 14 36q35 -21 78 -21q56 0 56 39q0 27 -25 42t-67 15q-4 7 -4 13
q0 23 49 23q51 0 82 -29.5t31 -71.5z" />
    <glyph glyph-name="Scaron" unicode="&#x160;" horiz-adv-x="486" 
d="M229 39q52 0 92 31t40 94q0 55 -28.5 95.5t-93.5 83.5q-40 26 -61.5 42.5t-50 45t-42 62.5t-13.5 75q0 90 64.5 137t161.5 47q84 0 156 -29q11 -4 11 -18q0 -5 -4.5 -34.5t-10.5 -64.5t-7 -39q-3 -14 -16 -14q-16 0 -17 16q-7 69 -38.5 99t-92.5 30q-48 0 -81 -28
t-33 -77q0 -27 7.5 -48.5t25.5 -40t30.5 -29.5t40.5 -29.5t39 -26.5q37 -27 57.5 -45t44 -45.5t33.5 -59.5t10 -72q0 -70 -38.5 -119t-92.5 -69.5t-115 -20.5q-108 0 -183 34q-13 7 -13 24q0 23 21 149q3 18 19 18q13 0 15 -13q11 -92 49.5 -126.5t113.5 -34.5zM241 908
l78 -40l102 40q9 3 17 3q22 0 30 -17l-161 -117l-117 117q14 19 35 19q8 0 16 -5z" />
    <glyph glyph-name="scaron" unicode="&#x161;" horiz-adv-x="397" 
d="M167 -9q-61 0 -100 21t-39 61q0 28 17 45.5t45 17.5q15 0 27 -4q0 -25 1.5 -38.5t7 -29.5t19 -23t36.5 -7q32 0 56 15.5t24 46.5q0 33 -28 72.5t-61.5 71.5t-61.5 73.5t-28 76.5q0 58 44 94.5t115 36.5q62 0 94.5 -21t32.5 -58q0 -35 -24 -51t-61 -16q0 22 -1 35.5t-6 31
t-17 26t-31 8.5q-32 0 -48.5 -15t-16.5 -40q0 -20 19 -48t45.5 -57t53.5 -59.5t46 -64.5t19 -64q0 -62 -52 -99.5t-127 -37.5zM201 743l64 -67l100 72q7 6 17 6q18 0 28 -16l-159 -154l-101 158q11 12 25 12q15 0 26 -11z" />
    <glyph glyph-name="Tcedilla" unicode="&#x162;" horiz-adv-x="580" 
d="M455 693h-91q-69 -598 -69 -608q0 -25 25 -34t86 -15q14 -2 14 -18q0 -18 -14 -18h-332q-15 0 -15 14q0 20 17 22q73 4 95.5 27.5t32.5 107.5l61 522h-103q-46 0 -80.5 -39.5t-46.5 -98.5q-5 -18 -20 -18q-14 0 -14 14q0 4 4.5 45t9.5 84t5 47q2 18 25 18h557q15 0 21 -4
t6 -16q0 -7 -8.5 -85.5t-10.5 -89.5q-3 -16 -17 -16q-15 0 -17 18q-1 65 -36.5 103t-84.5 38zM335 -155q0 -51 -34 -77.5t-85 -26.5q-40 0 -67.5 14.5t-27.5 43.5q0 21 14 36q35 -21 78 -21q56 0 56 39q0 27 -25 42t-67 15q-4 7 -4 13q0 23 49 23q51 0 82 -29.5t31 -71.5z
" />
    <glyph glyph-name="tcedilla" unicode="&#x163;" horiz-adv-x="358" 
d="M215 464q0 -5 -11.5 -94.5t-21.5 -175.5t-10 -95q0 -21 23 -21q30 0 76 22.5t53 22.5q8 0 8 -9q0 -20 -36.5 -49t-90.5 -51t-97 -22q-15 0 -24 9t-9 23q0 9 13 113t27 215l14 111h-69q-21 0 -21 21q0 26 23 26h73l8 66q2 22 18 34l49 35q9 6 16 6q11 0 11 -11
q0 -4 -8 -65t-8 -65h119q21 0 21 -20q0 -26 -21 -26h-125zM238 -155q0 -51 -34 -77.5t-85 -26.5q-40 0 -67.5 14.5t-27.5 43.5q0 21 14 36q35 -21 78 -21q56 0 56 39q0 27 -25 42t-67 15q-4 7 -4 13q0 23 49 23q51 0 82 -29.5t31 -71.5z" />
    <glyph glyph-name="Tcaron" unicode="&#x164;" horiz-adv-x="580" 
d="M455 693h-91q-69 -598 -69 -608q0 -25 25 -34t86 -15q14 -2 14 -18q0 -18 -14 -18h-332q-15 0 -15 14q0 20 17 22q73 4 95.5 27.5t32.5 107.5l61 522h-103q-46 0 -80.5 -39.5t-46.5 -98.5q-5 -18 -20 -18q-14 0 -14 14q0 4 4.5 45t9.5 84t5 47q2 18 25 18h557q15 0 21 -4
t6 -16q0 -7 -8.5 -85.5t-10.5 -89.5q-3 -16 -17 -16q-15 0 -17 18q-1 65 -36.5 103t-84.5 38zM252 908l78 -40l102 40q9 3 17 3q22 0 30 -17l-161 -117l-117 117q14 19 35 19q8 0 16 -5z" />
    <glyph glyph-name="tcaron" unicode="&#x165;" horiz-adv-x="358" 
d="M215 464q0 -5 -11.5 -94.5t-21.5 -175.5t-10 -95q0 -21 23 -21q30 0 76 22.5t53 22.5q8 0 8 -9q0 -20 -36.5 -49t-90.5 -51t-97 -22q-15 0 -24 9t-9 23q0 9 13 113t27 215l14 111h-69q-21 0 -21 21q0 26 23 26h73l8 66q2 22 18 34l49 35q9 6 16 6q11 0 11 -11
q0 -4 -8 -65t-8 -65h119q21 0 21 -20q0 -26 -21 -26h-125zM303 559q-16 0 -23 16q24 73 24 135q0 25 -3 52.5t-3 33.5q0 14 13 14h65q17 0 17 -20q0 -51 -30.5 -141t-59.5 -90z" />
    <glyph glyph-name="Tbar" unicode="&#x166;" horiz-adv-x="580" 
d="M436 366h-111q-30 -251 -30 -281q0 -25 25 -34t86 -15q14 -2 14 -18q0 -18 -14 -18h-332q-15 0 -15 14q0 20 17 22q73 4 95.5 27.5t32.5 107.5l23 195h-98q-24 0 -24 22q0 11 7.5 20t18.5 9h102l32 276h-103q-46 0 -80.5 -39.5t-46.5 -98.5q-5 -18 -20 -18q-14 0 -14 14
q0 4 4.5 45t9.5 84t5 47q2 18 25 18h557q15 0 21 -4t6 -16q0 -7 -8.5 -85.5t-10.5 -89.5q-3 -16 -17 -16q-15 0 -17 18q-1 65 -36.5 103t-84.5 38h-91l-33 -276h101q30 0 30 -25q0 -10 -7 -18t-19 -8z" />
    <glyph glyph-name="tbar" unicode="&#x167;" horiz-adv-x="358" 
d="M317 317h-120q-1 -11 -7.5 -64.5t-12 -101t-5.5 -52.5q0 -21 23 -21q30 0 76 22.5t53 22.5q8 0 8 -9q0 -20 -36.5 -49t-90.5 -51t-97 -22q-15 0 -24 9t-9 23q0 5 8 71.5t17 138.5t10 83h-63q-26 0 -26 22q0 10 7 17.5t19 7.5h69l13 99h-69q-21 0 -21 21q0 26 23 26h73
l8 66q2 22 18 34l49 35q9 6 16 6q11 0 11 -11q0 -4 -8 -65t-8 -65h119q21 0 21 -20q0 -26 -21 -26h-125l-12 -100h113q23 0 23 -23q0 -24 -22 -24z" />
    <glyph glyph-name="Utilde" unicode="&#x168;" horiz-adv-x="742" 
d="M675 574l-43 -354q-28 -228 -297 -228q-112 0 -180 50.5t-68 154.5q0 41 24.5 256t24.5 216q0 19 -14 26.5t-58 13.5q-14 2 -14 19t14 17h252q12 0 12 -14q0 -19 -18 -22q-45 -5 -60.5 -32t-23.5 -103q-1 -8 -11.5 -95t-19 -166.5t-8.5 -99.5q0 -79 47 -119t126 -40
q86 0 137 40.5t64 111.5q5 25 28.5 237.5t23.5 224.5q0 19 -13.5 26.5t-58.5 14.5q-14 2 -14 19t14 17h224q12 0 12 -14q0 -19 -18 -22q-44 -5 -59.5 -31t-24.5 -104zM448 809l-56 26q-20 9 -37 9q-40 0 -43 -53l-25 6q-5 12 -5 30q0 35 23.5 60.5t61.5 25.5q25 0 50 -11
l57 -24q20 -9 39 -9q41 0 44 52l25 -6q5 -13 5 -30q0 -35 -23 -62t-62 -27q-25 0 -54 13z" />
    <glyph glyph-name="utilde" unicode="&#x169;" horiz-adv-x="587" 
d="M222 500q0 -11 -24 -189.5t-24 -193.5q0 -45 35 -45q30 0 65.5 26.5t101.5 90.5l36 294q2 21 15 23l34 8q4 1 11 2.5t13 3t9 1.5q10 0 10 -11q0 -4 -26.5 -209t-26.5 -210q0 -11 19 -11h73q16 0 16 -13q0 -15 -72.5 -45t-107.5 -30q-24 0 -24 20q0 2 16 114h-3
q-125 -134 -205 -134q-78 0 -78 90q0 23 19.5 171.5t19.5 161.5q0 6 -4.5 7.5t-20.5 1.5h-61q-13 0 -13 13q0 16 69.5 50t103.5 34q24 0 24 -21zM352 617l-56 26q-20 9 -37 9q-40 0 -43 -53l-25 6q-5 13 -5 30q0 35 23.5 60.5t61.5 25.5q25 0 50 -11l57 -24q20 -9 39 -9
q41 0 44 52l25 -6q5 -12 5 -30q0 -35 -23 -62t-62 -27q-25 0 -54 13z" />
    <glyph glyph-name="Umacron" unicode="&#x16a;" horiz-adv-x="742" 
d="M675 574l-43 -354q-28 -228 -297 -228q-112 0 -180 50.5t-68 154.5q0 41 24.5 256t24.5 216q0 19 -14 26.5t-58 13.5q-14 2 -14 19t14 17h252q12 0 12 -14q0 -19 -18 -22q-45 -5 -60.5 -32t-23.5 -103q-1 -8 -11.5 -95t-19 -166.5t-8.5 -99.5q0 -79 47 -119t126 -40
q86 0 137 40.5t64 111.5q5 25 28.5 237.5t23.5 224.5q0 19 -13.5 26.5t-58.5 14.5q-14 2 -14 19t14 17h224q12 0 12 -14q0 -19 -18 -22q-44 -5 -59.5 -31t-24.5 -104zM556 820h-212q-26 0 -26 26q0 11 6.5 19t18.5 8h209q15 0 22.5 -7.5t7.5 -18.5t-7 -19t-19 -8z" />
    <glyph glyph-name="umacron" unicode="&#x16b;" horiz-adv-x="587" 
d="M222 500q0 -11 -24 -189.5t-24 -193.5q0 -45 35 -45q30 0 65.5 26.5t101.5 90.5l36 294q2 21 15 23l34 8q4 1 11 2.5t13 3t9 1.5q10 0 10 -11q0 -4 -26.5 -209t-26.5 -210q0 -11 19 -11h73q16 0 16 -13q0 -15 -72.5 -45t-107.5 -30q-24 0 -24 20q0 2 16 114h-3
q-125 -134 -205 -134q-78 0 -78 90q0 23 19.5 171.5t19.5 161.5q0 6 -4.5 7.5t-20.5 1.5h-61q-13 0 -13 13q0 16 69.5 50t103.5 34q24 0 24 -21zM440 636h-212q-26 0 -26 26q0 11 6.5 19t18.5 8h209q15 0 22.5 -7.5t7.5 -18.5t-7 -19t-19 -8z" />
    <glyph glyph-name="Ubreve" unicode="&#x16c;" horiz-adv-x="742" 
d="M675 574l-43 -354q-28 -228 -297 -228q-112 0 -180 50.5t-68 154.5q0 41 24.5 256t24.5 216q0 19 -14 26.5t-58 13.5q-14 2 -14 19t14 17h252q12 0 12 -14q0 -19 -18 -22q-45 -5 -60.5 -32t-23.5 -103q-1 -8 -11.5 -95t-19 -166.5t-8.5 -99.5q0 -79 47 -119t126 -40
q86 0 137 40.5t64 111.5q5 25 28.5 237.5t23.5 224.5q0 19 -13.5 26.5t-58.5 14.5q-14 2 -14 19t14 17h224q12 0 12 -14q0 -19 -18 -22q-44 -5 -59.5 -31t-24.5 -104zM449 783q-63 0 -100 35t-37 87q0 10 5 16t12 6q10 0 15 -12q28 -64 107 -64q86 0 121 64q7 13 18 13
q14 0 14 -19q-1 -44 -47 -85t-108 -41z" />
    <glyph glyph-name="ubreve" unicode="&#x16d;" horiz-adv-x="587" 
d="M222 500q0 -11 -24 -189.5t-24 -193.5q0 -45 35 -45q30 0 65.5 26.5t101.5 90.5l36 294q2 21 15 23l34 8q4 1 11 2.5t13 3t9 1.5q10 0 10 -11q0 -4 -26.5 -209t-26.5 -210q0 -11 19 -11h73q16 0 16 -13q0 -15 -72.5 -45t-107.5 -30q-24 0 -24 20q0 2 16 114h-3
q-125 -134 -205 -134q-78 0 -78 90q0 23 19.5 171.5t19.5 161.5q0 6 -4.5 7.5t-20.5 1.5h-61q-13 0 -13 13q0 16 69.5 50t103.5 34q24 0 24 -21zM326 582q-57 0 -92.5 39.5t-35.5 92.5q0 22 15 22q9 0 14 -12q32 -74 106 -74q81 0 122 74q7 13 18 13q15 0 15 -17
q0 -37 -48 -87.5t-114 -50.5z" />
    <glyph glyph-name="Uring" unicode="&#x16e;" horiz-adv-x="742" 
d="M675 574l-43 -354q-28 -228 -297 -228q-112 0 -180 50.5t-68 154.5q0 41 24.5 256t24.5 216q0 19 -14 26.5t-58 13.5q-14 2 -14 19t14 17h252q12 0 12 -14q0 -19 -18 -22q-45 -5 -60.5 -32t-23.5 -103q-1 -8 -11.5 -95t-19 -166.5t-8.5 -99.5q0 -79 47 -119t126 -40
q86 0 137 40.5t64 111.5q5 25 28.5 237.5t23.5 224.5q0 19 -13.5 26.5t-58.5 14.5q-14 2 -14 19t14 17h224q12 0 12 -14q0 -19 -18 -22q-44 -5 -59.5 -31t-24.5 -104zM344 849q0 39 27 65.5t70 26.5q42 0 68.5 -27t26.5 -65q0 -40 -26.5 -66.5t-68.5 -26.5q-45 0 -71 26.5
t-26 66.5zM386 846q0 -23 15 -37.5t39 -14.5q23 0 38 14.5t15 37.5t-15 37.5t-38 14.5q-24 0 -39 -14.5t-15 -37.5z" />
    <glyph glyph-name="uring" unicode="&#x16f;" horiz-adv-x="587" 
d="M222 500q0 -11 -24 -189.5t-24 -193.5q0 -45 35 -45q30 0 65.5 26.5t101.5 90.5l36 294q2 21 15 23l34 8q4 1 11 2.5t13 3t9 1.5q10 0 10 -11q0 -4 -26.5 -209t-26.5 -210q0 -11 19 -11h73q16 0 16 -13q0 -15 -72.5 -45t-107.5 -30q-24 0 -24 20q0 2 16 114h-3
q-125 -134 -205 -134q-78 0 -78 90q0 23 19.5 171.5t19.5 161.5q0 6 -4.5 7.5t-20.5 1.5h-61q-13 0 -13 13q0 16 69.5 50t103.5 34q24 0 24 -21zM234 638q0 39 27 65.5t70 26.5q42 0 68.5 -27t26.5 -65q0 -40 -26.5 -66.5t-68.5 -26.5q-45 0 -71 26.5t-26 66.5zM276 635
q0 -23 15 -37.5t39 -14.5q23 0 38 14.5t15 37.5t-15 37.5t-38 14.5q-24 0 -39 -14.5t-15 -37.5z" />
    <glyph glyph-name="Uhungarumlaut" unicode="&#x170;" horiz-adv-x="742" 
d="M675 574l-43 -354q-28 -228 -297 -228q-112 0 -180 50.5t-68 154.5q0 41 24.5 256t24.5 216q0 19 -14 26.5t-58 13.5q-14 2 -14 19t14 17h252q12 0 12 -14q0 -19 -18 -22q-45 -5 -60.5 -32t-23.5 -103q-1 -8 -11.5 -95t-19 -166.5t-8.5 -99.5q0 -79 47 -119t126 -40
q86 0 137 40.5t64 111.5q5 25 28.5 237.5t23.5 224.5q0 19 -13.5 26.5t-58.5 14.5q-14 2 -14 19t14 17h224q12 0 12 -14q0 -19 -18 -22q-44 -5 -59.5 -31t-24.5 -104zM295 789q-31 0 -31 33q48 21 81 42.5t44.5 34.5t19.5 21t15 8q10 0 36 -32q21 -25 21 -35q0 -11 -13 -17
q-33 -19 -91 -37t-82 -18zM495 789q-31 0 -31 33q48 21 81 42.5t44.5 34.5t19.5 21t15 8q10 0 36 -32q21 -25 21 -35q0 -11 -13 -17q-33 -19 -91 -37t-82 -18z" />
    <glyph glyph-name="uhungarumlaut" unicode="&#x171;" horiz-adv-x="587" 
d="M222 500q0 -11 -24 -189.5t-24 -193.5q0 -45 35 -45q30 0 65.5 26.5t101.5 90.5l36 294q2 21 15 23l34 8q4 1 11 2.5t13 3t9 1.5q10 0 10 -11q0 -4 -26.5 -209t-26.5 -210q0 -11 19 -11h73q16 0 16 -13q0 -15 -72.5 -45t-107.5 -30q-24 0 -24 20q0 2 16 114h-3
q-125 -134 -205 -134q-78 0 -78 90q0 23 19.5 171.5t19.5 161.5q0 6 -4.5 7.5t-20.5 1.5h-61q-13 0 -13 13q0 16 69.5 50t103.5 34q24 0 24 -21zM202 597q0 25 58 96.5t80 71.5q11 0 29 -29.5t18 -42.5q0 -7 -8 -11q-49 -21 -80.5 -43t-71.5 -65q-10 0 -17.5 6t-7.5 17z
M366 597q0 25 58 96.5t80 71.5q11 0 29 -29.5t18 -42.5q0 -7 -8 -11q-49 -21 -80.5 -43t-71.5 -65q-10 0 -17.5 6t-7.5 17z" />
    <glyph glyph-name="Uogonek" unicode="&#x172;" horiz-adv-x="742" 
d="M222 -140q0 78 68 135q-94 9 -148.5 59t-54.5 143q0 41 24.5 256t24.5 216q0 19 -14 26.5t-58 13.5q-14 2 -14 19t14 17h252q12 0 12 -14q0 -19 -18 -22q-45 -5 -60.5 -32t-23.5 -103q-1 -8 -11.5 -95t-19 -166.5t-8.5 -99.5q0 -79 47 -119t126 -40q86 0 137 40.5
t64 111.5q5 25 28.5 237.5t23.5 224.5q0 19 -13.5 26.5t-58.5 14.5q-14 2 -14 19t14 17h224q12 0 12 -14q0 -19 -18 -22q-44 -5 -59.5 -31t-24.5 -104l-43 -354q-13 -104 -77 -160t-162 -65q-36 -3 -64.5 -32.5t-28.5 -69.5q0 -32 20 -49t52 -17q38 0 63 16q8 -45 -14 -71
t-79 -26q-50 0 -85 29t-35 85z" />
    <glyph glyph-name="uogonek" unicode="&#x173;" horiz-adv-x="587" 
d="M257 -140q0 50 29 91.5t69 62.5l16 112h-3q-125 -134 -205 -134q-78 0 -78 90q0 23 19.5 171.5t19.5 161.5q0 6 -4.5 7.5t-20.5 1.5h-61q-13 0 -13 13q0 16 69.5 50t103.5 34q24 0 24 -21q0 -11 -24 -189.5t-24 -193.5q0 -45 35 -45q30 0 65.5 26.5t101.5 90.5l36 294
q2 21 15 23l34 8q4 1 11 2.5t13 3t9 1.5q10 0 10 -11q0 -4 -26.5 -209t-26.5 -210q0 -11 19 -11h73q16 0 16 -13q0 -11 -39.5 -30.5t-84.5 -33.5q-100 -31 -100 -110q0 -32 20 -49t52 -17q38 0 63 16q8 -45 -14 -71t-79 -26q-50 0 -85 29t-35 85z" />
    <glyph glyph-name="Wcircumflex" unicode="&#x174;" horiz-adv-x="964" 
d="M490 524l-220 -507q-11 -25 -29 -25q-15 0 -19 22l-111 539q-18 87 -40 118t-57 38q-14 3 -14 19q0 17 14 17h262q11 0 11 -14q0 -20 -17 -22q-41 -3 -56 -13.5t-15 -34.5q0 -19 8 -61l76 -423h4l217 541q12 28 30 28q16 0 21 -24l113 -544h4l169 447q10 25 10 44
q0 18 -15.5 26.5t-51.5 13.5q-16 1 -16 18q0 18 18 18h230q17 0 17 -15q0 -18 -16 -21q-44 -8 -63.5 -23t-39.5 -62l-258 -609q-10 -23 -25 -23t-20 22zM617 789l-78 40l-102 -40q-9 -3 -17 -3q-22 0 -30 17l161 117l117 -117q-14 -19 -35 -19q-8 0 -16 5z" />
    <glyph glyph-name="wcircumflex" unicode="&#x175;" horiz-adv-x="726" 
d="M151 37l-40 368q-1 12 -13 12q-4 0 -36.5 -6t-37.5 -6q-11 0 -11 9q0 22 66.5 64.5t96.5 42.5q11 0 15.5 -6t6.5 -22l31 -395q106 157 162 383q8 32 34 32q24 0 27 -33l29 -396q44 46 97 136t53 146q0 47 -21 65t-49 18q0 34 19.5 53t52.5 19q85 0 85 -86
q0 -88 -106 -252q-127 -191 -175 -191q-28 0 -33 45l-25 242q-34 -84 -97 -185.5t-98 -101.5q-28 0 -33 45zM504 600l-64 67l-100 -72q-8 -6 -17 -6q-18 0 -28 16l159 154l101 -158q-11 -12 -25 -12q-15 0 -26 11z" />
    <glyph glyph-name="Ycircumflex" unicode="&#x176;" horiz-adv-x="638" 
d="M118 38q42 6 62.5 11t36.5 16.5t19 31.5q16 116 16 146q0 76 -28.5 172.5t-65.5 171.5q-42 87 -103 87q-13 0 -24 -3t-16 -3q-14 0 -14 17q0 12 12 18q99 42 162 42q10 0 38 -41t64.5 -138.5t52.5 -215.5h4q35 90 51.5 129.5t42 93t53.5 100.5q25 42 44 60.5t45 18.5
q29 0 76.5 -9.5t47.5 -24.5q0 -13 -16 -16q-35 -7 -52 -13t-46.5 -29.5t-64.5 -68.5q-38 -49 -90 -155t-71 -181q-5 -21 -10.5 -74.5t-5.5 -90.5q0 -11 6 -19t20 -13t24.5 -8t33.5 -6.5t32 -5.5q14 -3 14 -20q0 -18 -14 -18h-338q-16 0 -16 17q0 18 18 21zM456 789l-78 40
l-102 -40q-9 -3 -17 -3q-22 0 -30 17l161 117l117 -117q-14 -19 -35 -19q-8 0 -16 5z" />
    <glyph glyph-name="ycircumflex" unicode="&#x177;" horiz-adv-x="466" 
d="M173 -41l-79 446q-3 12 -13 12q-5 0 -36 -5.5t-38 -5.5q-11 0 -11 10q0 21 66.5 63t94.5 42q13 0 18 -6t7 -22l56 -452q39 76 60.5 123t41 105t19.5 97q0 79 -70 79q0 36 21 56t58 20q35 0 56.5 -21.5t21.5 -64.5q0 -80 -79.5 -244.5t-188.5 -302t-178 -137.5
q-85 0 -85 70q0 26 18 45t41 19q15 0 28 -5q0 -39 5 -51t21 -12q51 0 145 142zM354 600l-64 67l-100 -72q-8 -6 -17 -6q-18 0 -28 16l159 154l101 -158q-11 -12 -25 -12q-15 0 -26 11z" />
    <glyph glyph-name="Ydieresis" unicode="&#x178;" horiz-adv-x="638" 
d="M118 38q42 6 62.5 11t36.5 16.5t19 31.5q16 116 16 146q0 76 -28.5 172.5t-65.5 171.5q-42 87 -103 87q-13 0 -24 -3t-16 -3q-14 0 -14 17q0 12 12 18q99 42 162 42q10 0 38 -41t64.5 -138.5t52.5 -215.5h4q35 90 51.5 129.5t42 93t53.5 100.5q25 42 44 60.5t45 18.5
q29 0 76.5 -9.5t47.5 -24.5q0 -13 -16 -16q-35 -7 -52 -13t-46.5 -29.5t-64.5 -68.5q-38 -49 -90 -155t-71 -181q-5 -21 -10.5 -74.5t-5.5 -90.5q0 -11 6 -19t20 -13t24.5 -8t33.5 -6.5t32 -5.5q14 -3 14 -20q0 -18 -14 -18h-338q-16 0 -16 17q0 18 18 21zM210 846
q0 28 20 48t48 20t48 -20t20 -48t-20 -48t-48 -20t-48 20t-20 48zM410 846q0 28 20 48t48 20t48 -20t20 -48t-20 -48t-48 -20t-48 20t-20 48z" />
    <glyph glyph-name="Zacute" unicode="&#x179;" horiz-adv-x="584" 
d="M536 196q14 0 14 -14q0 -5 -8.5 -39.5t-18 -73.5t-10.5 -45q-5 -24 -42 -24h-469q-12 0 -12 11q0 9 10 24l450 655h-222q-47 0 -75 -30t-46 -97q-5 -16 -21 -16q-13 0 -13 15q0 24 15 152q2 17 8 24t25 7h451q21 0 21 -14q0 -10 -8 -21l-451 -654h203q41 0 71 9.5
t51 31.5t31 38.5t26 48.5q6 12 20 12zM268 789q-31 0 -31 33q48 21 81 42.5t44.5 34.5t19.5 21t15 8q10 0 36 -32q21 -25 21 -35q0 -11 -13 -17q-33 -19 -91 -37t-82 -18z" />
    <glyph glyph-name="zacute" unicode="&#x17a;" horiz-adv-x="462" 
d="M447 144q-49 -95 -79.5 -123.5t-71.5 -28.5q-37 0 -95.5 21.5t-81.5 21.5q-36 0 -61 -32q-9 -12 -22 -12q-26 0 -26 21q0 13 17 34l302 383h-172q-9 0 -16.5 -1.5t-14 -6.5t-11 -8t-10.5 -12.5t-8 -13t-8.5 -16.5t-8.5 -16q-7 -14 -17 -14q-15 0 -15 15q0 4 3 14l3 11
q24 83 51.5 111.5t72.5 28.5q39 0 103 -12t83 -12q28 0 41 13q15 15 30 15q10 0 16 -6t6 -14t-10 -21l-320 -393h177q36 0 59 13.5t54 52.5q8 11 18 11q15 0 15 -13q0 -5 -3 -11zM231 597q0 25 58 96.5t80 71.5q11 0 29 -29.5t18 -42.5q0 -7 -8 -11q-49 -21 -80.5 -43
t-71.5 -65q-10 0 -17.5 6t-7.5 17z" />
    <glyph glyph-name="Zdotaccent" unicode="&#x17b;" horiz-adv-x="584" 
d="M536 196q14 0 14 -14q0 -5 -8.5 -39.5t-18 -73.5t-10.5 -45q-5 -24 -42 -24h-469q-12 0 -12 11q0 9 10 24l450 655h-222q-47 0 -75 -30t-46 -97q-5 -16 -21 -16q-13 0 -13 15q0 24 15 152q2 17 8 24t25 7h451q21 0 21 -14q0 -10 -8 -21l-451 -654h203q41 0 71 9.5
t51 31.5t31 38.5t26 48.5q6 12 20 12zM282 846q0 28 20 48t48 20t48 -20t20 -48t-20 -48t-48 -20t-48 20t-20 48z" />
    <glyph glyph-name="zdotaccent" unicode="&#x17c;" horiz-adv-x="462" 
d="M447 144q-49 -95 -79.5 -123.5t-71.5 -28.5q-37 0 -95.5 21.5t-81.5 21.5q-36 0 -61 -32q-9 -12 -22 -12q-26 0 -26 21q0 13 17 34l302 383h-172q-9 0 -16.5 -1.5t-14 -6.5t-11 -8t-10.5 -12.5t-8 -13t-8.5 -16.5t-8.5 -16q-7 -14 -17 -14q-15 0 -15 15q0 4 3 14l3 11
q24 83 51.5 111.5t72.5 28.5q39 0 103 -12t83 -12q28 0 41 13q15 15 30 15q10 0 16 -6t6 -14t-10 -21l-320 -393h177q36 0 59 13.5t54 52.5q8 11 18 11q15 0 15 -13q0 -5 -3 -11zM216 672q0 28 20 48t48 20t48 -20t20 -48t-20 -48t-48 -20t-48 20t-20 48z" />
    <glyph glyph-name="Zcaron" unicode="&#x17d;" horiz-adv-x="584" 
d="M536 196q14 0 14 -14q0 -5 -8.5 -39.5t-18 -73.5t-10.5 -45q-5 -24 -42 -24h-469q-12 0 -12 11q0 9 10 24l450 655h-222q-47 0 -75 -30t-46 -97q-5 -16 -21 -16q-13 0 -13 15q0 24 15 152q2 17 8 24t25 7h451q21 0 21 -14q0 -10 -8 -21l-451 -654h203q41 0 71 9.5
t51 31.5t31 38.5t26 48.5q6 12 20 12zM273 908l78 -40l102 40q9 3 17 3q22 0 30 -17l-161 -117l-117 117q14 19 35 19q8 0 16 -5z" />
    <glyph glyph-name="zcaron" unicode="&#x17e;" horiz-adv-x="462" 
d="M447 144q-49 -95 -79.5 -123.5t-71.5 -28.5q-37 0 -95.5 21.5t-81.5 21.5q-36 0 -61 -32q-9 -12 -22 -12q-26 0 -26 21q0 13 17 34l302 383h-172q-9 0 -16.5 -1.5t-14 -6.5t-11 -8t-10.5 -12.5t-8 -13t-8.5 -16.5t-8.5 -16q-7 -14 -17 -14q-15 0 -15 15q0 4 3 14l3 11
q24 83 51.5 111.5t72.5 28.5q39 0 103 -12t83 -12q28 0 41 13q15 15 30 15q10 0 16 -6t6 -14t-10 -21l-320 -393h177q36 0 59 13.5t54 52.5q8 11 18 11q15 0 15 -13q0 -5 -3 -11zM221 743l64 -67l100 72q7 6 17 6q18 0 28 -16l-159 -154l-101 158q10 12 25 12t26 -11z" />
    <glyph glyph-name="Schwa" unicode="&#x18f;" horiz-adv-x="569" 
d="M6 137q0 49 24 94t74 86.5t137 74t203 48.5q-5 111 -55 168.5t-133 57.5q-47 0 -87 -16t-61 -35.5t-38.5 -35.5t-24.5 -16q-14 0 -14 17q0 53 74.5 112.5t183.5 59.5q121 0 190.5 -83.5t69.5 -215.5q0 -112 -31 -202t-83 -145.5t-115.5 -84.5t-132.5 -29
q-88 0 -134.5 41.5t-46.5 103.5zM104 134q0 -43 25.5 -68t72.5 -25q32 0 70 20t77 59.5t67 110.5t33 161q-165 -37 -255 -107.5t-90 -150.5z" />
    <glyph glyph-name="florin" unicode="&#x192;" horiz-adv-x="498" 
d="M225 246l-36 -314q-10 -89 -38.5 -130.5t-58.5 -41.5q-17 0 -17 18q0 25 53 467h-58q-21 0 -21 21q0 26 23 26h63l12 100q23 183 189 183q61 0 99.5 -21.5t38.5 -59.5q0 -64 -89 -64q0 16 -0.5 25t-3.5 25t-9 25t-18 16.5t-29 7.5q-68 0 -80 -101l-16 -136h132
q23 0 23 -20q0 -26 -21 -26h-138z" />
    <glyph glyph-name="Khook" unicode="&#x198;" horiz-adv-x="700" 
d="M355 415l202 -309q34 -51 56 -72.5t66 -41.5q8 -3 8 -11q0 -13 -45 -13q-123 0 -161 64l-207 344q30 56 44.5 83.5t43 75.5t47 72.5t47.5 57t55 48.5t58.5 27.5t67.5 11.5q59 0 90.5 -23t31.5 -62q0 -34 -24 -55.5t-61 -21.5q0 86 -65 86q-62 0 -130.5 -69.5
t-123.5 -191.5zM298 0h-271q-16 0 -16 14q0 19 17 22q50 6 69 30.5t28 104.5q56 476 56 499q0 18 -13.5 25t-58.5 14q-14 2 -14 19t14 17h251q12 0 12 -14q0 -19 -18 -22q-45 -7 -60 -32.5t-24 -102.5q-1 -5 -15 -128.5t-27.5 -242t-13.5 -122.5q0 -22 17 -30t67 -15
q14 -2 14 -19t-14 -17z" />
    <glyph glyph-name="khook" unicode="&#x199;" horiz-adv-x="516" 
d="M398 396q0 46 -43 46q-35 0 -86.5 -43.5t-92.5 -117.5l-6 -41q20 1 56 13.5t75.5 31.5t68 49.5t28.5 61.5zM134 633q15 183 190 183q60 0 94.5 -21.5t34.5 -59.5q0 -61 -89 -61q0 20 -1 31.5t-6 29t-18.5 26.5t-34.5 9q-68 0 -80 -101l-39 -315h2q37 83 92.5 125
t114.5 42q41 0 67 -25.5t26 -63.5q0 -69 -57.5 -120.5t-144.5 -76.5q50 -94 74.5 -125t40.5 -31q5 0 46.5 8t48.5 8q11 0 11 -11q0 -18 -56 -55t-83 -37q-65 0 -155 217l-46 -13l-18 -169q-1 -16 -15 -20q-47 -15 -67 -15q-10 0 -10 11q0 18 38.5 318.5t39.5 311.5z" />
    <glyph glyph-name="Ezh" unicode="&#x1b7;" horiz-adv-x="608" 
d="M464 690h-222q-47 0 -75 -30t-46 -97q-5 -16 -21 -16q-13 0 -13 15q0 24 15 152q2 17 8 24t25 7h451q21 0 21 -14q0 -10 -8 -21l-353 -415q111 -14 185.5 -77.5t74.5 -174.5q0 -77 -29.5 -136t-78 -91t-100.5 -47.5t-106 -15.5q-104 0 -167 38.5t-63 95.5q0 41 25.5 60
t57.5 19q19 0 32 -5q0 -85 27.5 -123.5t94.5 -38.5q82 0 140 68t58 164q0 102 -57 159.5t-185 66.5q-9 1 -15.5 7t-6.5 12q0 12 16 31z" />
    <glyph glyph-name="Acaron" unicode="&#x1cd;" horiz-adv-x="664" 
d="M464 144l-24 104h-242l-80 -163q-5 -10 -5 -16q0 -14 20.5 -21t67.5 -12q12 0 12 -17q0 -19 -19 -19h-217q-17 0 -17 15q0 18 17 21q38 7 50.5 20t42.5 70l275 521l-21 70q-3 9 -3 14q0 14 14 14h89l144 -610q9 -38 15 -53.5t21.5 -28.5t44.5 -17q14 -1 14 -18
q0 -18 -14 -18h-251q-11 0 -11 14q0 20 17 22q40 3 55.5 13t15.5 32q0 13 -11 63zM362 578l-138 -278h205l-63 278h-4zM319 908l78 -40l102 40q9 3 17 3q22 0 30 -17l-161 -117l-117 117q14 19 35 19q8 0 16 -5z" />
    <glyph glyph-name="acaron" unicode="&#x1ce;" horiz-adv-x="552" 
d="M349 189l32 260q-32 26 -67 26q-70 0 -124.5 -89.5t-54.5 -209.5q0 -52 16 -80t44 -28q30 0 62.5 27.5t91.5 93.5zM424 93q0 -10 4.5 -12.5t20.5 -2.5h67q16 0 16 -13q0 -15 -72.5 -44t-107.5 -29q-24 0 -24 20q0 9 17 113l-3 1q-48 -66 -90 -100t-94 -34q-54 0 -86 43
t-32 124q0 158 86 260t194 102q35 0 71 -14q61 14 63 14q18 0 18 -18q0 -11 -24 -204t-24 -206zM265 743l64 -67l100 72q8 6 17 6q18 0 28 -16l-159 -154l-101 158q10 12 25 12t26 -11z" />
    <glyph glyph-name="Icaron" unicode="&#x1cf;" horiz-adv-x="382" 
d="M298 0h-271q-16 0 -16 14q0 19 17 22q50 6 69 30.5t28 104.5q56 476 56 499q0 18 -13.5 25t-58.5 14q-14 2 -14 19t14 17h251q12 0 12 -14q0 -19 -18 -22q-45 -7 -60 -32.5t-24 -102.5q-1 -5 -15 -128.5t-27.5 -242t-13.5 -122.5q0 -22 17 -30t67 -15q14 -2 14 -19
t-14 -17zM179 903l78 -40l102 40q9 3 17 3q22 0 30 -17l-161 -117l-117 117q14 19 35 19q8 0 16 -5z" />
    <glyph glyph-name="icaron" unicode="&#x1d0;" horiz-adv-x="322" 
d="M88 14q0 16 24.5 201t24.5 200q0 6 -4.5 7.5t-20.5 1.5h-61q-13 0 -13 13q0 16 69.5 50t103.5 34q24 0 24 -21q0 -9 -24 -200.5t-24 -204.5q0 -10 4.5 -12.5t20.5 -2.5h64q16 0 16 -13q0 -15 -72.5 -44.5t-107.5 -29.5q-24 0 -24 21zM144 743l64 -67l100 72q7 6 17 6
q18 0 28 -16l-159 -154l-101 158q10 12 25 12t26 -11z" />
    <glyph glyph-name="Ocaron" unicode="&#x1d1;" horiz-adv-x="771" 
d="M360 -8q-148 0 -231.5 90.5t-83.5 239.5q0 183 100.5 306.5t265.5 123.5q150 0 232.5 -90.5t82.5 -249.5q0 -112 -43.5 -207t-128.5 -154t-194 -59zM408 695q-77 0 -136 -54t-87.5 -135t-28.5 -172q0 -126 53 -205.5t154 -79.5q78 0 136.5 53.5t87 133.5t28.5 171
q0 127 -53 207.5t-154 80.5zM359 908l78 -40l102 40q9 3 17 3q22 0 30 -17l-161 -117l-117 117q14 19 35 19q8 0 16 -5z" />
    <glyph glyph-name="ocaron" unicode="&#x1d2;" horiz-adv-x="519" 
d="M298 521q79 0 127.5 -48t48.5 -154q0 -147 -76.5 -237t-176.5 -90q-79 0 -127.5 48t-48.5 152q0 148 76.5 238.5t176.5 90.5zM281 472q-60 0 -100 -75t-40 -199q0 -75 27 -116t70 -41q60 0 100 75t40 199q0 76 -26 116.5t-71 40.5zM248 743l64 -67l100 72q8 6 17 6
q18 0 28 -16l-159 -154l-101 158q10 12 25 12t26 -11z" />
    <glyph glyph-name="Ucaron" unicode="&#x1d3;" horiz-adv-x="742" 
d="M675 574l-43 -354q-28 -228 -297 -228q-112 0 -180 50.5t-68 154.5q0 41 24.5 256t24.5 216q0 19 -14 26.5t-58 13.5q-14 2 -14 19t14 17h252q12 0 12 -14q0 -19 -18 -22q-45 -5 -60.5 -32t-23.5 -103q-1 -8 -11.5 -95t-19 -166.5t-8.5 -99.5q0 -79 47 -119t126 -40
q86 0 137 40.5t64 111.5q5 25 28.5 237.5t23.5 224.5q0 19 -13.5 26.5t-58.5 14.5q-14 2 -14 19t14 17h224q12 0 12 -14q0 -19 -18 -22q-44 -5 -59.5 -31t-24.5 -104zM377 908l78 -40l102 40q9 3 17 3q22 0 30 -17l-161 -117l-117 117q14 19 35 19q8 0 16 -5z" />
    <glyph glyph-name="ucaron" unicode="&#x1d4;" horiz-adv-x="587" 
d="M222 500q0 -11 -24 -189.5t-24 -193.5q0 -45 35 -45q30 0 65.5 26.5t101.5 90.5l36 294q2 21 15 23l34 8q4 1 11 2.5t13 3t9 1.5q10 0 10 -11q0 -4 -26.5 -209t-26.5 -210q0 -11 19 -11h73q16 0 16 -13q0 -15 -72.5 -45t-107.5 -30q-24 0 -24 20q0 2 16 114h-3
q-125 -134 -205 -134q-78 0 -78 90q0 23 19.5 171.5t19.5 161.5q0 6 -4.5 7.5t-20.5 1.5h-61q-13 0 -13 13q0 16 69.5 50t103.5 34q24 0 24 -21zM272 743l64 -67l100 72q8 6 17 6q18 0 28 -16l-159 -154l-101 158q11 12 25 12q15 0 26 -11z" />
    <glyph glyph-name="Adieresismacron" unicode="&#x1de;" horiz-adv-x="664" 
d="M464 144l-24 104h-242l-80 -163q-5 -10 -5 -16q0 -14 20.5 -21t67.5 -12q12 0 12 -17q0 -19 -19 -19h-217q-17 0 -17 15q0 18 17 21q38 7 50.5 20t42.5 70l275 521l-21 70q-3 9 -3 14q0 14 14 14h89l144 -610q9 -38 15 -53.5t21.5 -28.5t44.5 -17q14 -1 14 -18
q0 -18 -14 -18h-251q-11 0 -11 14q0 20 17 22q40 3 55.5 13t15.5 32q0 13 -11 63zM362 578l-138 -278h205l-63 278h-4zM224 836q0 28 20 48t48 20t48 -20t20 -48t-20 -48t-48 -20t-48 20t-20 48zM424 836q0 28 20 48t48 20t48 -20t20 -48t-20 -48t-48 -20t-48 20t-20 48z
M512 940h-212q-26 0 -26 26q0 11 6.5 19t18.5 8h209q15 0 22.5 -7.5t7.5 -18.5t-7 -19t-19 -8z" />
    <glyph glyph-name="adieresismacron" unicode="&#x1df;" horiz-adv-x="552" 
d="M349 189l32 260q-32 26 -67 26q-70 0 -124.5 -89.5t-54.5 -209.5q0 -52 16 -80t44 -28q30 0 62.5 27.5t91.5 93.5zM424 93q0 -10 4.5 -12.5t20.5 -2.5h67q16 0 16 -13q0 -15 -72.5 -44t-107.5 -29q-24 0 -24 20q0 9 17 113l-3 1q-48 -66 -90 -100t-94 -34q-54 0 -86 43
t-32 124q0 158 86 260t194 102q35 0 71 -14q61 14 63 14q18 0 18 -18q0 -11 -24 -204t-24 -206zM165 630q0 28 20 48t48 20t48 -20t20 -48t-20 -48t-48 -20t-48 20t-20 48zM365 630q0 28 20 48t48 20t48 -20t20 -48t-20 -48t-48 -20t-48 20t-20 48zM455 735h-212
q-26 0 -26 26q0 11 6.5 19t18.5 8h209q15 0 22.5 -7.5t7.5 -18.5t-7 -19t-19 -8z" />
    <glyph glyph-name="AEmacron" unicode="&#x1e2;" horiz-adv-x="883" 
d="M389 171l21 185h-201l-138 -239q-23 -39 -23 -51q0 -21 87 -30q12 0 12 -17q0 -19 -19 -19h-225q-17 0 -17 15q0 18 17 21q38 7 54 21.5t49 68.5l366 603q6 10 10.5 13t16.5 3h426q12 0 17 -2.5t5 -12.5q0 -17 -13 -160q-1 -16 -17 -16q-15 0 -17 18q-2 57 -27.5 89.5
t-72.5 32.5h-152l-31 -281q43 -5 88 -5q29 0 44 1.5t35.5 9t32.5 25t19 46.5q3 14 18 14q14 0 14 -14q0 -7 -9 -101t-9 -103q0 -15 -15 -15q-17 0 -17 18q0 25 -9.5 40.5t-29 21.5t-34.5 7.5t-41 1.5q-40 0 -94 -4q-1 -12 -8.5 -77.5t-14.5 -125t-7 -62.5q0 -25 26 -33
t102 -8q38 0 67.5 11t52 35.5t33.5 40t29 47.5q8 12 20 12q14 0 14 -11t-36 -164q-5 -21 -30 -21h-467q-16 0 -16 14q0 19 17 22q50 6 69 30.5t28 104.5zM411 701l-172 -293h177q29 222 29 262q0 17 -6.5 22t-27.5 9zM700 820h-212q-26 0 -26 26q0 11 6.5 19t18.5 8h209
q15 0 22.5 -7.5t7.5 -18.5t-7 -19t-19 -8z" />
    <glyph glyph-name="aemacron" unicode="&#x1e3;" horiz-adv-x="759" 
d="M731 420q0 -64 -59.5 -106.5t-230.5 -101.5q4 -72 34 -109t75 -37q37 0 71.5 17t55.5 34t26 17q12 0 12 -14q0 -37 -63.5 -82.5t-144.5 -45.5q-54 0 -94.5 41t-54.5 109q-103 -150 -200 -150q-54 0 -86 43t-32 124q0 159 86.5 260.5t195.5 101.5q90 0 146 -47
q62 47 137 47q60 0 93 -29t33 -72zM195 68q30 0 67.5 30.5t90.5 94.5v7q0 134 62 220q-13 23 -42 39t-59 16q-70 0 -124.5 -89.5t-54.5 -209.5q0 -52 16 -80t44 -28zM637 415q0 27 -15.5 42t-44.5 15q-43 0 -87 -57.5t-49 -158.5q114 44 155 81t41 78zM598 636h-212
q-26 0 -26 26q0 11 6.5 19t18.5 8h209q15 0 22.5 -7.5t7.5 -18.5t-7 -19t-19 -8z" />
    <glyph glyph-name="Gstroke" unicode="&#x1e4;" horiz-adv-x="750" 
d="M729 172h-83l-7 -70q3 -5 9.5 -13t10 -13.5t3.5 -10.5q0 -11 -21 -21q-104 -52 -250 -52q-165 0 -255.5 98.5t-90.5 245.5q0 194 113.5 305t324.5 111q93 0 187 -23q11 -3 11 -17q0 -6 -5.5 -47.5t-12 -88t-6.5 -49.5q-1 -14 -18 -14q-18 0 -19 16q-3 35 -9 59.5
t-22.5 53.5t-52 44.5t-89.5 15.5q-52 0 -101.5 -22t-92.5 -63.5t-69 -112t-26 -158.5q0 -136 65.5 -218t175.5 -82q132 0 138 49l9 77h-84q-24 0 -24 22q0 11 7.5 20t18.5 9h88q1 8 2 18l1.5 15t0.5 6q0 19 -14 26.5t-58 13.5q-14 2 -14 19t14 17h252q17 0 17 -16
q0 -17 -18 -20q-36 -5 -54 -22t-27 -57h71q30 0 30 -25q0 -10 -7 -18t-19 -8z" />
    <glyph glyph-name="gstroke" unicode="&#x1e5;" horiz-adv-x="525" 
d="M442 -102h-56q-43 -80 -114.5 -112.5t-149.5 -32.5q-90 0 -131 34t-41 83q0 35 24.5 57.5t57.5 22.5q23 0 46 -14q-25 -34 -25 -67q0 -32 21 -53.5t56 -21.5q113 0 171 104h-137q-26 0 -26 22q0 10 7 17.5t19 7.5h157q12 36 17 73l16 118l-3 1q-49 -65 -90.5 -98
t-93.5 -33q-54 0 -86 42.5t-32 120.5q0 155 86 253.5t194 98.5q34 0 73 -14q61 14 63 14q18 0 18 -18q0 -6 -58 -473q-6 -43 -19 -85h35q23 0 23 -23q0 -24 -22 -24zM358 198l32 254q-31 25 -67 25q-70 0 -124.5 -87.5t-54.5 -203.5q0 -52 16 -79t44 -27q30 0 62.5 26.5
t91.5 91.5z" />
    <glyph glyph-name="Gcaron" unicode="&#x1e6;" horiz-adv-x="748" 
d="M537 95q19 155 19 167q0 19 -14 26.5t-58 13.5q-14 2 -14 19t14 17h252q17 0 17 -16q0 -17 -18 -20q-45 -5 -63 -32.5t-26 -102.5l-7 -65q3 -5 9.5 -13t10 -13.5t3.5 -10.5q0 -11 -21 -21q-104 -52 -250 -52q-165 0 -255.5 98.5t-90.5 245.5q0 194 113.5 305t324.5 111
q93 0 187 -23q11 -3 11 -17q0 -6 -5.5 -47.5t-12 -88t-6.5 -49.5q-1 -14 -18 -14q-18 0 -19 16q-3 35 -9 59.5t-22.5 53.5t-52 44.5t-89.5 15.5q-52 0 -101.5 -22t-92.5 -63.5t-69 -112t-26 -158.5q0 -136 65.5 -218t175.5 -82q132 0 138 49zM420 908l78 -40l102 40
q9 3 17 3q22 0 30 -17l-161 -117l-117 117q14 19 35 19q8 0 16 -5z" />
    <glyph glyph-name="gcaron" unicode="&#x1e7;" horiz-adv-x="525" 
d="M358 198l32 254q-31 25 -67 25q-70 0 -124.5 -87.5t-54.5 -203.5q0 -52 16 -79t44 -27q30 0 62.5 26.5t91.5 91.5zM425 30q-8 -67 -32.5 -118t-55 -80t-70 -48t-74 -25t-71.5 -6q-90 0 -131 34t-41 83q0 35 24.5 57.5t57.5 22.5q23 0 46 -14q-25 -34 -25 -67
q0 -32 21 -53.5t56 -21.5q77 0 134.5 55.5t73.5 168.5l16 118l-3 1q-49 -65 -90.5 -98t-93.5 -33q-54 0 -86 42.5t-32 120.5q0 155 86 253.5t194 98.5q34 0 73 -14q61 14 63 14q18 0 18 -18q0 -6 -58 -473zM275 743l64 -67l100 72q8 6 17 6q18 0 28 -16l-159 -154l-101 158
q10 12 25 12t26 -11z" />
    <glyph glyph-name="Kcaron" unicode="&#x1e8;" horiz-adv-x="702" 
d="M687 -19q0 -13 -45 -13q-123 0 -161 64l-207 344l215 258q25 30 25 44q0 24 -51 30q-16 3 -16 20t18 17h230q17 0 17 -15q0 -16 -16 -21q-86 -19 -139 -82l-194 -226l194 -295q34 -51 56 -72.5t66 -41.5q8 -3 8 -11zM298 0h-271q-16 0 -16 14q0 19 17 22q50 6 69 30.5
t28 104.5q56 476 56 499q0 18 -13.5 25t-58.5 14q-14 2 -14 19t14 17h251q12 0 12 -14q0 -19 -18 -22q-45 -7 -60 -32.5t-24 -102.5q-1 -5 -15 -128.5t-27.5 -242t-13.5 -122.5q0 -22 17 -30t67 -15q14 -2 14 -19t-14 -17zM339 908l78 -40l102 40q9 3 17 3q22 0 30 -17
l-161 -117l-117 117q14 19 35 19q8 0 16 -5z" />
    <glyph glyph-name="kcaron" unicode="&#x1e9;" horiz-adv-x="521" 
d="M403 396q0 46 -43 46q-35 0 -86.5 -43.5t-92.5 -117.5l-6 -41q20 1 56 13.5t75.5 31.5t68 49.5t28.5 61.5zM190 354h2q37 83 92.5 125t114.5 42q41 0 67 -25.5t26 -63.5q0 -69 -57.5 -120.5t-144.5 -76.5q50 -94 74.5 -125t40.5 -31q5 0 46.5 8t48.5 8q11 0 11 -11
q0 -18 -56 -55t-83 -37q-65 0 -155 217l-46 -13l-18 -169q-1 -16 -15 -20q-47 -15 -67 -15q-10 0 -10 11q0 16 43.5 357.5t43.5 353.5q0 19 -7.5 26.5t-27.5 7.5h-40q-17 0 -17 17q0 16 19 20l100 23q32 8 41 8q28 0 28 -31q0 -13 -12.5 -111.5t-26.5 -205t-15 -114.5z
M139 973l78 -40l102 40q9 3 17 3q22 0 30 -17l-161 -117l-117 117q14 19 35 19q8 0 16 -5z" />
    <glyph glyph-name="Oogonek" unicode="&#x1ea;" horiz-adv-x="771" 
d="M241 -140q0 81 69 135q-125 16 -195 104t-70 223q0 183 100.5 306.5t265.5 123.5q150 0 232.5 -90.5t82.5 -249.5q0 -160 -85.5 -276.5t-223.5 -138.5q-40 -6 -69 -34.5t-29 -69.5q0 -32 20 -49t52 -17q38 0 63 16q8 -45 -14 -71t-79 -26q-50 0 -85 29t-35 85zM408 695
q-77 0 -136 -54t-87.5 -135t-28.5 -172q0 -126 53 -205.5t154 -79.5q78 0 136.5 53.5t87 133.5t28.5 171q0 127 -53 207.5t-154 80.5z" />
    <glyph glyph-name="oogonek" unicode="&#x1eb;" horiz-adv-x="519" 
d="M101 -140q0 81 71 137q-127 28 -127 195q0 148 76.5 238.5t176.5 90.5q79 0 127.5 -48t48.5 -154q0 -123 -56.5 -207.5t-138.5 -111.5q-100 -33 -100 -111q0 -62 72 -62q38 0 63 16q8 -45 -14 -71t-79 -26q-50 0 -85 29t-35 85zM281 472q-60 0 -100 -75t-40 -199
q0 -75 27 -116t70 -41q60 0 100 75t40 199q0 76 -26 116.5t-71 40.5z" />
    <glyph glyph-name="uni01EC" unicode="&#x1ec;" horiz-adv-x="771" 
d="M538 820h-212q-26 0 -26 26q0 11 6.5 19t18.5 8h209q15 0 22.5 -7.5t7.5 -18.5t-7 -19t-19 -8zM241 -140q0 81 69 135q-125 16 -195 104t-70 223q0 183 100.5 306.5t265.5 123.5q150 0 232.5 -90.5t82.5 -249.5q0 -160 -85.5 -276.5t-223.5 -138.5q-40 -6 -69 -34.5
t-29 -69.5q0 -32 20 -49t52 -17q38 0 63 16q8 -45 -14 -71t-79 -26q-50 0 -85 29t-35 85zM408 695q-77 0 -136 -54t-87.5 -135t-28.5 -172q0 -126 53 -205.5t154 -79.5q78 0 136.5 53.5t87 133.5t28.5 171q0 127 -53 207.5t-154 80.5z" />
    <glyph glyph-name="uni01ED" unicode="&#x1ed;" horiz-adv-x="519" 
d="M416 636h-212q-26 0 -26 26q0 11 6.5 19t18.5 8h209q15 0 22.5 -7.5t7.5 -18.5t-7 -19t-19 -8zM101 -140q0 81 71 137q-127 28 -127 195q0 148 76.5 238.5t176.5 90.5q79 0 127.5 -48t48.5 -154q0 -123 -56.5 -207.5t-138.5 -111.5q-100 -33 -100 -111q0 -62 72 -62
q38 0 63 16q8 -45 -14 -71t-79 -26q-50 0 -85 29t-35 85zM281 472q-60 0 -100 -75t-40 -199q0 -75 27 -116t70 -41q60 0 100 75t40 199q0 76 -26 116.5t-71 40.5z" />
    <glyph glyph-name="Ezhcaron" unicode="&#x1ee;" horiz-adv-x="608" 
d="M464 690h-222q-47 0 -75 -30t-46 -97q-5 -16 -21 -16q-13 0 -13 15q0 24 15 152q2 17 8 24t25 7h451q21 0 21 -14q0 -10 -8 -21l-353 -415q111 -14 185.5 -77.5t74.5 -174.5q0 -77 -29.5 -136t-78 -91t-100.5 -47.5t-106 -15.5q-104 0 -167 38.5t-63 95.5q0 41 25.5 60
t57.5 19q19 0 32 -5q0 -85 27.5 -123.5t94.5 -38.5q82 0 140 68t58 164q0 102 -57 159.5t-185 66.5q-9 1 -15.5 7t-6.5 12q0 12 16 31zM294 908l78 -40l102 40q9 3 17 3q22 0 30 -17l-161 -117l-117 117q14 19 35 19q8 0 16 -5z" />
    <glyph glyph-name="ezhcaron" unicode="&#x1ef;" horiz-adv-x="442" 
d="M329 429h-172q-9 0 -16.5 -1.5t-14 -6.5t-11 -8t-10.5 -12.5t-8 -13t-8.5 -16.5t-8.5 -16q-7 -14 -17 -14q-15 0 -15 15q0 4 3 14l3 11q24 83 51.5 111.5t72.5 28.5q39 0 103 -12t83 -12q28 0 41 13q15 15 30 15q10 0 16 -6t6 -14t-10 -21l-283 -324q105 -12 162.5 -70
t57.5 -129q0 -100 -65.5 -155t-159.5 -55q-64 0 -119.5 19.5t-55.5 44.5q0 17 15 17q5 0 40 -13.5t74 -13.5q74 0 123 45.5t49 121.5q0 58 -47.5 102t-108.5 53q-28 4 -28 21q0 10 10 22zM236 743l64 -67l100 72q8 6 17 6q18 0 28 -16l-159 -154l-101 158q11 12 25 12
q15 0 26 -11z" />
    <glyph glyph-name="jcaron" unicode="&#x1f0;" horiz-adv-x="287" 
d="M79 -74q3 15 30.5 244.5t27.5 244.5q0 6 -4.5 7.5t-20.5 1.5h-61q-13 0 -13 13q0 16 69.5 50t103.5 34q24 0 24 -21q0 -8 -13 -112.5t-27.5 -220t-14.5 -116.5q-5 -49 -13 -88t-24.5 -80t-39.5 -68t-60 -44.5t-84 -17.5q-39 0 -64 16.5t-25 49.5q0 26 16 43.5t43 17.5
q17 0 34 -7q0 -37 6.5 -53.5t28.5 -16.5q35 0 52.5 30.5t28.5 92.5zM140 743l64 -67l100 72q8 6 17 6q18 0 28 -16l-159 -154l-101 158q10 12 25 12t26 -11z" />
    <glyph glyph-name="Gacute" unicode="&#x1f4;" horiz-adv-x="748" 
d="M537 95q19 155 19 167q0 19 -14 26.5t-58 13.5q-14 2 -14 19t14 17h252q17 0 17 -16q0 -17 -18 -20q-45 -5 -63 -32.5t-26 -102.5l-7 -65q3 -5 9.5 -13t10 -13.5t3.5 -10.5q0 -11 -21 -21q-104 -52 -250 -52q-165 0 -255.5 98.5t-90.5 245.5q0 194 113.5 305t324.5 111
q93 0 187 -23q11 -3 11 -17q0 -6 -5.5 -47.5t-12 -88t-6.5 -49.5q-1 -14 -18 -14q-18 0 -19 16q-3 35 -9 59.5t-22.5 53.5t-52 44.5t-89.5 15.5q-52 0 -101.5 -22t-92.5 -63.5t-69 -112t-26 -158.5q0 -136 65.5 -218t175.5 -82q132 0 138 49zM415 789q-31 0 -31 33
q48 21 81 42.5t44.5 34.5t19.5 21t15 8q10 0 36 -32q21 -25 21 -35q0 -11 -13 -17q-33 -19 -91 -37t-82 -18z" />
    <glyph glyph-name="gacute" unicode="&#x1f5;" horiz-adv-x="525" 
d="M358 198l32 254q-31 25 -67 25q-70 0 -124.5 -87.5t-54.5 -203.5q0 -52 16 -79t44 -27q30 0 62.5 26.5t91.5 91.5zM425 30q-8 -67 -32.5 -118t-55 -80t-70 -48t-74 -25t-71.5 -6q-90 0 -131 34t-41 83q0 35 24.5 57.5t57.5 22.5q23 0 46 -14q-25 -34 -25 -67
q0 -32 21 -53.5t56 -21.5q77 0 134.5 55.5t73.5 168.5l16 118l-3 1q-49 -65 -90.5 -98t-93.5 -33q-54 0 -86 42.5t-32 120.5q0 155 86 253.5t194 98.5q34 0 73 -14q61 14 63 14q18 0 18 -18q0 -6 -58 -473zM285 597q0 25 58 96.5t80 71.5q11 0 29 -29.5t18 -42.5
q0 -7 -8 -11q-49 -21 -80.5 -43t-71.5 -65q-10 0 -17.5 6t-7.5 17z" />
    <glyph glyph-name="Aringacute" unicode="&#x1fa;" horiz-adv-x="664" 
d="M464 144l-24 104h-242l-80 -163q-5 -10 -5 -16q0 -14 20.5 -21t67.5 -12q12 0 12 -17q0 -19 -19 -19h-217q-17 0 -17 15q0 18 17 21q38 7 50.5 20t42.5 70l275 521l-21 70q-3 9 -3 14q0 14 14 14h89l144 -610q9 -38 15 -53.5t21.5 -28.5t44.5 -17q14 -1 14 -18
q0 -18 -14 -18h-251q-11 0 -11 14q0 20 17 22q40 3 55.5 13t15.5 32q0 13 -11 63zM362 578l-138 -278h205l-63 278h-4zM478 857q0 -40 -26.5 -66.5t-68.5 -26.5q-45 0 -71 26.5t-26 66.5q0 45 37.5 81.5t84 53.5t85.5 17q14 0 14 -15v-62q0 -8 -7 -8q-88 0 -130 -16.5
t-42 -54.5q0 -23 15 -37t39 -14q56 0 56 63q0 14 -4 25q8 5 17 5q27 0 27 -38z" />
    <glyph glyph-name="aringacute" unicode="&#x1fb;" horiz-adv-x="552" 
d="M349 189l32 260q-32 26 -67 26q-70 0 -124.5 -89.5t-54.5 -209.5q0 -52 16 -80t44 -28q30 0 62.5 27.5t91.5 93.5zM424 93q0 -10 4.5 -12.5t20.5 -2.5h67q16 0 16 -13q0 -15 -72.5 -44t-107.5 -29q-24 0 -24 20q0 9 17 113l-3 1q-48 -66 -90 -100t-94 -34q-54 0 -86 43
t-32 124q0 158 86 260t194 102q35 0 71 -14q61 14 63 14q18 0 18 -18q0 -11 -24 -204t-24 -206zM419 638q0 -40 -26.5 -66.5t-68.5 -26.5q-45 0 -71 26.5t-26 66.5q0 45 37.5 81.5t84 53.5t85.5 17q14 0 14 -15v-62q0 -8 -7 -8q-88 0 -130 -16.5t-42 -54.5q0 -23 15 -37
t39 -14q56 0 56 63q0 14 -4 25q8 5 17 5q27 0 27 -38z" />
    <glyph glyph-name="AEacute" unicode="&#x1fc;" horiz-adv-x="883" 
d="M389 171l21 185h-201l-138 -239q-23 -39 -23 -51q0 -21 87 -30q12 0 12 -17q0 -19 -19 -19h-225q-17 0 -17 15q0 18 17 21q38 7 54 21.5t49 68.5l366 603q6 10 10.5 13t16.5 3h426q12 0 17 -2.5t5 -12.5q0 -17 -13 -160q-1 -16 -17 -16q-15 0 -17 18q-2 57 -27.5 89.5
t-72.5 32.5h-152l-31 -281q43 -5 88 -5q29 0 44 1.5t35.5 9t32.5 25t19 46.5q3 14 18 14q14 0 14 -14q0 -7 -9 -101t-9 -103q0 -15 -15 -15q-17 0 -17 18q0 25 -9.5 40.5t-29 21.5t-34.5 7.5t-41 1.5q-40 0 -94 -4q-1 -12 -8.5 -77.5t-14.5 -125t-7 -62.5q0 -25 26 -33
t102 -8q38 0 67.5 11t52 35.5t33.5 40t29 47.5q8 12 20 12q14 0 14 -11t-36 -164q-5 -21 -30 -21h-467q-16 0 -16 14q0 19 17 22q50 6 69 30.5t28 104.5zM411 701l-172 -293h177q29 222 29 262q0 17 -6.5 22t-27.5 9zM516 789q-31 0 -31 33q48 21 81 42.5t44.5 34.5t19.5 21
t15 8q10 0 36 -32q21 -25 21 -35q0 -11 -13 -17q-33 -19 -91 -37t-82 -18z" />
    <glyph glyph-name="aeacute" unicode="&#x1fd;" horiz-adv-x="759" 
d="M731 420q0 -64 -59.5 -106.5t-230.5 -101.5q4 -72 34 -109t75 -37q37 0 71.5 17t55.5 34t26 17q12 0 12 -14q0 -37 -63.5 -82.5t-144.5 -45.5q-54 0 -94.5 41t-54.5 109q-103 -150 -200 -150q-54 0 -86 43t-32 124q0 159 86.5 260.5t195.5 101.5q90 0 146 -47
q62 47 137 47q60 0 93 -29t33 -72zM195 68q30 0 67.5 30.5t90.5 94.5v7q0 134 62 220q-13 23 -42 39t-59 16q-70 0 -124.5 -89.5t-54.5 -209.5q0 -52 16 -80t44 -28zM637 415q0 27 -15.5 42t-44.5 15q-43 0 -87 -57.5t-49 -158.5q114 44 155 81t41 78zM450 597q0 25 58 96.5
t80 71.5q11 0 29 -29.5t18 -42.5q0 -7 -8 -11q-49 -21 -80.5 -43t-71.5 -65q-10 0 -17.5 6t-7.5 17z" />
    <glyph glyph-name="Oslashacute" unicode="&#x1fe;" horiz-adv-x="800" 
d="M748 716l-72 -75q67 -87 67 -229q0 -112 -43.5 -207t-128.5 -154t-194 -59q-150 0 -235 94l-88 -92q-9 -9 -19 -9q-9 0 -15.5 7.5t-6.5 16.5q0 11 7 18l93 97q-51 83 -51 198q0 183 100.5 306.5t265.5 123.5q135 0 217 -76l68 71q8 8 18 8q9 0 16 -7.5t7 -16.5t-6 -15z
M632 407q0 93 -28 159l-395 -410q53 -107 171 -107q78 0 136.5 53.5t87 133.5t28.5 171zM425 695q-77 0 -136 -54t-87.5 -135t-28.5 -172q0 -70 17 -130l391 406q-56 85 -156 85zM368 798q-31 0 -31 33q48 21 81 42.5t44.5 34.5t19.5 21t15 8q10 0 36 -32q21 -25 21 -35
q0 -11 -13 -17q-33 -19 -91 -37t-82 -18z" />
    <glyph glyph-name="oslashacute" unicode="&#x1ff;" horiz-adv-x="519" 
d="M515 484l-59 -59q18 -46 18 -106q0 -147 -76.5 -237t-176.5 -90q-91 0 -137 58l-57 -58q-9 -9 -19 -9t-16.5 7.5t-6.5 17.5q0 9 8 17l68 68q-16 42 -16 99q0 148 76.5 238.5t176.5 90.5q88 0 133 -55l49 49q8 8 18 8t16.5 -7.5t6.5 -16.5t-6 -15zM378 315q0 20 -1 30
l-226 -227q24 -77 87 -77q60 0 100 75t40 199zM281 472q-60 0 -100 -75t-40 -199v-24l225 226q-25 72 -85 72zM234 597q0 25 58 96.5t80 71.5q11 0 29 -29.5t18 -42.5q0 -7 -8 -11q-49 -21 -80.5 -43t-71.5 -65q-10 0 -17.5 6t-7.5 17z" />
    <glyph glyph-name="Ainvertedbreve" unicode="&#x202;" horiz-adv-x="664" 
d="M464 144l-24 104h-242l-80 -163q-5 -10 -5 -16q0 -14 20.5 -21t67.5 -12q12 0 12 -17q0 -19 -19 -19h-217q-17 0 -17 15q0 18 17 21q38 7 50.5 20t42.5 70l275 521l-21 70q-3 9 -3 14q0 14 14 14h89l144 -610q9 -38 15 -53.5t21.5 -28.5t44.5 -17q14 -1 14 -18
q0 -18 -14 -18h-251q-11 0 -11 14q0 20 17 22q40 3 55.5 13t15.5 32q0 13 -11 63zM362 578l-138 -278h205l-63 278h-4zM398 929q63 0 100 -35t37 -87q0 -10 -5 -16t-12 -6q-10 0 -15 12q-28 64 -107 64q-86 0 -121 -64q-7 -13 -18 -13q-14 0 -14 19q1 44 47 85t108 41z" />
    </font>
</defs>
</svg>
