<?xml version="1.0" encoding="utf-8"?>
<!-- Generator: Adobe Illustrator 21.1.0, SVG Export Plug-In . SVG Version: 6.00 Build 0)  -->
<svg version="1.1" id="Layer_1" xmlns="http://www.w3.org/2000/svg" xmlns:xlink="http://www.w3.org/1999/xlink" x="0px" y="0px"
	 viewBox="0 0 288 288" style="enable-background:new 0 0 288 288;" xml:space="preserve">
<path d="M288,143.9c-0.3-3.6-1.6-7.8-3.5-10.2l-64-81.3c-6.2-7.2-16-7.9-22.5-2.5s-7.7,16.2-2.5,22.9l43.2,54.9H16
	c-8.8,0-16,7.3-16,16.3c0,9,7.2,16.3,16,16.3h222.7L195.5,215c-5.2,6.6-3.8,17.3,2.5,22.9c6.9,6.1,17.3,4.1,22.5-2.5l64-81.3
	C287.2,150.7,287.9,148.3,288,143.9z"/>
</svg>
