<svg viewBox="0 0 288 288" xmlns="http://www.w3.org/2000/svg"><path d="m67.8 220.3c-7.7-7.8-17-11.7-27.9-11.7s-20.3 3.9-27.9 11.7c-8 7.7-12 17-12 28s4 20.3 11.9 28.1c7.7 7.7 17 11.5 27.9 11.5s20.3-3.8 27.9-11.5c7.8-7.8 11.7-17.2 11.7-28.1.1-11-3.8-20.3-11.6-28m19.6-103.3c-19.2-8.3-39.5-12.4-60.8-12.4v52.5c14.3 0 27.8 2.8 40.5 8.3 13.1 5.4 24.2 12.8 33.6 22.1 9.3 9.3 16.7 20.4 22.1 33.3 5.6 13.1 8.3 26.6 8.3 40.8h52.5c0-21.3-4.1-41.6-12.4-60.8-8.4-19.5-19.6-36.3-33.6-50.2-14.1-14.2-30.9-25.4-50.2-33.6"/><path d="m172.7 44.9c-14.1-9.6-28.9-17.7-44.4-24.3-15.6-6.5-32-11.5-49.1-15.1-17.2-3.6-34.8-5.4-52.6-5.4v52.2c19.1 0 37.6 2.5 55.6 7.4 18 5 34.7 11.9 50 20.9 15.2 9 29.3 20 42.3 32.9 13.1 13.1 24 27.2 32.9 42.3 9 15.2 16 31.8 20.9 50 5 17.9 7.4 36.4 7.4 55.6h52.3c0-17.9-1.8-35.4-5.4-52.7s-8.7-33.6-15.3-49.1c-6.5-15.5-14.4-30.2-23.9-44.1-9.6-14.1-20.3-27.1-32.2-39-11.7-11.5-24.5-22.1-38.5-31.6"/></svg>