<?xml version="1.0" encoding="utf-8"?>
<!-- Generator: Adobe Illustrator 21.1.0, SVG Export Plug-In . SVG Version: 6.00 Build 0)  -->
<svg version="1.1" id="Layer_1" xmlns="http://www.w3.org/2000/svg" xmlns:xlink="http://www.w3.org/1999/xlink" x="0px" y="0px"
	 viewBox="0 0 288 288" style="enable-background:new 0 0 288 288;" xml:space="preserve">
<style type="text/css">
	.st0{fill:#3D3D65;}
</style>
<path class="st0" d="M237.6,14.4H50.4c-19.9,0-36,16.1-36,36v187.2c0,19.9,16.1,36,36,36h187.2c19.9,0,36-16.1,36-36V50.4
	C273.6,30.5,257.5,14.4,237.6,14.4z M144.4,93.2c27.8,0,50.4,22.6,50.4,50.4S172.2,194,144.4,194S94,171.4,94,143.6
	S116.6,93.2,144.4,93.2L144.4,93.2z M245.7,237.1c0,4-3.7,8.6-7.6,8.6H50.8c-4,0-8.5-4.6-8.5-8.6V121.5h25.9c-2,6.3-3,14.3-3,21.8
	c0,43.7,35.5,79.3,79.2,79.3s79.2-35.6,79.2-79.4c0-7.5-1.1-15.5-3-21.8h25v115.7H245.7z M243,84.6c0,4-3.2,7.2-7.2,7.2h-35.1
	c-4,0-7.2-3.2-7.2-7.2V49.5c0-4,3.2-7.2,7.2-7.2h35.1c4,0,7.2,3.2,7.2,7.2L243,84.6L243,84.6z"/>
</svg>
