<svg enable-background="new 0 0 288 288" viewBox="0 0 288 288" xmlns="http://www.w3.org/2000/svg"><path d="m266.7 29.1c-28.4-28.4-74.3-28.4-102.7 0l-40.5 40.5c3.2-.3 6.4-.5 9.7-.5 10.3 0 20.2 1.6 29.7 4.8l23-23c7.9-7.9 18.4-12.2 29.5-12.2 11.2 0 21.6 4.3 29.5 12.2s12.2 18.3 12.2 29.5-4.3 21.6-12.2 29.5l-44.9 45c-7.9 7.9-18.4 12.2-29.5 12.2-11.2 0-21.6-4.3-29.5-12.2-3.8-3.8-6.8-8.3-8.9-13.1-5.1.3-9.9 2.4-13.6 6.1l-12 12c3.3 6.1 7.5 11.8 12.6 16.9 28.4 28.4 74.3 28.4 102.7 0l44.9-44.9c28.4-28.5 28.4-74.4 0-102.8z"/><path d="m171 218.9c-10.3 0-20.3-1.7-30-4.9l-23.2 23c-7.9 7.9-18.4 12.2-29.5 12.2s-21.6-4.3-29.5-12.2-12.2-18.4-12.2-29.5 4.3-21.6 12.2-29.5l44.9-44.9c7.9-7.9 18.4-12.2 29.5-12.2 11.2 0 21.6 4.3 29.5 12.2 3.8 3.8 6.8 8.3 8.9 13.1 5.1-.3 9.9-2.4 13.6-6.1l11.9-12c-3.3-6.1-7.5-11.8-12.6-16.9-28.4-28.4-74.3-28.4-102.7 0l-44.8 45c-28.4 28.4-28.4 74.3 0 102.7s74.3 28.4 102.7 0l40.4-40.4c-3 .2-6.1.4-9.1.4z"/></svg>