<?xml version="1.0" encoding="utf-8"?>
<!-- Generator: Adobe Illustrator 21.1.0, SVG Export Plug-In . SVG Version: 6.00 Build 0)  -->
<svg version="1.1" id="Layer_1" xmlns="http://www.w3.org/2000/svg" xmlns:xlink="http://www.w3.org/1999/xlink" x="0px" y="0px"
	 viewBox="0 0 387 90" style="enable-background:new 0 0 387 90;" xml:space="preserve">
<style type="text/css">
	.st0{fill:#FFFFFF;}
</style>
<path class="st0" d="M283.6,14.4c17,0,30.8,13.8,30.8,30.8S300.6,76,283.6,76s-30.8-13.8-30.8-30.8
	C252.9,28.2,266.7,14.4,283.6,14.4 M283.6,0c-24.9,0-45.2,20.2-45.2,45.2c0,24.9,20.2,45.2,45.2,45.2s45.2-20.2,45.2-45.2
	S308.6,0,283.6,0z M184.8,14.4c17,0,30.8,13.8,30.8,30.8S201.8,76,184.8,76S154,62.1,154,45.2C154,28.2,167.8,14.4,184.8,14.4
	 M184.8,0c-24.9,0-45.2,20.2-45.2,45.2c0,24.9,20.2,45.2,45.2,45.2S230,70.2,230,45.2C229.9,20.2,209.7,0,184.8,0z M67.1,66.7
	c-5.6,5.7-13.3,9.2-21.9,9.2c-17,0-30.8-13.8-30.8-30.8s13.8-30.8,30.8-30.8c8.6,0,16.3,3.5,21.9,9.2l10.3-10.1
	C69.2,5.2,57.8,0,45.2,0C20.2,0,0,20.2,0,45.2c0,24.9,20.2,45.2,45.2,45.2c12.6,0,24-5.2,32.2-13.5L67.1,66.7z M124.3,0L85.2,22.6
	l7.2,12.5l17.5-10.2v65.4h14.4 M365.5,8.4c7.1,0,12.9,5.8,12.9,12.9s-5.8,12.9-12.9,12.9s-12.9-5.8-12.9-12.9S358.3,8.4,365.5,8.4
	 M365.5,0c-11.8,0-21.4,9.6-21.4,21.4s9.6,21.4,21.4,21.4s21.4-9.6,21.4-21.4S377.2,0,365.5,0z M344.1,51.1h42.7v8.4h-42.7V51.1z"/>
</svg>
