<?xml version="1.0" encoding="utf-8"?>
<!-- Generator: Adobe Illustrator 21.1.0, SVG Export Plug-In . SVG Version: 6.00 Build 0)  -->
<svg version="1.1" id="Layer_1" xmlns="http://www.w3.org/2000/svg" xmlns:xlink="http://www.w3.org/1999/xlink" x="0px" y="0px"
	 viewBox="0 0 288 288" style="enable-background:new 0 0 288 288;" xml:space="preserve">
<style type="text/css">
	.st0{fill:#3D3D65;}
</style>
<path class="st0" d="M289.2,53.9c-10.7,4.7-22.2,7.9-34.2,9.4c12.3-7.4,21.8-19.1,26.2-33c-11.5,6.8-24.3,11.8-37.8,14.5
	C232.5,33.2,217,26,199.9,26c-32.9,0-59.6,26.7-59.6,59.6c0,4.7,0.5,9.2,1.5,13.6C92.3,96.7,48.4,72.9,19,36.9
	c-5.1,8.8-8.1,19-8.1,30c0,20.7,10.5,38.9,26.5,49.6c-9.8-0.3-19-3-27-7.5v0.7c0,28.9,20.5,53,47.8,58.4c-5,1.4-10.3,2.1-15.7,2.1
	c-3.8,0-7.6-0.4-11.2-1.1c7.6,23.7,29.6,40.9,55.7,41.4c-20.4,16-46.1,25.5-74,25.5c-4.8,0-9.6-0.3-14.2-0.8
	c26.4,17,57.7,26.8,91.3,26.8c109.6,0,169.5-90.8,169.5-169.5c0-2.6-0.1-5.2-0.2-7.7C271.1,76.4,281.2,65.9,289.2,53.9L289.2,53.9z"
	/>
</svg>
